<?xml version="1.0" standalone="no"?>
<!DOCTYPE svg PUBLIC "-//W3C//DTD SVG 1.1//EN" "http://www.w3.org/Graphics/SVG/1.1/DTD/svg11.dtd" >
<svg xmlns="http://www.w3.org/2000/svg" xmlns:xlink="http://www.w3.org/1999/xlink" version="1.1">
<metadata>
Created by FontForge 20170731 at Wed Jan 11 21:14:54 2023
 By Aleksey,,,
Copyright 2019 The Sofia Sans Project Authors (https://github.com/lettersoup/Sofia-Sans)
</metadata>
<defs>
<font id="SofiaSans-Medium" horiz-adv-x="0" >
  <font-face 
    font-family="Sofia Sans Medium"
    font-weight="500"
    font-stretch="normal"
    units-per-em="1000"
    panose-1="0 0 0 0 0 0 0 0 0 0"
    ascent="800"
    descent="-200"
    x-height="489"
    cap-height="655"
    bbox="-149.471 -244 1295 902"
    underline-thickness="50"
    underline-position="-175"
    unicode-range="U+000D-FB02"
  />
<missing-glyph horiz-adv-x="590" 
d="M108 0q-4 0 -7 3t-3 8v659q0 5 3 7.5t7 2.5h373q5 0 8 -2.5t3 -7.5v-659q0 -5 -3 -8t-8 -3h-373zM170 73h249v534h-249v-534z" />
    <glyph glyph-name="f_f" unicode="ff" horiz-adv-x="741" 
d="M116 0q-4 0 -7 3t-3 8v397h-77q-4 0 -7 3.5t-3 7.5v60q0 5 3 7.5t7 2.5h77v49q0 76 43.5 116.5t121.5 40.5q25 0 50.5 -4.5t42.5 -11.5q18 -6 18 -16v-59q0 -7 -4.5 -9t-18.5 4q-16 7 -37.5 11t-39.5 4q-40 0 -60.5 -20t-20.5 -59v-46h140q10 0 10 -10v-60
q0 -4 -2.5 -7.5t-7.5 -3.5h-140v-397q0 -5 -3 -8t-8 -3h-74zM485 0q-4 0 -7 3t-3 8v397h-77q-4 0 -7 3.5t-3 7.5v60q0 5 3 7.5t7 2.5h77v49q0 76 43.5 116.5t121.5 40.5q25 0 50.5 -4.5t42.5 -11.5q18 -6 18 -16v-59q0 -7 -4.5 -9t-18.5 4q-16 7 -37.5 11t-39.5 4
q-40 0 -60.5 -20t-20.5 -59v-46h140q10 0 10 -10v-60q0 -4 -2.5 -7.5t-7.5 -3.5h-140v-397q0 -5 -3 -8t-8 -3h-74z" />
    <glyph glyph-name="f_i" unicode="fi" horiz-adv-x="572" 
d="M116 0q-4 0 -7 3t-3 8v397h-77q-4 0 -7 3.5t-3 7.5v60q0 5 3 7.5t7 2.5h77v44q0 82 44.5 122t138.5 40q28 0 59.5 -3.5t52.5 -7.5q9 -1 9 -12v-58q0 -12 -12 -10q-27 6 -53 10t-52 4q-46 0 -69 -18t-23 -55v-56h289q10 0 10 -10v-468q0 -11 -10 -11h-74q-11 0 -11 11v397
h-204v-397q0 -5 -3 -8t-8 -3h-74z" />
    <glyph glyph-name="f_l" unicode="fl" horiz-adv-x="572" 
d="M116 0q-4 0 -7 3t-3 8v397h-77q-4 0 -7 3.5t-3 7.5v60q0 5 3 7.5t7 2.5h77v44q0 86 47 124t136 38q38 0 73 -5.5t56 -8.5l72 2q10 0 10 -11v-661q0 -11 -10 -11h-74q-11 0 -11 11v594q-26 4 -55.5 8.5t-57.5 4.5q-44 0 -67.5 -18t-23.5 -55v-56h96q5 0 7.5 -2.5t2.5 -7.5
v-60q0 -4 -2.5 -7.5t-7.5 -3.5h-96v-397q0 -5 -3 -8t-8 -3h-74z" />
    <glyph glyph-name=".notdef" horiz-adv-x="590" 
d="M108 0q-4 0 -7 3t-3 8v659q0 5 3 7.5t7 2.5h373q5 0 8 -2.5t3 -7.5v-659q0 -5 -3 -8t-8 -3h-373zM170 73h249v534h-249v-534z" />
    <glyph glyph-name=".null" 
 />
    <glyph glyph-name="nonmarkingreturn" horiz-adv-x="333" 
 />
    <glyph glyph-name="CR" unicode="&#xd;" horiz-adv-x="9" 
 />
    <glyph glyph-name="space" unicode=" " horiz-adv-x="208" 
 />
    <glyph glyph-name="exclam" unicode="!" horiz-adv-x="239" 
d="M84 204q-10 0 -10 11l-7 429q0 11 10 11h85q10 0 10 -11l-7 -429q0 -11 -10 -11h-71zM120 -12q-32 0 -46.5 16t-14.5 43v12q0 28 14.5 44t46.5 16t46.5 -16t14.5 -44v-12q0 -27 -14.5 -43t-46.5 -16z" />
    <glyph glyph-name="quotedbl" unicode="&#x22;" horiz-adv-x="341" 
d="M208 420q-10 0 -10 10v242q0 11 10 11h74q10 0 10 -11v-242q0 -10 -10 -10h-74zM59 420q-11 0 -11 10v242q0 11 11 11h73q11 0 11 -11v-242q0 -10 -11 -10h-73z" />
    <glyph glyph-name="numbersign" unicode="#" horiz-adv-x="604" 
d="M131 0q-11 0 -11 11v112h-80q-11 0 -11 10v56q0 10 11 10h80v215h-80q-11 0 -11 10v56q0 10 11 10h80v112q0 11 11 11h70q10 0 10 -11v-112h182v112q0 11 10 11h70q11 0 11 -11v-112h80q11 0 11 -10v-56q0 -10 -11 -10h-80v-215h80q11 0 11 -10v-56q0 -10 -11 -10h-80
v-112q0 -11 -11 -11h-70q-10 0 -10 11v112h-182v-112q0 -11 -10 -11h-70zM211 199h182v215h-182v-215z" />
    <glyph glyph-name="dollar" unicode="$" horiz-adv-x="630" 
d="M310 -12q-100 0 -157 48t-56 147q0 11 11 11h72q10 0 10 -12q-1 -52 28 -82t95 -30q65 0 94 22t29 75q0 24 -7 41.5t-23 31.5t-44 26l-134 63q-61 28 -91.5 69t-29.5 103q1 86 57 125.5t148 39.5q100 0 156 -47.5t55 -143.5q0 -10 -9 -10h-73q-10 0 -10 10q0 55 -30.5 82
t-89.5 27q-52 0 -80.5 -20t-29.5 -61q-1 -37 19 -60t62 -42l131 -62q38 -18 64.5 -39t40.5 -52t13 -79q0 -89 -60 -135t-161 -46zM285 -89q-10 0 -10 10v83l84 5v-88q0 -10 -10 -10h-64zM275 649v83q0 10 10 10h64q10 0 10 -10v-88z" />
    <glyph glyph-name="percent" unicode="%" horiz-adv-x="943" 
d="M244 0q-14 0 -7 13l198 329l178 307q6 8 13 8h73q14 0 7 -13l-187 -310l-189 -327q-5 -7 -13 -7h-73zM228 315q-86 0 -128.5 42t-42.5 119v30q0 77 43 119t128 42t127 -42t42 -119v-30q0 -77 -42.5 -119t-126.5 -42zM228 386q46 0 67 21t21 68v32q0 48 -21 68.5t-67 20.5
q-47 0 -68 -21t-21 -68v-32q0 -47 21 -68t68 -21zM715 -12q-85 0 -127 42.5t-42 118.5v30q0 77 42.5 119t126.5 42q86 0 128.5 -42t42.5 -119v-30q0 -76 -43 -118.5t-128 -42.5zM715 59q47 0 68 21t21 68v32q0 47 -20.5 68t-68.5 21q-46 0 -67 -21t-21 -68v-32
q0 -48 21 -68.5t67 -20.5z" />
    <glyph glyph-name="ampersand" unicode="&#x26;" horiz-adv-x="674" 
d="M551 0q-4 0 -7.5 1.5t-6.5 3.5l-353 342q-48 47 -71 89.5t-23 86.5q0 75 42.5 109.5t120.5 34.5q71 0 110.5 -35t39.5 -101q0 -31 -14.5 -60.5t-43 -60t-72.5 -64.5l-58 54q34 25 56 46.5t32.5 42t10.5 40.5q0 29 -15.5 44.5t-50.5 15.5q-36 0 -52 -17.5t-16 -48.5
q0 -29 18 -58t57 -68l399 -383q6 -5 4.5 -9.5t-9.5 -4.5h-98zM256 -12q-71 0 -117 23t-68 63t-22 90q0 47 17.5 84.5t49.5 70t74 62.5l57 -55q-41 -32 -65 -56.5t-33.5 -48.5t-9.5 -54q0 -42 32 -70t94 -28q81 0 128.5 34.5t68 99.5t20.5 153q0 11 11 11h69q11 0 11 -11
q0 -114 -34.5 -196.5t-105 -127t-177.5 -44.5z" />
    <glyph glyph-name="quotesingle" unicode="'" horiz-adv-x="191" 
d="M59 420q-11 0 -11 10v242q0 11 11 11h73q11 0 11 -11v-242q0 -10 -11 -10h-73z" />
    <glyph glyph-name="parenleft" unicode="(" horiz-adv-x="272" 
d="M168 -146q-36 29 -57 56.5t-30 62t-9 81.5v447q0 49 10 81.5t31.5 60t54.5 59.5q3 3 7.5 3t8.5 -3l45 -45q8 -7 0 -15q-23 -23 -37.5 -42t-20.5 -42t-6 -59v-443q0 -35 7 -57.5t21.5 -41t35.5 -43.5q7 -9 0 -15l-45 -45q-4 -4 -8 -3.5t-8 3.5z" />
    <glyph glyph-name="parenright" unicode=")" horiz-adv-x="272" 
d="M89 -146l-46 45q-6 6 1 15q23 24 36.5 42.5t20.5 41.5t7 58v443q0 36 -6.5 59t-20.5 42t-37 42q-8 8 -1 15l46 45q3 3 7.5 3t8.5 -3q35 -30 55.5 -58t30.5 -61t10 -82v-447q0 -47 -9 -81.5t-30 -62t-57 -56.5q-5 -3 -9 -3.5t-7 3.5z" />
    <glyph glyph-name="asterisk" unicode="*" horiz-adv-x="413" 
d="M142 413l-45 34q-4 3 -4 7.5t3 7.5l66 73l-98 21q-6 1 -7 5t1 8l17 52q2 5 6 6.5t9 -0.5l89 -40l-9 100q-2 11 9 11h54q12 0 10 -11l-9 -101l89 41q5 2 9.5 0.5t5.5 -6.5l18 -52q2 -6 0 -9t-7 -4l-99 -22l66 -72q4 -4 3.5 -8t-5.5 -8l-45 -32q-9 -7 -14 3l-49 85l-50 -86
q-3 -4 -6.5 -5.5t-7.5 2.5z" />
    <glyph glyph-name="plus" unicode="+" horiz-adv-x="600" 
d="M269 111q-10 0 -10 10v140h-158q-10 0 -10 11v57q0 11 10 11h158v140q0 10 10 10h62q10 0 10 -10v-140h158q10 0 10 -11v-57q0 -11 -10 -11h-158v-140q0 -10 -10 -10h-62z" />
    <glyph glyph-name="comma" unicode="," horiz-adv-x="242" 
d="M39 -131q-12 0 -9 13l50 224q2 9 11 9h87q14 0 8 -14l-75 -225q-3 -7 -10 -7h-62z" />
    <glyph glyph-name="hyphen" unicode="-" horiz-adv-x="489" 
d="M77 229q-10 0 -10 11v51q0 11 10 11h334q11 0 11 -11v-51q0 -11 -11 -11h-334z" />
    <glyph glyph-name="period" unicode="." horiz-adv-x="242" 
d="M121 -12q-33 0 -47.5 16.5t-14.5 44.5v12q0 27 14.5 43.5t47.5 16.5t47.5 -16.5t14.5 -43.5v-12q0 -28 -14.5 -44.5t-47.5 -16.5z" />
    <glyph glyph-name="slash" unicode="/" horiz-adv-x="378" 
d="M22 0q-15 0 -10 12l263 635q3 8 13 8h69q14 0 9 -12l-263 -635q-3 -8 -12 -8h-69z" />
    <glyph glyph-name="zero" unicode="0" horiz-adv-x="584" 
d="M292 -12q-108 0 -168 60.5t-60 169.5v219q0 109 60 169.5t168 60.5t168 -60.5t60 -169.5v-219q0 -109 -60 -169.5t-168 -60.5zM292 72q63 0 98 37t35 103v231q0 67 -35 103.5t-98 36.5t-98 -36.5t-35 -103.5v-231q0 -66 35 -103t98 -37z" />
    <glyph glyph-name="one" unicode="1" horiz-adv-x="462" 
d="M49 0q-10 0 -10 11v63q0 11 10 11h155v464l-148 -46q-11 -3 -11 7v66q0 8 7 10l212 71q4 1 7.5 1.5t7.5 0.5h10q10 0 10 -10v-564h138q10 0 10 -11v-63q0 -11 -10 -11h-388z" />
    <glyph glyph-name="two" unicode="2" horiz-adv-x="543" 
d="M77 0q-11 0 -11 11v72q0 47 17.5 84.5t46.5 66.5t63.5 53.5t69 46.5t63.5 44t46.5 47.5t17.5 57.5v20q0 40 -29 60.5t-86 20.5q-56 0 -83 -24.5t-27 -69.5q0 -10 -10 -10h-73q-10 0 -10 10q-1 58 23 97.5t71.5 59.5t117.5 20q101 0 151 -42.5t50 -124.5
q0 -52 -17.5 -89.5t-45.5 -65.5t-62.5 -50.5t-68 -43t-62 -43.5t-45.5 -52.5t-17 -70.5h304q11 0 11 -11v-63q0 -11 -11 -11h-394z" />
    <glyph glyph-name="three" unicode="3" horiz-adv-x="552" 
d="M265 -12q-69 0 -116 22t-69.5 62.5t-21.5 92.5q0 11 10 11h72q11 0 11 -11q0 -46 28.5 -70t85.5 -24q64 0 99 27t35 76v24q0 97 -130 97h-85q-10 0 -10 10v60q0 11 10 11h84q57 0 86.5 25.5t29.5 74.5v25q0 42 -29.5 62.5t-87.5 20.5q-59 0 -87 -22t-28 -71
q0 -11 -11 -11h-72q-10 0 -10 11q0 87 53.5 131.5t161.5 44.5q105 0 155 -41t50 -127q0 -63 -26.5 -102.5t-70.5 -53.5v-2q57 -19 84.5 -58.5t27.5 -101.5q0 -94 -58.5 -143.5t-170.5 -49.5z" />
    <glyph glyph-name="four" unicode="4" horiz-adv-x="551" 
d="M360 0q-10 0 -10 11v115h-330q-10 0 -10 10v9q0 10 3 15l265 487q5 8 13 8h76q14 0 8 -12l-236 -432h212l3 214q0 10 10 10h68q11 0 11 -10v-214h73q11 0 11 -11v-64q0 -10 -11 -10h-73v-115q0 -11 -11 -11h-72z" />
    <glyph glyph-name="five" unicode="5" horiz-adv-x="528" 
d="M247 -12q-65 0 -110 20.5t-67.5 60t-21.5 96.5q0 10 10 10h71q11 0 11 -10q0 -46 28.5 -70t85.5 -24q69 0 99.5 28.5t30.5 88.5v29q0 41 -13.5 68t-43 40t-75.5 13q-33 0 -78.5 -9.5t-87.5 -27.5q-9 -4 -14.5 0t-4.5 12l31 331q1 11 10 11h322q11 0 11 -11v-63
q0 -11 -11 -11h-250l-12 -167q32 8 59.5 11t51.5 3q94 0 147.5 -52.5t53.5 -157.5q0 -108 -59.5 -163.5t-173.5 -55.5z" />
    <glyph glyph-name="six" unicode="6" horiz-adv-x="573" 
d="M292 -12q-109 0 -168.5 55.5t-59.5 163.5v243q0 103 61 160t173 57q62 0 106.5 -16.5t69.5 -48t25 -76.5q0 -11 -11 -11h-71q-11 0 -11 11q0 27 -28.5 43t-77.5 16q-70 0 -105 -32t-35 -99v-248q0 -63 34.5 -99.5t96.5 -36.5q63 0 97.5 36.5t34.5 100.5v26q0 52 -27 78
t-80 26q-42 0 -86.5 -18t-84.5 -51v77q45 36 94.5 54.5t102.5 18.5q88 0 132 -48.5t44 -144.5q0 -113 -58.5 -175t-167.5 -62z" />
    <glyph glyph-name="seven" unicode="7" horiz-adv-x="535" 
d="M149 0q-6 0 -8 4t0 9l254 557h-249v-78q0 -11 -10 -11h-73q-11 0 -11 11v152q0 11 11 11h448q11 0 11 -11v-5q0 -7 -3 -15l-278 -615q-4 -9 -14 -9h-78z" />
    <glyph glyph-name="eight" unicode="8" horiz-adv-x="580" 
d="M290 -12q-114 0 -176 46.5t-62 141.5q0 65 30.5 109.5t83.5 63.5q-43 20 -64 54t-21 93q0 80 54 125.5t155 45.5q102 0 155.5 -45.5t53.5 -125.5q0 -59 -21 -93t-64 -54q53 -19 83.5 -63.5t30.5 -109.5q0 -95 -62 -141.5t-176 -46.5zM290 68q71 0 107 27.5t36 78.5v17
q0 58 -38 89.5t-105 31.5t-104.5 -31.5t-37.5 -89.5v-17q0 -51 35.5 -78.5t106.5 -27.5zM290 384q56 0 85.5 26t29.5 71v15q0 42 -29.5 67t-85.5 25q-55 0 -85 -25t-30 -67v-15q0 -45 30 -71t85 -26z" />
    <glyph glyph-name="nine" unicode="9" horiz-adv-x="585" 
d="M285 -12q-99 0 -153.5 41.5t-54.5 120.5q0 10 10 10h72q11 0 11 -10q0 -29 29.5 -54.5t86.5 -25.5q71 0 105 34.5t34 103.5v241q0 64 -36 100t-101 36q-63 0 -95.5 -35t-32.5 -99v-36q0 -47 30 -74t83 -27q42 0 84 17.5t83 53.5v-77q-46 -39 -90 -56.5t-96 -17.5
q-93 0 -141.5 52t-48.5 151q0 113 58 171.5t168 58.5t170 -59t60 -167v-227q0 -111 -59 -168.5t-176 -57.5z" />
    <glyph glyph-name="colon" unicode=":" horiz-adv-x="240" 
d="M120 348q-32 0 -46.5 16.5t-14.5 43.5v12q0 27 14.5 43.5t46.5 16.5q33 0 47.5 -16.5t14.5 -43.5v-12q0 -27 -14.5 -43.5t-47.5 -16.5zM120 -12q-32 0 -46.5 16.5t-14.5 43.5v12q0 27 14.5 43.5t46.5 16.5q33 0 47.5 -16.5t14.5 -43.5v-12q0 -27 -14.5 -43.5t-47.5 -16.5
z" />
    <glyph glyph-name="semicolon" unicode=";" horiz-adv-x="246" 
d="M25 -131q-5 0 -8.5 4t-2.5 9l50 224q2 9 10 9h86q5 0 8.5 -4.5t1.5 -9.5l-75 -225q-3 -7 -10 -7h-60zM125 348q-32 0 -46.5 16.5t-14.5 43.5v12q0 27 14.5 43.5t46.5 16.5q33 0 47.5 -16.5t14.5 -43.5v-12q0 -27 -14.5 -43.5t-47.5 -16.5z" />
    <glyph glyph-name="less" unicode="&#x3c;" horiz-adv-x="600" 
d="M498 99l-400 155q-9 3 -9 12v62q0 8 9 12l400 154q13 6 13 -8v-70q0 -9 -9 -12l-317 -107l317 -108q9 -3 9 -12v-70q0 -13 -13 -8z" />
    <glyph glyph-name="equal" unicode="=" horiz-adv-x="600" 
d="M102 348q-11 0 -11 11v56q0 11 11 11h396q11 0 11 -11v-56q0 -11 -11 -11h-396zM102 176q-11 0 -11 10v57q0 10 11 10h396q11 0 11 -10v-57q0 -10 -11 -10h-396z" />
    <glyph glyph-name="greater" unicode="&#x3e;" horiz-adv-x="600" 
d="M102 99q-13 -5 -13 8v70q0 9 9 12l317 108l-317 107q-9 3 -9 12v70q0 14 13 8l400 -154q9 -4 9 -12v-62q0 -9 -9 -12z" />
    <glyph glyph-name="question" unicode="?" horiz-adv-x="475" 
d="M178 204q-11 0 -11 11v39q0 32 17.5 58t43.5 48.5t51.5 46t43 50.5t17.5 61q0 35 -24.5 52t-72.5 17q-59 0 -82 -27t-22 -77q0 -12 -10 -12h-73q-7 0 -9 4t-2 9q-1 93 49.5 138t151.5 45q96 0 143 -36.5t47 -104.5q0 -44 -18 -79t-43.5 -62t-52 -50t-44 -43t-18.5 -40
l-1 -37q0 -11 -10 -11h-71zM217 -12q-32 0 -46.5 16t-14.5 43v12q0 28 14.5 44t46.5 16t46.5 -16t14.5 -44v-12q0 -27 -14.5 -43t-46.5 -16z" />
    <glyph glyph-name="at" unicode="@" horiz-adv-x="998" 
d="M489 -185q-146 0 -240.5 42.5t-141 126t-46.5 206.5v96q0 122 46 214t141.5 143.5t241.5 51.5q228 0 337.5 -95.5t109.5 -280.5v-47q0 -76 -26.5 -133.5t-78 -89.5t-124.5 -32q-54 0 -87.5 21.5t-47 58.5t-7.5 82l30 217q-22 4 -47 7t-51 3q-41 0 -70.5 -24.5
t-38.5 -88.5l-14 -99q-7 -50 7 -73.5t54 -23.5q36 0 70 22t72 53l12 -73q-37 -31 -85 -57t-99 -26q-75 0 -103.5 44t-17.5 128l15 112q11 86 60 136t137 50q38 0 67.5 -4.5t57 -9.5t60.5 -8q10 -1 9 -12l-35 -258q-6 -48 5 -72t50 -24q59 0 96 45t37 129v47q0 145 -86 219.5
t-268 74.5q-109 0 -184 -38t-113.5 -111t-38.5 -179v-94q0 -97 36.5 -162t110.5 -98t190 -33h136q11 0 11 -11v-61q0 -11 -11 -11h-138z" />
    <glyph glyph-name="A" unicode="A" horiz-adv-x="568" 
d="M9 0q-12 0 -9 12l220 635q3 8 12 8h101q10 0 13 -8l222 -635q3 -12 -9 -12h-81q-10 0 -13 8l-143 439q-10 30 -20 61t-21 62h-1q-9 -30 -19 -60.5t-20 -60.5l-142 -440q-3 -9 -12 -9h-78zM128 148l21 82h264l22 -82h-307z" />
    <glyph glyph-name="B" unicode="B" horiz-adv-x="578" 
d="M92 0q-10 0 -10 11v633q0 11 10 11h184q116 0 173 -40.5t57 -122.5q0 -55 -25.5 -89t-84.5 -55v-2q69 -13 103.5 -54t34.5 -110q0 -94 -62 -138t-195 -44h-185zM177 82h100q87 0 124.5 24.5t37.5 81.5q0 59 -38 86t-121 27h-103v-219zM177 376h96q72 0 105 24.5t33 76.5
q0 53 -34 75t-113 22h-87v-198z" />
    <glyph glyph-name="C" unicode="C" horiz-adv-x="636" 
d="M321 -12q-123 0 -187 61.5t-64 177.5v201q0 116 64.5 177.5t187.5 61.5q80 0 139.5 -27t89 -77t19.5 -120q-1 -5 -3 -9.5t-8 -4.5h-75q-11 0 -10 11q3 68 -35.5 105.5t-115.5 37.5q-76 0 -117 -39.5t-41 -115.5v-201q0 -76 41 -115.5t117 -39.5q77 0 118 38t33 105
q-1 11 10 11h74q10 0 12 -14q6 -68 -23.5 -118t-87.5 -78t-138 -28z" />
    <glyph glyph-name="D" unicode="D" horiz-adv-x="643" 
d="M92 0q-10 0 -10 11v633q0 11 10 11h183q155 0 231 -71.5t76 -216.5v-53q0 -158 -76 -236t-231 -78h-183zM177 81h91q113 0 165.5 56t52.5 173v62q0 103 -52.5 152.5t-165.5 49.5h-91v-493z" />
    <glyph glyph-name="E" unicode="E" horiz-adv-x="535" 
d="M92 0q-10 0 -10 11v633q0 11 10 11h364q10 0 10 -11v-64q0 -11 -10 -11h-279v-195h255q10 0 10 -11v-61q0 -11 -10 -11h-255v-205h279q10 0 10 -11v-64q0 -11 -10 -11h-364z" />
    <glyph glyph-name="F" unicode="F" horiz-adv-x="508" 
d="M92 0q-10 0 -10 11v633q0 11 10 11h364q10 0 10 -11v-64q0 -11 -10 -11h-279v-205h241q10 0 10 -11v-62q0 -10 -10 -10h-241v-270q0 -11 -10 -11h-75z" />
    <glyph glyph-name="G" unicode="G" horiz-adv-x="655" 
d="M306 -12q-73 0 -126 28t-81.5 81.5t-28.5 129.5v201q0 113 68 176t187 63q81 0 139.5 -27t87 -75.5t18.5 -113.5q-1 -11 -11 -11h-75q-11 0 -9 11q3 43 -13.5 72.5t-50 44.5t-84.5 15q-80 0 -121 -38.5t-41 -116.5v-201q0 -79 39 -117t117 -38q80 0 121.5 38.5
t41.5 110.5v37h-150q-11 0 -11 10v58q0 11 11 11h229q10 0 10 -11v-193q0 -32 1.5 -62.5t6.5 -58.5q1 -6 -2 -9t-8 -3h-61q-4 0 -7 2t-4 7q-2 12 -4 28.5t-3 33.5h-1q-18 -27 -46 -45.5t-63 -28t-76 -9.5z" />
    <glyph glyph-name="H" unicode="H" horiz-adv-x="663" 
d="M92 0q-10 0 -10 11v633q0 11 10 11h75q10 0 10 -11v-266h309v266q0 11 10 11h75q11 0 11 -11v-633q0 -11 -11 -11h-75q-10 0 -10 11v284h-309v-284q0 -11 -10 -11h-75z" />
    <glyph glyph-name="I" unicode="I" horiz-adv-x="259" 
d="M92 0q-10 0 -10 11v633q0 11 10 11h75q10 0 10 -11v-633q0 -11 -10 -11h-75z" />
    <glyph glyph-name="J" unicode="J" horiz-adv-x="269" 
d="M37 -143q-21 -4 -24 5l-20 66q-3 11 18 16q40 10 60.5 45.5t20.5 95.5v559q0 11 10 11h75q10 0 10 -11v-554q0 -101 -38 -158.5t-112 -74.5z" />
    <glyph glyph-name="K" unicode="K" horiz-adv-x="601" 
d="M92 0q-10 0 -10 11v633q0 11 10 11h75q10 0 10 -11v-186v-60.5t-1 -60.5h1q22 27 44.5 52.5t45.5 51.5l185 209q4 5 12 5h96q6 0 8.5 -3.5t-2.5 -9.5l-230 -253l249 -376q3 -6 1.5 -9.5t-7.5 -3.5h-95q-7 0 -12 7l-202 308l-93 -101v-203q0 -11 -10 -11h-75z" />
    <glyph glyph-name="L" unicode="L" horiz-adv-x="479" 
d="M92 0q-10 0 -10 11v633q0 11 10 11h75q10 0 10 -11v-558h272q11 0 11 -11v-64q0 -11 -11 -11h-357z" />
    <glyph glyph-name="M" unicode="M" horiz-adv-x="774" 
d="M77 0q-10 0 -10 11l14 633q0 11 10 11h113q8 0 12 -8l172 -385l170 385q4 8 12 8h113q10 0 10 -11l14 -633q0 -11 -10 -11h-73q-10 0 -10 11l-10 378q-1 37 0.5 74.5t3.5 75.5h-3q-15 -38 -31 -75t-34 -74l-140 -302q-4 -8 -12 -8h-3q-8 0 -11 8l-143 306
q-16 36 -31.5 72.5t-29.5 72.5h-3q2 -36 3 -73.5t0 -73.5l-10 -381q0 -11 -10 -11h-73z" />
    <glyph glyph-name="N" unicode="N" horiz-adv-x="664" 
d="M92 0q-10 0 -10 11v633q0 11 10 11h124q9 0 12 -7l180 -365q19 -36 33.5 -66t26 -57t21.5 -51h2q-1 27 -1 58t-0.5 62.5t-0.5 57.5v357q0 11 10 11h73q11 0 11 -11v-633q0 -11 -11 -11h-121q-9 0 -13 7l-176 355q-16 32 -30.5 63t-28.5 61t-27 60h-2q0 -34 1 -65t1 -62
v-65v-343q0 -11 -11 -11h-73z" />
    <glyph glyph-name="O" unicode="O" horiz-adv-x="645" 
d="M322 -12q-127 0 -189.5 62t-62.5 176v203q0 115 62.5 176.5t189.5 61.5t190 -61.5t63 -176.5v-203q0 -114 -63 -176t-190 -62zM322 72q78 0 118 40t40 117v197q0 78 -40 117.5t-118 39.5q-76 0 -116.5 -39.5t-40.5 -117.5v-197q0 -77 40.5 -117t116.5 -40z" />
    <glyph glyph-name="P" unicode="P" horiz-adv-x="549" 
d="M92 0q-10 0 -10 11v633q0 11 10 11h173q123 0 184.5 -52.5t61.5 -154.5q0 -101 -62 -153.5t-184 -52.5h-88v-231q0 -11 -10 -11h-75zM177 323h86q79 0 115.5 29.5t36.5 92.5q0 68 -37.5 98.5t-116.5 30.5h-84v-251z" />
    <glyph glyph-name="Q" unicode="Q" horiz-adv-x="645" 
d="M445 -182q-44 0 -74.5 23t-45 71.5t-11.5 122.5q0 11 10 11l68 -4q10 0 10 -11q-2 -71 12.5 -100.5t48.5 -29.5q8 0 16 2l16 4q5 1 8 -2t3 -8v-58q0 -10 -11 -14q-9 -2 -23 -4.5t-27 -2.5zM322 -12q-127 0 -189.5 62t-62.5 176v203q0 115 62.5 176.5t189.5 61.5
t190 -61.5t63 -176.5v-203q0 -114 -63 -176t-190 -62zM322 72q78 0 118 40t40 117v197q0 78 -40 117.5t-118 39.5q-76 0 -116.5 -39.5t-40.5 -117.5v-197q0 -77 40.5 -117t116.5 -40z" />
    <glyph glyph-name="R" unicode="R" horiz-adv-x="607" 
d="M92 0q-10 0 -10 11v633q0 11 10 11h198q122 0 180 -46.5t58 -137.5q0 -71 -33.5 -118.5t-96.5 -65.5v-2l165 -272q4 -6 1.5 -9.5t-8.5 -3.5h-87q-9 0 -13 7l-159 267h-120v-263q0 -11 -10 -11h-75zM177 350h105q80 0 115.5 27.5t35.5 87.5q0 59 -33 84t-112 25h-111v-224
z" />
    <glyph glyph-name="S" unicode="S" horiz-adv-x="569" 
d="M278 -12q-122 0 -178.5 51.5t-50.5 137.5q1 17 13 17h72q12 0 12 -15q0 -58 34.5 -83t104.5 -25q68 0 102.5 23.5t34.5 72.5q0 24 -8 41t-27 30.5t-52 26.5l-146 61q-47 20 -75.5 44t-41 55t-12.5 70q1 84 56 127.5t161 43.5q73 0 126 -21t80 -61.5t21 -100.5
q-2 -18 -11 -18h-73q-6 0 -8.5 4t-1.5 14q4 48 -32.5 74.5t-102.5 26.5q-59 0 -89 -21t-31 -64q0 -22 8.5 -39t28 -31t53.5 -29l145 -61q46 -19 74.5 -42.5t41 -54.5t11.5 -74q0 -85 -57.5 -132.5t-181.5 -47.5z" />
    <glyph glyph-name="T" unicode="T" horiz-adv-x="538" 
d="M232 0q-11 0 -11 11v558h-178q-10 0 -10 11v64q0 11 10 11h452q10 0 10 -11v-64q0 -11 -10 -11h-178v-558q0 -11 -11 -11h-74z" />
    <glyph glyph-name="U" unicode="U" horiz-adv-x="646" 
d="M323 -12q-118 0 -182 61.5t-64 178.5v416q0 11 10 11h75q10 0 10 -11v-418q0 -73 38.5 -113.5t112.5 -40.5t112.5 40.5t38.5 113.5v418q0 11 11 11h74q11 0 11 -11v-418q0 -112 -65.5 -175t-181.5 -63z" />
    <glyph glyph-name="V" unicode="V" horiz-adv-x="591" 
d="M240 0q-9 0 -12 8l-213 635q-3 12 8 12h81q10 0 13 -8l132 -417q11 -34 22 -69.5t21 -70.5h2q10 34 21.5 68.5t22.5 69.5l137 418q3 9 13 9h79q12 0 9 -12l-217 -635q-3 -8 -13 -8h-106z" />
    <glyph glyph-name="W" unicode="W" horiz-adv-x="855" 
d="M213 0q-10 0 -12 9l-181 634q-3 12 9 12h76q9 0 11 -9l110 -396q8 -24 13.5 -49t12 -50t11.5 -49h2q10 35 20.5 69.5t20.5 68.5l82 268l-36 125q-2 5 1 8t8 3h77q9 0 11 -9l110 -402q9 -33 17.5 -65.5t16.5 -65.5h1q6 24 11.5 48.5t11.5 49.5t13 49l106 397q2 9 11 9h78
q13 0 10 -12l-175 -634q-2 -9 -12 -9h-102q-10 0 -12 9l-65 226q-10 34 -19 67.5t-18 66.5h-1q-10 -33 -19.5 -65.5t-20.5 -66.5l-68 -229q-3 -8 -12 -8h-98z" />
    <glyph glyph-name="X" unicode="X" horiz-adv-x="559" 
d="M13 0q-6 0 -8 3.5t2 9.5l213 325l-200 304q-3 6 -1.5 9.5t8.5 3.5h91q7 0 11 -6l107 -165q11 -18 23 -38t23 -38h1q12 20 24 40.5t25 39.5l103 161q5 6 12 6h87q6 0 8 -3.5t-2 -9.5l-198 -306l210 -323q4 -6 2 -9.5t-8 -3.5h-91q-8 0 -13 6l-112 175q-13 19 -26 41
t-25 42h-1q-12 -19 -25 -40.5t-25 -40.5l-113 -176q-5 -7 -12 -7h-90z" />
    <glyph glyph-name="Y" unicode="Y" horiz-adv-x="544" 
d="M234 0q-10 0 -10 11v214l-214 417q-2 6 0 9.5t7 3.5h87q9 0 12 -7l104 -215q13 -27 26 -55.5t26 -55.5h1q14 29 27 56.5t26 56.5l103 213q3 7 13 7h84q5 0 7.5 -3.5t-0.5 -9.5l-213 -417v-214q0 -11 -11 -11h-75z" />
    <glyph glyph-name="Z" unicode="Z" horiz-adv-x="548" 
d="M29 0q-10 0 -10 10v2q0 6 4 14l289 445q16 25 31.5 49t32.5 49v1q-28 -1 -56.5 -1h-57.5h-200q-11 0 -11 11v64q0 11 11 11h454q11 0 11 -10v-2q0 -6 -5 -14l-285 -435q-18 -28 -35 -54.5t-36 -53.5v-1q32 1 64.5 1h64.5h198q10 0 10 -11v-64q0 -11 -10 -11h-464z" />
    <glyph glyph-name="bracketleft" unicode="[" horiz-adv-x="273" 
d="M82 -149q-10 0 -10 11v831q0 10 10 10h190q10 0 10 -10v-55q0 -11 -10 -11h-107v-699h107q10 0 10 -11v-55q0 -11 -10 -11h-190z" />
    <glyph glyph-name="backslash" unicode="\" horiz-adv-x="378" 
d="M288 0q-10 0 -13 8l-263 635q-5 12 10 12h69q9 0 12 -8l263 -635q5 -12 -9 -12h-69z" />
    <glyph glyph-name="bracketright" unicode="]" horiz-adv-x="273" 
d="M1 -149q-10 0 -10 11v55q0 11 10 11h108v699h-108q-10 0 -10 11v55q0 10 10 10h190q10 0 10 -10v-831q0 -11 -10 -11h-190z" />
    <glyph glyph-name="asciicircum" unicode="^" horiz-adv-x="511" 
d="M53 350q-5 0 -7.5 3.5t0.5 9.5l165 313q4 7 13 7h64q9 0 13 -7l165 -313q3 -6 0.5 -9.5t-7.5 -3.5h-70q-9 0 -12 7l-121 241l-120 -241q-5 -7 -13 -7h-70z" />
    <glyph glyph-name="underscore" unicode="_" horiz-adv-x="541" 
d="M12 -134q-10 0 -10 10v52q0 11 10 11h517q10 0 10 -11v-52q0 -10 -10 -10h-517z" />
    <glyph glyph-name="grave" unicode="`" horiz-adv-x="224" 
d="M129 556q-8 0 -12 7l-85 123q-3 4 -1.5 7.5t6.5 3.5h76q10 0 13 -7l67 -123q5 -11 -6 -11h-58z" />
    <glyph glyph-name="a" unicode="a" horiz-adv-x="497" 
d="M357 0q-6 0 -8.5 4t-4.5 10q-1 8 -4.5 34t-4.5 47l-4 39v199q0 48 -19 68t-67 20q-86 0 -85 -60q0 -11 -10 -11h-73q-11 0 -12 19q-5 60 45 96t138 36q91 0 134.5 -41t43.5 -126v-212q0 -34 1.5 -61.5t4.5 -48.5q2 -12 -10 -12h-65zM165 -12q-58 0 -89 35.5t-31 102.5
q0 52 20.5 84.5t66 51t121.5 24.5l93 8v-67l-92 -8q-65 -6 -90 -24.5t-25 -61.5q0 -32 13.5 -48.5t40.5 -16.5q32 0 66.5 22t89.5 79l2 -76q-34 -37 -64 -60t-59.5 -34t-62.5 -11z" />
    <glyph glyph-name="b" unicode="b" horiz-adv-x="537" 
d="M270 -12q-34 0 -63.5 4t-61.5 9t-73 8v663q0 11 10 11h74q11 0 11 -11v-592q21 -4 46.5 -7t44.5 -3q64 0 93.5 32.5t29.5 97.5v108q0 57 -19 83.5t-59 26.5q-33 0 -67.5 -19.5t-87.5 -66.5l4 87q46 43 88 62.5t88 19.5q73 0 110.5 -45t37.5 -138v-127q0 -101 -50.5 -152
t-155.5 -51z" />
    <glyph glyph-name="c" unicode="c" horiz-adv-x="520" 
d="M267 -12q-102 0 -155 50.5t-53 145.5v121q0 95 54 145.5t156 50.5q61 0 104.5 -19t66.5 -52t23 -77q0 -22 -11 -22h-73q-10 0 -10 15q0 35 -27 53.5t-73 18.5q-58 0 -86.5 -29.5t-28.5 -92.5v-103q0 -62 28.5 -92t85.5 -30q47 0 73.5 20.5t26.5 50.5q0 16 10 16h73
q11 0 11 -10q0 -73 -50 -116.5t-145 -43.5z" />
    <glyph glyph-name="d" unicode="d" horiz-adv-x="544" 
d="M205 -12q-70 0 -107 46t-37 137v129q0 97 47.5 149t132.5 52q38 0 80.5 -10t65.5 -26l5 -80q-31 17 -67 25.5t-64 8.5q-53 0 -79 -32.5t-26 -96.5v-118q0 -50 19.5 -75.5t58.5 -25.5q24 0 47.5 9.5t51 31t63.5 57.5v-81q-33 -33 -63 -55.5t-61 -33.5t-67 -11zM402 0
q-11 0 -12 11q-2 15 -5 38t-2 38l-6 47v538q0 11 10 11h74q11 0 11 -11v-557q0 -15 0.5 -34.5t2 -37.5t3.5 -29q3 -14 -10 -14h-66z" />
    <glyph glyph-name="e" unicode="e" horiz-adv-x="522" 
d="M263 -12q-100 0 -152 46t-52 135v136q0 96 51.5 146t151.5 50t151.5 -49t51.5 -142v-78q0 -10 -10 -10h-302v-32q0 -63 27 -92t87 -29q45 0 69.5 14.5t24.5 43.5q0 11 11 11h74q8 0 10 -9q4 -67 -47.5 -104t-145.5 -37zM153 297h218v5q0 61 -27 89.5t-80 28.5
q-56 0 -83.5 -29.5t-27.5 -89.5v-4z" />
    <glyph glyph-name="f" unicode="f" horiz-adv-x="371" 
d="M116 0q-4 0 -7 3t-3 8v397h-77q-4 0 -7 3.5t-3 7.5v60q0 5 3 7.5t7 2.5h77v49q0 76 43.5 116.5t121.5 40.5q25 0 50.5 -4.5t42.5 -11.5q18 -6 18 -16v-59q0 -7 -4.5 -9t-18.5 4q-16 7 -37.5 11t-39.5 4q-40 0 -60.5 -20t-20.5 -59v-46h140q10 0 10 -10v-60
q0 -4 -2.5 -7.5t-7.5 -3.5h-140v-397q0 -5 -3 -8t-8 -3h-74z" />
    <glyph glyph-name="g" unicode="g" horiz-adv-x="518" 
d="M255 -197q-119 0 -171 31.5t-52 94.5q0 40 19 70.5t60 49.5l74 -27q-29 -9 -42 -28.5t-13 -45.5q0 -38 28.5 -52.5t100.5 -14.5q77 0 105.5 15t28.5 55q0 27 -13 40t-43 14l-184 11q-33 2 -58.5 24t-25.5 68q0 32 15 54t51 49l59 -33q-21 -8 -30.5 -20.5t-9.5 -28.5
q0 -17 11 -24t35 -9l165 -10q62 -4 92 -38t30 -100q0 -77 -55.5 -111t-176.5 -34zM263 158q-95 0 -141 42.5t-46 129.5t46.5 129t143.5 42q94 0 139 -42.5t45 -129.5t-45 -129t-142 -42zM263 238q53 0 73.5 20.5t20.5 70.5q0 51 -21 72t-73 21t-72.5 -21t-20.5 -72
q0 -50 20.5 -70.5t72.5 -20.5zM388 445l-74 31q4 46 9 77.5t10 53.5q3 12 12 12h68q12 0 9 -11q-10 -32 -17.5 -67.5t-16.5 -95.5z" />
    <glyph glyph-name="h" unicode="h" horiz-adv-x="557" 
d="M401 0q-11 0 -11 11v315q0 47 -19 69.5t-58 22.5t-78 -23.5t-84 -72.5l-1 81q32 34 62 55.5t61 32t66 10.5q72 0 109 -41.5t37 -124.5v-324q0 -11 -10 -11h-74zM82 0q-10 0 -10 11v661q0 11 10 11h74q11 0 11 -11v-661q0 -11 -11 -11h-74z" />
    <glyph glyph-name="i" unicode="i" horiz-adv-x="238" 
d="M82 0q-10 0 -10 11v468q0 10 10 10h74q11 0 11 -10v-468q0 -11 -11 -11h-74zM119 568q-30 0 -44.5 16t-14.5 42v11q0 26 14.5 42t44.5 16q31 0 45 -16t14 -42v-11q0 -26 -14 -42t-45 -16z" />
    <glyph glyph-name="j" unicode="j" horiz-adv-x="239" 
d="M46 -190q-8 -5 -14 3l-44 54q-3 5 -2.5 8.5t5.5 6.5q25 18 43 44t28 61t10 81v411q0 5 3 7.5t7 2.5h74q5 0 8 -2.5t3 -7.5v-416q0 -61 -13 -108.5t-39.5 -83t-68.5 -61.5zM120 568q-30 0 -44.5 16t-14.5 42v11q0 26 14.5 42t44.5 16q31 0 45 -16t14 -42v-11
q0 -26 -14 -42t-45 -16z" />
    <glyph glyph-name="k" unicode="k" horiz-adv-x="499" 
d="M82 0q-10 0 -10 11v661q0 11 10 11h74q11 0 11 -11v-254q0 -34 -0.5 -68.5t-1.5 -69.5h1q18 20 36.5 41t36.5 41l111 122q5 5 13 5h98q7 0 8.5 -3.5t-3.5 -8.5l-166 -174l181 -290q3 -6 1 -9.5t-8 -3.5h-88q-7 0 -13 7l-140 227l-66 -68v-155q0 -11 -11 -11h-74z" />
    <glyph glyph-name="l" unicode="l" horiz-adv-x="238" 
d="M82 0q-10 0 -10 11v661q0 11 10 11h74q11 0 11 -11v-661q0 -11 -11 -11h-74z" />
    <glyph glyph-name="m" unicode="m" horiz-adv-x="843" 
d="M82 0q-10 0 -10 11v355q0 28 -1.5 57.5t-5.5 53.5q-2 12 11 12h67q10 0 11 -7q2 -15 5 -32t4 -34q43 43 83 64t87 21q51 0 82 -23t44 -68q46 47 87 69t89 22q68 0 102.5 -41.5t34.5 -123.5v-325q0 -11 -11 -11h-74q-10 0 -10 11v315q0 46 -16.5 69t-52.5 23
q-32 0 -64 -19.5t-75 -59.5v-328q0 -11 -10 -11h-74q-11 0 -11 11v315q0 46 -16.5 69t-52.5 23q-31 0 -63.5 -19.5t-74.5 -59.5v-328q0 -11 -11 -11h-74z" />
    <glyph glyph-name="n" unicode="n" horiz-adv-x="557" 
d="M401 0q-11 0 -11 11v315q0 48 -19.5 70t-58.5 22q-38 0 -74.5 -22.5t-89.5 -74.5v80q32 35 62.5 57t61.5 32.5t66 10.5q72 0 109.5 -41.5t37.5 -124.5v-324q0 -11 -10 -11h-74zM82 0q-10 0 -10 11v355q0 27 -2.5 59t-4.5 51q-2 13 10 13h68q10 0 12 -10q2 -8 4 -24.5
t4 -34.5t2 -31l2 -31v-347q0 -11 -11 -11h-74z" />
    <glyph glyph-name="o" unicode="o" horiz-adv-x="538" 
d="M269 -12q-102 0 -156 49.5t-54 150.5v113q0 101 53.5 150.5t156.5 49.5t157 -49.5t54 -150.5v-113q0 -101 -53.5 -150.5t-157.5 -49.5zM269 71q61 0 88.5 31t27.5 95v96q0 63 -27.5 94t-88.5 31t-88 -31t-27 -94v-96q0 -64 27 -95t88 -31z" />
    <glyph glyph-name="p" unicode="p" horiz-adv-x="538" 
d="M299 -12q-37 0 -78 10t-66 26l-3 79q28 -16 61.5 -24.5t62.5 -8.5q55 0 80.5 32.5t25.5 97.5v108q0 57 -19.5 83.5t-59.5 26.5q-34 0 -68.5 -20t-87.5 -69l-2 83q33 30 62 50t58.5 29.5t62.5 9.5q74 0 111.5 -45t37.5 -138v-129q0 -98 -45.5 -149.5t-132.5 -51.5z
M82 -185q-10 0 -10 11v548q0 24 -2 52t-5 51q-1 12 10 12h68q11 0 12 -10q2 -7 4 -20t3 -25.5t0 -18.5l5 -52v-537q0 -11 -11 -11h-74z" />
    <glyph glyph-name="q" unicode="q" horiz-adv-x="542" 
d="M386 -185q-10 0 -10 11v583q-24 4 -51.5 7t-49.5 3q-63 0 -91 -31t-28 -98v-109q0 -58 18.5 -84t59.5 -26q34 0 68.5 18.5t87.5 63.5l-3 -85q-45 -42 -88 -61t-91 -19q-75 0 -111 45.5t-36 137.5v127q0 102 51 152.5t155 50.5q38 0 69.5 -5t63 -10.5t71.5 -8.5v-651
q0 -11 -11 -11h-74z" />
    <glyph glyph-name="r" unicode="r" horiz-adv-x="359" 
d="M82 0q-10 0 -10 11v358q0 29 -1.5 55.5t-5.5 53.5q-2 11 10 11h68q11 0 12 -9q4 -19 6 -43t2 -41l4 -55v-330q0 -11 -11 -11h-74zM156 307l-4 88q21 31 48.5 54.5t55.5 37.5t52 14q18 0 27 -3q8 -2 9 -11q2 -22 1.5 -45.5t-3.5 -44.5q-2 -12 -14 -9q-7 2 -16 3t-19 1
q-24 0 -48.5 -10.5t-47 -29.5t-41.5 -45z" />
    <glyph glyph-name="s" unicode="s" horiz-adv-x="466" 
d="M234 -12q-93 0 -138.5 39.5t-44.5 119.5q0 9 10 9h74q9 0 9 -9q0 -42 21.5 -61t68.5 -19t70.5 15.5t23.5 44.5q0 22 -13.5 37t-43.5 28l-114 47q-54 23 -77 52t-23 76q0 67 43 100.5t128 33.5q88 0 135.5 -35.5t47.5 -101.5q0 -10 -11 -10h-73q-10 0 -10 16
q0 25 -22.5 39t-62.5 14t-60 -14t-20 -42q0 -21 11 -31.5t45 -25.5l114 -48q53 -21 77 -51.5t24 -78.5q0 -70 -49 -107t-140 -37z" />
    <glyph glyph-name="t" unicode="t" horiz-adv-x="388" 
d="M250 -12q-53 0 -85 17.5t-46 53.5t-14 90v259h-76q-11 0 -11 11v60q0 10 11 10h78l12 120q1 11 12 11h58q10 0 10 -11l1 -120h145q11 0 11 -10v-60q0 -11 -11 -11h-145v-255q0 -45 16 -64t54 -19q20 0 39.5 4.5t34.5 11.5q13 5 13 -8v-61q0 -9 -9 -12q-18 -7 -42.5 -12
t-55.5 -5z" />
    <glyph glyph-name="u" unicode="u" horiz-adv-x="543" 
d="M204 -12q-64 0 -98 42.5t-34 123.5v325q0 10 10 10h74q11 0 11 -10v-316q0 -47 16.5 -69.5t51.5 -22.5q36 0 72 22.5t88 75.5v-82q-31 -31 -62.5 -53.5t-63 -34t-65.5 -11.5zM404 0q-12 0 -13 10q-3 19 -5 39t-3 41l-6 44v345q0 10 10 10h74q11 0 11 -10v-356
q0 -28 1.5 -56.5t4.5 -55.5q2 -11 -11 -11h-63z" />
    <glyph glyph-name="v" unicode="v" horiz-adv-x="501" 
d="M199 0q-9 0 -13 8l-162 470q-3 11 9 11h79q9 0 12 -8l84 -271q11 -33 21.5 -67.5t19.5 -69.5h3q9 35 19.5 69t21.5 68l84 271q3 8 13 8h78q12 0 9 -11l-163 -470q-3 -8 -13 -8h-102z" />
    <glyph glyph-name="w" unicode="w" horiz-adv-x="724" 
d="M183 0q-9 0 -12 9l-146 469q-3 11 9 11h79q8 0 11 -9l75 -266q9 -33 17.5 -65t16.5 -64h3q9 31 19 62l20 62l50 158l-29 100q-3 12 9 12h70q10 0 12 -8l70 -262q8 -31 15.5 -62t15.5 -62h2q8 32 16.5 64t17.5 63l75 268q3 9 12 9h79q12 0 8 -11l-146 -469q-3 -9 -12 -9
h-97q-8 0 -11 9l-30 96q-9 34 -18 69t-18 77h-3q-9 -42 -19 -76t-21 -67l-32 -99q-3 -9 -12 -9h-96z" />
    <glyph glyph-name="x" unicode="x" horiz-adv-x="485" 
d="M18 0q-6 0 -8 4t2 9l171 239l-160 225q-4 5 -1.5 8.5t8.5 3.5h88q8 0 12 -6l66 -96q11 -17 23.5 -36t22.5 -36h1q13 19 26 38.5t26 38.5l62 91q5 6 13 6h83q7 0 9 -3.5t-2 -8.5l-160 -223l174 -241q4 -5 1.5 -9t-8.5 -4h-88q-8 0 -12 6l-63 90q-16 23 -31.5 46.5
t-31.5 46.5h-1q-14 -23 -29.5 -46.5t-30.5 -46.5l-62 -90q-4 -6 -13 -6h-87z" />
    <glyph glyph-name="y" unicode="y" horiz-adv-x="502" 
d="M144 -185q-12 0 -7 13l70 177l-184 472q-5 12 7 12h81q8 0 11 -8l85 -231q12 -31 23 -64.5t21 -66.5h2q10 33 22 66t23 65l84 231q3 8 13 8h77q13 0 8 -12l-251 -654q-3 -8 -11 -8h-74z" />
    <glyph glyph-name="z" unicode="z" horiz-adv-x="467" 
d="M34 0q-11 0 -11 10v2q0 8 4 14l211 299q14 20 28.5 41t29.5 41v2q-27 -1 -55 -1h-56h-128q-10 0 -10 11v60q0 10 10 10h376q10 0 10 -9v-3q0 -4 -1 -7.5t-4 -7.5l-204 -289q-16 -22 -31.5 -45t-33.5 -46v-1h51.5h50.5h149q11 0 11 -11v-59q0 -11 -11 -11h-386z" />
    <glyph glyph-name="braceleft" unicode="{" horiz-adv-x="273" 
d="M267 -149q-66 0 -102.5 15t-51 55t-14.5 114v129q0 43 -14 58.5t-47 15.5h-17q-11 0 -11 11v56q0 11 11 11h17q33 0 47 16t14 58v130q0 76 15 115.5t51.5 54t101.5 14.5q11 0 11 -11v-55q0 -11 -11 -11q-31 0 -47.5 -7.5t-22.5 -26t-6 -52.5v-150q0 -50 -14 -76.5
t-46 -37.5q31 -10 45.5 -37t14.5 -77v-149q0 -35 6 -54t22.5 -25.5t47.5 -6.5q11 0 11 -11v-55q0 -11 -11 -11z" />
    <glyph glyph-name="bar" unicode="|" horiz-adv-x="258" 
d="M92 -185q-10 0 -10 11v993q0 11 10 11h74q10 0 10 -11v-993q0 -11 -10 -11h-74z" />
    <glyph glyph-name="braceright" unicode="}" horiz-adv-x="273" 
d="M6 -149q-10 0 -10 11v55q0 11 10 11q31 0 47.5 6.5t22.5 25.5t6 54v149q0 50 15 77t45 37q-31 11 -45.5 37.5t-14.5 76.5v150q0 34 -5.5 52.5t-21.5 26t-49 7.5q-10 0 -10 11v55q0 11 10 11q65 0 102 -14.5t52 -54t15 -115.5v-130q0 -42 13.5 -58t47.5 -16h17
q10 0 10 -11v-56q0 -11 -10 -11h-17q-34 0 -47.5 -15.5t-13.5 -58.5v-129q0 -74 -14.5 -114t-51 -55t-103.5 -15z" />
    <glyph glyph-name="asciitilde" unicode="~" horiz-adv-x="600" 
d="M389 247q-31 0 -52.5 4t-39 10t-38 10t-50.5 4q-26 0 -58 -8t-49 -13q-11 -3 -11 8v57q0 8 5 10q12 6 43 16.5t72 10.5q31 0 52.5 -4.5t39.5 -10.5t38.5 -10t49.5 -4q27 0 59 8.5t48 12.5q11 3 11 -8v-57q0 -9 -7 -12q-13 -5 -43 -14.5t-70 -9.5z" />
    <glyph glyph-name="uni00A0" unicode="&#xa0;" horiz-adv-x="208" 
 />
    <glyph glyph-name="exclamdown" unicode="&#xa1;" horiz-adv-x="239" 
d="M84 285h71q10 0 10 -11l7 -429q0 -11 -10 -11h-85q-10 0 -10 11l7 429q0 11 10 11zM120 501q32 0 46.5 -16t14.5 -43v-12q0 -27 -14.5 -43.5t-46.5 -16.5t-46.5 16.5t-14.5 43.5v12q0 27 14.5 43t46.5 16z" />
    <glyph glyph-name="cent" unicode="&#xa2;" horiz-adv-x="630" 
d="M283 531v86q0 10 10 10h64q10 0 10 -10v-83zM293 -38q-10 0 -10 10v87l84 -3v-84q0 -10 -10 -10h-64zM320 38q-102 0 -155 50.5t-53 145.5v121q0 95 54 145.5t156 50.5q61 0 104.5 -19t66.5 -52t23 -77q0 -22 -11 -22h-73q-10 0 -10 15q0 35 -27 53.5t-73 18.5
q-58 0 -86.5 -29.5t-28.5 -92.5v-103q0 -62 28.5 -92t85.5 -30q47 0 73.5 20.5t26.5 50.5q0 16 10 16h73q11 0 11 -10q0 -73 -50 -116.5t-145 -43.5z" />
    <glyph glyph-name="sterling" unicode="&#xa3;" horiz-adv-x="630" 
d="M126 0q-10 0 -10 11v49q0 7 5 13q22 24 32.5 49t10.5 53v294q0 59 17.5 103.5t58.5 69.5t110 25q54 0 93.5 -17t61.5 -55.5t21 -104.5q0 -11 -10 -11h-70q-11 0 -10 11q0 25 -6.5 46.5t-25 34.5t-52.5 13q-53 0 -73.5 -29t-20.5 -94v-269q0 -41 -11 -65.5t-28 -41.5h325
q10 0 10 -11v-63q0 -11 -10 -11h-418zM93 299q-11 0 -11 11v56q0 10 11 10h316q10 0 10 -10v-56q0 -11 -10 -11h-316z" />
    <glyph glyph-name="currency" unicode="&#xa4;" horiz-adv-x="631" 
d="M137 107q-6 -6 -14 2l-46 47q-6 7 1 14l62 53q-9 20 -15 43t-6 48t6 48t15 43l-62 53q-7 8 -1 14l46 47q8 9 14 2l59 -54q50 33 120 33q69 0 119 -33l59 54q7 7 14 -2l46 -47q7 -6 -1 -14l-62 -53q10 -20 15.5 -43t5.5 -48t-5.5 -48t-15.5 -43l62 -53q8 -7 1 -14l-46 -47
q-7 -8 -14 -2l-59 54q-50 -33 -119 -33q-70 0 -120 33zM316 206q58 0 83.5 29.5t25.5 78.5q0 50 -25.5 79t-83.5 29t-84 -29t-26 -79q0 -49 26 -78.5t84 -29.5z" />
    <glyph glyph-name="yen" unicode="&#xa5;" horiz-adv-x="632" 
d="M279 0q-11 0 -11 11v214l-202 417q-3 6 -0.5 9.5t7.5 3.5h85q10 0 13 -7l104 -233q10 -23 20.5 -47.5t20.5 -47.5h2q10 23 20.5 48t20.5 48l104 232q3 7 13 7h83q5 0 7.5 -3.5t-0.5 -9.5l-202 -417v-214q0 -11 -11 -11h-74zM162 95q-11 0 -11 11v52q0 10 11 10h307
q11 0 11 -10v-52q0 -11 -11 -11h-307zM162 225q-11 0 -11 11v52q0 10 11 10h307q11 0 11 -10v-52q0 -11 -11 -11h-307z" />
    <glyph glyph-name="brokenbar" unicode="&#xa6;" horiz-adv-x="258" 
d="M92 331q-10 0 -10 11v417q0 10 10 10h74q10 0 10 -10v-417q0 -11 -10 -11h-74zM92 -124q-10 0 -10 10v417q0 11 10 11h74q10 0 10 -11v-417q0 -10 -10 -10h-74z" />
    <glyph glyph-name="section" unicode="&#xa7;" horiz-adv-x="485" 
d="M304 116l-52 53q57 10 83 30.5t26 59.5q0 32 -20 54.5t-65 45.5l-108 59q-33 18 -55.5 38.5t-33.5 45.5t-11 56q0 68 46.5 102.5t137.5 34.5q95 0 140 -38.5t45 -99.5q0 -10 -10 -10h-73q-10 0 -10 11q0 25 -19.5 41.5t-72.5 16.5q-89 0 -89 -59q0 -25 13.5 -39t40.5 -30
l142 -81q24 -14 46.5 -33.5t36.5 -47t14 -65.5q0 -57 -39.5 -95.5t-112.5 -49.5zM233 -118q-63 0 -104 18t-61 49t-20 71q0 10 11 10h72q11 0 11 -11q0 -24 19.5 -41t72.5 -17q89 0 89 61q0 25 -13.5 38.5t-41.5 29.5l-141 80q-24 14 -46.5 33.5t-37 47t-14.5 65.5
q0 57 40 95.5t113 49.5l52 -53q-58 -10 -84 -30t-26 -60q0 -32 20.5 -54t64.5 -46l109 -60q49 -27 74.5 -58t25.5 -81q0 -68 -47 -102.5t-138 -34.5z" />
    <glyph glyph-name="dieresis" unicode="&#xa8;" horiz-adv-x="345" 
d="M85 568q-29 0 -42 15t-13 39v11q0 24 13 38.5t42 14.5q30 0 43 -14.5t13 -38.5v-11q0 -24 -13 -39t-43 -15zM260 568q-29 0 -42 15t-13 39v11q0 24 13 38.5t42 14.5t42 -14.5t13 -38.5v-11q0 -24 -13 -39t-42 -15z" />
    <glyph glyph-name="copyright" unicode="&#xa9;" horiz-adv-x="713" 
d="M356 -12q-98 0 -161 30t-93.5 86t-30.5 131v134q0 76 30.5 131.5t93.5 85.5t161 30q99 0 162 -30t93.5 -85.5t30.5 -131.5v-134q0 -75 -30.5 -131t-93.5 -86t-162 -30zM356 56q105 0 158 45t53 130v142q0 85 -53 130t-158 45q-103 0 -156.5 -45t-53.5 -130v-142
q0 -85 53.5 -130t156.5 -45zM357 128q-65 0 -101 35t-36 100v78q0 65 36.5 100t102.5 35q65 0 100 -30t35 -87q0 -12 -9 -12h-58q-9 0 -9 12q0 23 -15 34.5t-43 11.5q-32 0 -47.5 -17t-15.5 -52v-68q0 -69 61 -69q30 0 44.5 12t14.5 33q0 6 1.5 9t8.5 3h57q10 0 10 -11
q0 -51 -34.5 -84t-102.5 -33z" />
    <glyph glyph-name="ordfeminine" unicode="&#xaa;" horiz-adv-x="396" 
d="M143 319q-41 0 -65 24.5t-24 71.5q0 56 35.5 81t115.5 32l52 5v16q0 28 -12.5 40t-44.5 12q-57 0 -56 -33q0 -11 -11 -11h-50q-12 0 -12 14q-5 42 31.5 69t100.5 27q65 0 97.5 -29t32.5 -89v-136q0 -24 1.5 -42t3.5 -33q1 -12 -11 -12h-49q-6 0 -8.5 4.5t-3.5 8.5
t-2 14.5t-3 21.5q-30 -30 -59 -43t-59 -13zM70 197q-11 0 -11 10v49q0 11 11 11h262q11 0 11 -11v-49q0 -10 -11 -10h-262zM163 382q18 0 42.5 12.5t51.5 37.5v48l-50 -5q-44 -3 -61.5 -16t-17.5 -38q0 -21 9 -30t26 -9z" />
    <glyph glyph-name="guillemotleft" unicode="&#xab;" horiz-adv-x="503" 
d="M349 92q-7 0 -12 7l-93 157q-5 7 0 15l93 156q5 8 12 8h74q6 0 8.5 -4t-0.5 -9l-87 -159l87 -159q3 -5 0.5 -8.5t-8.5 -3.5h-74zM174 92q-8 0 -13 7l-92 157q-5 7 0 15l92 156q5 8 13 8h74q5 0 7.5 -4t-0.5 -9l-86 -159l86 -159q3 -5 0.5 -8.5t-7.5 -3.5h-74z" />
    <glyph glyph-name="logicalnot" unicode="&#xac;" horiz-adv-x="600" 
d="M437 110q-10 0 -10 10v141h-326q-11 0 -11 11v56q0 11 11 11h398q11 0 11 -11v-208q0 -10 -11 -10h-62z" />
    <glyph glyph-name="uni00AD" unicode="&#xad;" horiz-adv-x="489" 
d="M77 229q-10 0 -10 11v51q0 11 10 11h334q11 0 11 -11v-51q0 -11 -11 -11h-334z" />
    <glyph glyph-name="registered" unicode="&#xae;" horiz-adv-x="594" 
d="M297 304q-114 0 -166 51.5t-52 134.5v31q0 83 52 133t166 50q115 0 168 -51t53 -133v-32q0 -82 -53 -133t-168 -51zM297 355q81 0 123.5 33.5t42.5 94.5v42q0 62 -42.5 95t-123.5 33t-122.5 -32t-41.5 -94v-42q0 -61 41.5 -95.5t122.5 -34.5zM225 396q-10 0 -10 10v202
q0 9 11 9h70q55 0 77.5 -18t22.5 -52q0 -26 -11.5 -41t-38.5 -25l51 -73q3 -4 2 -8t-7 -4h-35q-7 0 -11 7l-47 71h-35v-68q0 -10 -10 -10h-29zM264 513h37q25 0 35.5 7.5t10.5 20.5v7q0 17 -10.5 23.5t-37.5 6.5h-35v-65z" />
    <glyph glyph-name="macron" unicode="&#xaf;" horiz-adv-x="280" 
d="M41 570q-11 0 -11 11v56q0 10 11 10h199q10 0 10 -10v-56q0 -11 -10 -11h-199z" />
    <glyph glyph-name="degree" unicode="&#xb0;" horiz-adv-x="391" 
d="M196 395q-70 0 -109.5 36.5t-39.5 104.5v18q0 68 39.5 104t109.5 36t109 -36t39 -104v-18q0 -68 -39 -104.5t-109 -36.5zM196 459q36 0 56.5 18.5t20.5 58.5v17q0 40 -20 58.5t-57 18.5t-57.5 -18.5t-20.5 -58.5v-17q0 -40 20.5 -58.5t57.5 -18.5z" />
    <glyph glyph-name="plusminus" unicode="&#xb1;" horiz-adv-x="600" 
d="M269 176q-10 0 -10 10v138h-158q-10 0 -10 11v57q0 11 10 11h158v137q0 11 10 11h62q10 0 10 -11v-137h158q10 0 10 -11v-57q0 -11 -10 -11h-158v-138q0 -10 -10 -10h-62zM101 54q-11 0 -11 10v57q0 10 11 10h396q11 0 11 -10v-57q0 -10 -11 -10h-396z" />
    <glyph glyph-name="uni00B2" unicode="&#xb2;" horiz-adv-x="411" 
d="M68 350q-11 0 -11 11v51q0 36 15 62t38.5 45.5t51 35.5t51 30.5t38.5 30.5t15 36v13q0 20 -15 30t-49 10q-32 0 -48 -12t-16 -41q0 -10 -10 -10h-57q-10 0 -10 11q-1 63 38 92.5t108 29.5t104 -28t35 -84q0 -37 -14 -63t-36.5 -44.5t-48 -33.5t-48.5 -28.5t-39 -30.5
t-19 -40h201q10 0 10 -11v-51q0 -11 -10 -11h-274z" />
    <glyph glyph-name="uni00B3" unicode="&#xb3;" horiz-adv-x="411" 
d="M197 343q-47 0 -79.5 13.5t-48.5 41t-16 69.5q1 10 11 10h57q11 0 11 -10q0 -32 16 -42.5t48 -10.5q39 0 58.5 14t19.5 39v14q0 25 -18 36.5t-56 11.5h-56q-11 0 -11 11v48q0 10 11 10h54q35 0 50.5 12.5t15.5 38.5v14q0 21 -15.5 31t-51.5 10t-50.5 -12t-14.5 -39
q0 -11 -10 -11h-57q-10 0 -10 11q-1 62 35.5 92t110.5 30t108.5 -28t34.5 -84q0 -33 -11.5 -56.5t-34.5 -37.5v-1q28 -14 41.5 -38.5t13.5 -59.5q0 -62 -40 -94.5t-116 -32.5z" />
    <glyph glyph-name="acute" unicode="&#xb4;" horiz-adv-x="224" 
d="M37 556q-11 0 -6 11l67 123q4 7 12 7h76q6 0 7.5 -3.5t-1.5 -7.5l-85 -123q-5 -7 -12 -7h-58z" />
    <glyph glyph-name="uni00B5" unicode="&#xb5;" horiz-adv-x="555" 
d="M82 -185q-10 0 -10 11v653q0 10 10 10h74q11 0 11 -10v-306q0 -52 19 -76.5t53 -24.5t73 22t65 58v327q0 10 10 10h74q11 0 11 -10v-357q0 -34 8.5 -43.5t29.5 -9.5q7 0 15 1t15 1q11 1 11 -10v-58q0 -4 -2 -6.5t-8 -3.5q-11 -2 -24.5 -3.5t-23.5 -1.5q-51 0 -78 21
t-28 64v1q-32 -39 -75 -62t-80 -23q-43 0 -70 23v-186q0 -11 -10 -11h-70z" />
    <glyph glyph-name="paragraph" unicode="&#xb6;" horiz-adv-x="617" 
d="M230 -185q-10 0 -10 11v484h-58q-50 0 -80 19.5t-44 52.5t-14 71v87q0 40 14 72.5t44 51.5t80 19h368q11 0 11 -11v-846q0 -11 -11 -11h-72q-11 0 -11 11v772h-134v-772q0 -11 -10 -11h-73z" />
    <glyph glyph-name="periodcentered" unicode="&#xb7;" horiz-adv-x="252" 
d="M126 192q-33 0 -47.5 16.5t-14.5 44.5v12q0 27 14.5 43.5t47.5 16.5t47.5 -16.5t14.5 -43.5v-12q0 -28 -14.5 -44.5t-47.5 -16.5z" />
    <glyph glyph-name="cedilla" unicode="&#xb8;" horiz-adv-x="211" 
d="M82 -197q-11 0 -21.5 1t-22.5 3q-8 1 -8 9v39q0 9 8 8q7 -1 15 -1.5t14 -0.5q21 0 30.5 6.5t9.5 16.5v13q0 14 -8.5 19.5t-24.5 5.5h-23q-7 0 -7 7q0 5 0.5 10.5t1.5 9.5l23 76q2 6 10 6h52q9 0 5 -11l-19 -59h9q27 0 41 -17.5t14 -46.5v-16q0 -40 -24.5 -59t-74.5 -19z
" />
    <glyph glyph-name="uni00B9" unicode="&#xb9;" horiz-adv-x="411" 
d="M75 350q-10 0 -10 11v51q0 11 10 11h96v257l-90 -27q-12 -3 -12 7v51q0 12 10 15l137 43q9 2 14 2h10q10 0 10 -10v-338h85q11 0 11 -11v-51q0 -11 -11 -11h-260z" />
    <glyph glyph-name="ordmasculine" unicode="&#xba;" horiz-adv-x="402" 
d="M200 319q-69 0 -107.5 40t-38.5 110v48q0 70 38.5 110t107.5 40q70 0 109.5 -40t39.5 -110v-48q0 -70 -39.5 -110t-109.5 -40zM71 197q-11 0 -11 10v49q0 11 11 11h260q10 0 10 -11v-49q0 -10 -10 -10h-260zM200 388q35 0 54 20.5t19 55.5v58q0 37 -19 56.5t-54 19.5
q-34 0 -52.5 -19.5t-18.5 -56.5v-58q0 -36 18.5 -56t52.5 -20z" />
    <glyph glyph-name="guillemotright" unicode="&#xbb;" horiz-adv-x="503" 
d="M255 92q-5 0 -8 3.5t1 8.5l86 159l-87 159q-3 5 0 9t8 4h74q7 0 12 -8l93 -156q5 -8 0 -15l-93 -157q-5 -7 -12 -7h-74zM79 92q-5 0 -7.5 3.5t0.5 8.5l87 159l-87 159q-3 5 -0.5 9t7.5 4h74q8 0 13 -8l92 -156q5 -8 0 -15l-92 -157q-5 -7 -13 -7h-74z" />
    <glyph glyph-name="onequarter" unicode="&#xbc;" horiz-adv-x="918" 
d="M75 237q-10 0 -10 11v51q0 11 10 11h96v257l-90 -27q-12 -3 -12 7v51q0 12 10 15l137 43q9 2 14 2h10q10 0 10 -10v-338h85q11 0 11 -11v-51q0 -11 -11 -11h-260zM281 -31q-12 0 -7 12l186 370l159 328q4 7 12 7h66q5 0 7.5 -3.5t-0.5 -8.5l-176 -350l-169 -348
q-3 -7 -12 -7h-66zM767 0q-11 0 -11 11v65h-207q-11 0 -11 10v7q0 8 4 16l164 299q6 10 14 10h61q7 0 9.5 -3.5t-1.5 -9.5l-140 -257h108l2 127q0 10 10 10h55q10 0 10 -10v-127h40q11 0 11 -10v-52q0 -10 -11 -10h-40v-65q0 -11 -10 -11h-57z" />
    <glyph glyph-name="onehalf" unicode="&#xbd;" horiz-adv-x="966" 
d="M75 237q-10 0 -10 11v51q0 11 10 11h96v257l-90 -27q-12 -3 -12 7v51q0 12 10 15l137 43q9 2 14 2h10q10 0 10 -10v-338h85q11 0 11 -11v-51q0 -11 -11 -11h-260zM281 -31q-12 0 -7 12l186 370l159 328q4 7 12 7h66q5 0 7.5 -3.5t-0.5 -8.5l-176 -350l-169 -348
q-3 -7 -12 -7h-66zM624 0q-11 0 -11 11v51q0 36 15 62t38.5 45.5t51 35.5t51 30.5t38.5 30.5t15 36v13q0 20 -15 30t-49 10q-32 0 -48 -12t-16 -41q0 -10 -10 -10h-57q-10 0 -10 11q-1 63 38 92.5t108 29.5t104 -28t35 -84q0 -37 -14 -63t-36.5 -44.5t-48 -33.5t-48.5 -28.5
t-39 -30.5t-19 -40h201q10 0 10 -11v-51q0 -11 -10 -11h-274z" />
    <glyph glyph-name="threequarters" unicode="&#xbe;" horiz-adv-x="907" 
d="M197 230q-47 0 -79.5 13.5t-48.5 41t-16 69.5q1 10 11 10h57q11 0 11 -10q0 -32 16 -42.5t48 -10.5q39 0 58.5 14t19.5 39v14q0 25 -18 36.5t-56 11.5h-56q-11 0 -11 11v48q0 10 11 10h54q35 0 50.5 12.5t15.5 38.5v14q0 21 -15.5 31t-51.5 10t-50.5 -12t-14.5 -39
q0 -11 -10 -11h-57q-10 0 -10 11q-1 62 35.5 92t110.5 30t108.5 -28t34.5 -84q0 -33 -11.5 -56.5t-34.5 -37.5v-1q28 -14 41.5 -38.5t13.5 -59.5q0 -62 -40 -94.5t-116 -32.5zM270 -31q-12 0 -7 12l186 370l159 328q4 7 12 7h66q5 0 7.5 -3.5t-0.5 -8.5l-176 -350l-169 -348
q-3 -7 -12 -7h-66zM756 0q-11 0 -11 11v65h-207q-11 0 -11 10v7q0 8 4 16l164 299q6 10 14 10h61q7 0 9.5 -3.5t-1.5 -9.5l-140 -257h108l2 127q0 10 10 10h55q10 0 10 -10v-127h40q11 0 11 -10v-52q0 -10 -11 -10h-40v-65q0 -11 -10 -11h-57z" />
    <glyph glyph-name="questiondown" unicode="&#xbf;" horiz-adv-x="471" 
d="M305 285q10 0 10 -11v-39q0 -32 -17.5 -58t-43 -48.5t-51.5 -46t-43.5 -50.5t-17.5 -61q0 -35 25 -52t73 -17q59 0 81.5 27t22.5 77q0 12 9 12h74q6 0 8 -3.5t2 -9.5q1 -93 -49.5 -138t-150.5 -45q-96 0 -143.5 36.5t-47.5 104.5q0 44 18 79t43.5 62t52 50t44.5 43t18 40
l1 37q0 11 11 11h71zM265 501q33 0 47.5 -16t14.5 -43v-12q0 -28 -14.5 -44t-47.5 -16q-32 0 -46.5 16t-14.5 44v12q0 27 14.5 43t46.5 16z" />
    <glyph glyph-name="Agrave" unicode="&#xc0;" horiz-adv-x="568" 
d="M9 0q-12 0 -9 12l220 635q3 8 12 8h101q10 0 13 -8l222 -635q3 -12 -9 -12h-81q-10 0 -13 8l-143 439q-10 30 -20 61t-21 62h-1q-9 -30 -19 -60.5t-20 -60.5l-142 -440q-3 -9 -12 -9h-78zM128 148l21 82h264l22 -82h-307zM274 710q-7 0 -12 6l-74 103q-3 5 -1.5 9t6.5 4
h79q8 0 11 -8l57 -104q2 -4 1 -7t-7 -3h-60z" />
    <glyph glyph-name="Aacute" unicode="&#xc1;" horiz-adv-x="568" 
d="M9 0q-12 0 -9 12l220 635q3 8 12 8h101q10 0 13 -8l222 -635q3 -12 -9 -12h-81q-10 0 -13 8l-143 439q-10 30 -20 61t-21 62h-1q-9 -30 -19 -60.5t-20 -60.5l-142 -440q-3 -9 -12 -9h-78zM128 148l21 82h264l22 -82h-307zM231 710q-5 0 -6 3t1 7l57 104q4 8 11 8h78
q6 0 7.5 -4t-2.5 -9l-74 -103q-4 -6 -11 -6h-61z" />
    <glyph glyph-name="Acircumflex" unicode="&#xc2;" horiz-adv-x="568" 
d="M9 0q-12 0 -9 12l220 635q3 8 12 8h101q10 0 13 -8l222 -635q3 -12 -9 -12h-81q-10 0 -13 8l-143 439q-10 30 -20 61t-21 62h-1q-9 -30 -19 -60.5t-20 -60.5l-142 -440q-3 -9 -12 -9h-78zM128 148l21 82h264l22 -82h-307zM153 717q-11 -5 -11 6v54q0 8 7 11l127 57
q7 4 15 0l127 -57q7 -3 7 -11v-54q0 -11 -12 -6l-130 47z" />
    <glyph glyph-name="Atilde" unicode="&#xc3;" horiz-adv-x="568" 
d="M9 0q-12 0 -9 12l220 635q3 8 12 8h101q10 0 13 -8l222 -635q3 -12 -9 -12h-81q-10 0 -13 8l-143 439q-10 30 -20 61t-21 62h-1q-9 -30 -19 -60.5t-20 -60.5l-142 -440q-3 -9 -12 -9h-78zM128 148l21 82h264l22 -82h-307zM339 719q-22 0 -39.5 6.5t-34.5 12.5t-38 6
t-40.5 -6.5t-30.5 -12.5q-13 -7 -13 7v50q0 10 6 13q12 6 31.5 16t49.5 10q27 0 44.5 -6t33 -13t34.5 -7q21 0 40.5 6.5t30.5 13.5q13 7 13 -7v-50q0 -8 -6 -14q-11 -7 -31 -16t-50 -9z" />
    <glyph glyph-name="Adieresis" unicode="&#xc4;" horiz-adv-x="568" 
d="M9 0q-12 0 -9 12l220 635q3 8 12 8h101q10 0 13 -8l222 -635q3 -12 -9 -12h-81q-10 0 -13 8l-143 439q-10 30 -20 61t-21 62h-1q-9 -30 -19 -60.5t-20 -60.5l-142 -440q-3 -9 -12 -9h-78zM128 148l21 82h264l22 -82h-307zM196 710q-29 0 -42 15.5t-13 38.5v11
q0 25 13 39.5t42 14.5q30 0 43 -14.5t13 -39.5v-11q0 -23 -13 -38.5t-43 -15.5zM370 710q-29 0 -42 15.5t-13 38.5v11q0 25 13 39.5t42 14.5t42.5 -14.5t13.5 -39.5v-11q0 -23 -13.5 -38.5t-42.5 -15.5z" />
    <glyph glyph-name="Aring" unicode="&#xc5;" horiz-adv-x="568" 
d="M568 12q3 -12 -9 -12h-81q-10 0 -13 8l-45 140h-276l-45 -139q-3 -9 -12 -9h-78q-12 0 -9 12l211 609q-20 12 -30.5 32t-10.5 47q0 48 30.5 73.5t83.5 25.5q52 0 83 -25.5t31 -73.5q0 -28 -11 -48.5t-32 -31.5zM235 700q0 -20 11 -33t38 -13t38 13t11 33t-11 33t-38 13
t-38 -13t-11 -33zM170 230h223l-71 217q-10 30 -20 61.5t-21 61.5h-1q-9 -30 -19 -60.5t-20 -60.5z" />
    <glyph glyph-name="AE" unicode="&#xc6;" horiz-adv-x="838" 
d="M9 0q-5 0 -8 3.5t0 9.5l321 634q4 8 13 8h424q10 0 10 -11v-64q0 -11 -10 -11h-279v-195h255q10 0 10 -11v-61q0 -11 -10 -11h-255v-205h279q10 0 10 -11v-64q0 -11 -10 -11h-364q-10 0 -10 11v137h-214l-69 -140q-4 -8 -13 -8h-80zM211 230h174v258v45t1 52h-2
q-10 -23 -21 -47l-22 -48z" />
    <glyph glyph-name="Ccedilla" unicode="&#xc7;" horiz-adv-x="636" 
d="M321 -12q-123 0 -187 61.5t-64 177.5v201q0 116 64.5 177.5t187.5 61.5q80 0 139.5 -27t89 -77t19.5 -120q-1 -5 -3 -9.5t-8 -4.5h-75q-11 0 -10 11q3 68 -35.5 105.5t-115.5 37.5q-76 0 -117 -39.5t-41 -115.5v-201q0 -76 41 -115.5t117 -39.5q77 0 118 38t33 105
q-1 11 10 11h74q10 0 12 -14q6 -68 -23.5 -118t-87.5 -78t-138 -28zM309 -197q-11 0 -21.5 1t-22.5 3q-8 1 -8 9v39q0 9 8 8q7 -1 15 -1.5t14 -0.5q21 0 30.5 6.5t9.5 16.5v13q0 14 -8.5 19.5t-24.5 5.5h-23q-7 0 -7 7q0 5 0.5 10.5t1.5 9.5l23 76q2 6 10 6h52q9 0 5 -11
l-19 -59h9q27 0 41 -17.5t14 -46.5v-16q0 -40 -24.5 -59t-74.5 -19z" />
    <glyph glyph-name="Egrave" unicode="&#xc8;" horiz-adv-x="535" 
d="M92 0q-10 0 -10 11v633q0 11 10 11h364q10 0 10 -11v-64q0 -11 -10 -11h-279v-195h255q10 0 10 -11v-61q0 -11 -10 -11h-255v-205h279q10 0 10 -11v-64q0 -11 -10 -11h-364zM270 710q-7 0 -12 6l-74 103q-3 5 -1.5 9t6.5 4h79q8 0 11 -8l57 -104q2 -4 1 -7t-7 -3h-60z
" />
    <glyph glyph-name="Eacute" unicode="&#xc9;" horiz-adv-x="535" 
d="M92 0q-10 0 -10 11v633q0 11 10 11h364q10 0 10 -11v-64q0 -11 -10 -11h-279v-195h255q10 0 10 -11v-61q0 -11 -10 -11h-255v-205h279q10 0 10 -11v-64q0 -11 -10 -11h-364zM227 710q-5 0 -6 3t1 7l57 104q4 8 11 8h78q6 0 7.5 -4t-2.5 -9l-74 -103q-4 -6 -11 -6h-61z
" />
    <glyph glyph-name="Ecircumflex" unicode="&#xca;" horiz-adv-x="535" 
d="M92 0q-10 0 -10 11v633q0 11 10 11h364q10 0 10 -11v-64q0 -11 -10 -11h-279v-195h255q10 0 10 -11v-61q0 -11 -10 -11h-255v-205h279q10 0 10 -11v-64q0 -11 -10 -11h-364zM149 717q-11 -5 -11 6v54q0 8 7 11l127 57q7 4 15 0l127 -57q7 -3 7 -11v-54q0 -11 -12 -6
l-130 47z" />
    <glyph glyph-name="Edieresis" unicode="&#xcb;" horiz-adv-x="535" 
d="M92 0q-10 0 -10 11v633q0 11 10 11h364q10 0 10 -11v-64q0 -11 -10 -11h-279v-195h255q10 0 10 -11v-61q0 -11 -10 -11h-255v-205h279q10 0 10 -11v-64q0 -11 -10 -11h-364zM192 710q-29 0 -42 15.5t-13 38.5v11q0 25 13 39.5t42 14.5q30 0 43 -14.5t13 -39.5v-11
q0 -23 -13 -38.5t-43 -15.5zM366 710q-29 0 -42 15.5t-13 38.5v11q0 25 13 39.5t42 14.5t42.5 -14.5t13.5 -39.5v-11q0 -23 -13.5 -38.5t-42.5 -15.5z" />
    <glyph glyph-name="Igrave" unicode="&#xcc;" horiz-adv-x="259" 
d="M92 0q-10 0 -10 11v633q0 11 10 11h75q10 0 10 -11v-633q0 -11 -10 -11h-75zM121 710q-7 0 -12 6l-74 103q-3 5 -1.5 9t6.5 4h79q8 0 11 -8l57 -104q2 -4 1 -7t-7 -3h-60z" />
    <glyph glyph-name="Iacute" unicode="&#xcd;" horiz-adv-x="259" 
d="M92 0q-10 0 -10 11v633q0 11 10 11h75q10 0 10 -11v-633q0 -11 -10 -11h-75zM78 710q-5 0 -6 3t1 7l57 104q4 8 11 8h78q6 0 7.5 -4t-2.5 -9l-74 -103q-4 -6 -11 -6h-61z" />
    <glyph glyph-name="Icircumflex" unicode="&#xce;" horiz-adv-x="259" 
d="M92 0q-10 0 -10 11v633q0 11 10 11h75q10 0 10 -11v-633q0 -11 -10 -11h-75zM0 717q-11 -5 -11 6v54q0 8 7 11l127 57q7 4 15 0l127 -57q7 -3 7 -11v-54q0 -11 -12 -6l-130 47z" />
    <glyph glyph-name="Idieresis" unicode="&#xcf;" horiz-adv-x="259" 
d="M92 0q-10 0 -10 11v633q0 11 10 11h75q10 0 10 -11v-633q0 -11 -10 -11h-75zM43 710q-29 0 -42 15.5t-13 38.5v11q0 25 13 39.5t42 14.5q30 0 43 -14.5t13 -39.5v-11q0 -23 -13 -38.5t-43 -15.5zM217 710q-29 0 -42 15.5t-13 38.5v11q0 25 13 39.5t42 14.5t42.5 -14.5
t13.5 -39.5v-11q0 -23 -13.5 -38.5t-42.5 -15.5z" />
    <glyph glyph-name="Eth" unicode="&#xd0;" horiz-adv-x="643" 
d="M14 294q-10 0 -10 11v55q0 11 10 11h68h233q11 0 11 -11v-55q0 -11 -11 -11h-301zM92 0q-10 0 -10 11v633q0 11 10 11h183q155 0 231 -71.5t76 -216.5v-53q0 -158 -76 -236t-231 -78h-183zM177 81h91q113 0 165.5 56t52.5 173v62q0 103 -52.5 152.5t-165.5 49.5h-91v-493
z" />
    <glyph glyph-name="Ntilde" unicode="&#xd1;" horiz-adv-x="664" 
d="M92 0q-10 0 -10 11v633q0 11 10 11h124q9 0 12 -7l180 -365q19 -36 33.5 -66t26 -57t21.5 -51h2q-1 27 -1 58t-0.5 62.5t-0.5 57.5v357q0 11 10 11h73q11 0 11 -11v-633q0 -11 -11 -11h-121q-9 0 -13 7l-176 355q-16 32 -30.5 63t-28.5 61t-27 60h-2q0 -34 1 -65t1 -62
v-65v-343q0 -11 -11 -11h-73zM388 719q-22 0 -39.5 6.5t-34.5 12.5t-38 6t-40.5 -6.5t-30.5 -12.5q-13 -7 -13 7v50q0 10 6 13q12 6 31.5 16t49.5 10q27 0 44.5 -6t33 -13t34.5 -7q21 0 40.5 6.5t30.5 13.5q13 7 13 -7v-50q0 -8 -6 -14q-11 -7 -31 -16t-50 -9z" />
    <glyph glyph-name="Ograve" unicode="&#xd2;" horiz-adv-x="645" 
d="M322 -12q-127 0 -189.5 62t-62.5 176v203q0 115 62.5 176.5t189.5 61.5t190 -61.5t63 -176.5v-203q0 -114 -63 -176t-190 -62zM322 72q78 0 118 40t40 117v197q0 78 -40 117.5t-118 39.5q-76 0 -116.5 -39.5t-40.5 -117.5v-197q0 -77 40.5 -117t116.5 -40zM313 710
q-7 0 -12 6l-74 103q-3 5 -1.5 9t6.5 4h79q8 0 11 -8l57 -104q2 -4 1 -7t-7 -3h-60z" />
    <glyph glyph-name="Oacute" unicode="&#xd3;" horiz-adv-x="645" 
d="M322 -12q-127 0 -189.5 62t-62.5 176v203q0 115 62.5 176.5t189.5 61.5t190 -61.5t63 -176.5v-203q0 -114 -63 -176t-190 -62zM322 72q78 0 118 40t40 117v197q0 78 -40 117.5t-118 39.5q-76 0 -116.5 -39.5t-40.5 -117.5v-197q0 -77 40.5 -117t116.5 -40zM270 710
q-5 0 -6 3t1 7l57 104q4 8 11 8h78q6 0 7.5 -4t-2.5 -9l-74 -103q-4 -6 -11 -6h-61z" />
    <glyph glyph-name="Ocircumflex" unicode="&#xd4;" horiz-adv-x="645" 
d="M322 -12q-127 0 -189.5 62t-62.5 176v203q0 115 62.5 176.5t189.5 61.5t190 -61.5t63 -176.5v-203q0 -114 -63 -176t-190 -62zM322 72q78 0 118 40t40 117v197q0 78 -40 117.5t-118 39.5q-76 0 -116.5 -39.5t-40.5 -117.5v-197q0 -77 40.5 -117t116.5 -40zM192 717
q-11 -5 -11 6v54q0 8 7 11l127 57q7 4 15 0l127 -57q7 -3 7 -11v-54q0 -11 -12 -6l-130 47z" />
    <glyph glyph-name="Otilde" unicode="&#xd5;" horiz-adv-x="645" 
d="M322 -12q-127 0 -189.5 62t-62.5 176v203q0 115 62.5 176.5t189.5 61.5t190 -61.5t63 -176.5v-203q0 -114 -63 -176t-190 -62zM322 72q78 0 118 40t40 117v197q0 78 -40 117.5t-118 39.5q-76 0 -116.5 -39.5t-40.5 -117.5v-197q0 -77 40.5 -117t116.5 -40zM378 719
q-22 0 -39.5 6.5t-34.5 12.5t-38 6t-40.5 -6.5t-30.5 -12.5q-13 -7 -13 7v50q0 10 6 13q12 6 31.5 16t49.5 10q27 0 44.5 -6t33 -13t34.5 -7q21 0 40.5 6.5t30.5 13.5q13 7 13 -7v-50q0 -8 -6 -14q-11 -7 -31 -16t-50 -9z" />
    <glyph glyph-name="Odieresis" unicode="&#xd6;" horiz-adv-x="645" 
d="M322 -12q-127 0 -189.5 62t-62.5 176v203q0 115 62.5 176.5t189.5 61.5t190 -61.5t63 -176.5v-203q0 -114 -63 -176t-190 -62zM322 72q78 0 118 40t40 117v197q0 78 -40 117.5t-118 39.5q-76 0 -116.5 -39.5t-40.5 -117.5v-197q0 -77 40.5 -117t116.5 -40zM235 710
q-29 0 -42 15.5t-13 38.5v11q0 25 13 39.5t42 14.5q30 0 43 -14.5t13 -39.5v-11q0 -23 -13 -38.5t-43 -15.5zM409 710q-29 0 -42 15.5t-13 38.5v11q0 25 13 39.5t42 14.5t42.5 -14.5t13.5 -39.5v-11q0 -23 -13.5 -38.5t-42.5 -15.5z" />
    <glyph glyph-name="multiply" unicode="&#xd7;" horiz-adv-x="600" 
d="M172 132l-40 40q-7 8 0 15l113 114l-113 113q-7 7 0 14l40 41q8 7 15 0l114 -113l113 113q7 7 14 0l41 -41q7 -7 0 -14l-113 -113l113 -114q7 -7 0 -15l-41 -40q-7 -7 -14 0l-113 113l-114 -113q-7 -7 -15 0z" />
    <glyph glyph-name="Oslash" unicode="&#xd8;" horiz-adv-x="645" 
d="M54 -50q-6 0 -8 3.5t2 9.5l80 126l35 54l276 438l19 36l51 81q5 7 13 7h69q6 0 7.5 -3.5t-1.5 -9.5l-81 -129l-31 -47l-273 -433l-25 -44l-51 -83q-4 -6 -13 -6h-69zM322 -12q-127 0 -189.5 62t-62.5 176v203q0 115 62.5 176.5t189.5 61.5t190 -61.5t63 -176.5v-203
q0 -114 -63 -176t-190 -62zM322 72q78 0 118 40t40 117v197q0 78 -40 117.5t-118 39.5q-76 0 -116.5 -39.5t-40.5 -117.5v-197q0 -77 40.5 -117t116.5 -40z" />
    <glyph glyph-name="Ugrave" unicode="&#xd9;" horiz-adv-x="646" 
d="M323 -12q-118 0 -182 61.5t-64 178.5v416q0 11 10 11h75q10 0 10 -11v-418q0 -73 38.5 -113.5t112.5 -40.5t112.5 40.5t38.5 113.5v418q0 11 11 11h74q11 0 11 -11v-418q0 -112 -65.5 -175t-181.5 -63zM314 710q-7 0 -12 6l-74 103q-3 5 -1.5 9t6.5 4h79q8 0 11 -8
l57 -104q2 -4 1 -7t-7 -3h-60z" />
    <glyph glyph-name="Uacute" unicode="&#xda;" horiz-adv-x="646" 
d="M323 -12q-118 0 -182 61.5t-64 178.5v416q0 11 10 11h75q10 0 10 -11v-418q0 -73 38.5 -113.5t112.5 -40.5t112.5 40.5t38.5 113.5v418q0 11 11 11h74q11 0 11 -11v-418q0 -112 -65.5 -175t-181.5 -63zM271 710q-5 0 -6 3t1 7l57 104q4 8 11 8h78q6 0 7.5 -4t-2.5 -9
l-74 -103q-4 -6 -11 -6h-61z" />
    <glyph glyph-name="Ucircumflex" unicode="&#xdb;" horiz-adv-x="646" 
d="M323 -12q-118 0 -182 61.5t-64 178.5v416q0 11 10 11h75q10 0 10 -11v-418q0 -73 38.5 -113.5t112.5 -40.5t112.5 40.5t38.5 113.5v418q0 11 11 11h74q11 0 11 -11v-418q0 -112 -65.5 -175t-181.5 -63zM193 717q-11 -5 -11 6v54q0 8 7 11l127 57q7 4 15 0l127 -57
q7 -3 7 -11v-54q0 -11 -12 -6l-130 47z" />
    <glyph glyph-name="Udieresis" unicode="&#xdc;" horiz-adv-x="646" 
d="M323 -12q-118 0 -182 61.5t-64 178.5v416q0 11 10 11h75q10 0 10 -11v-418q0 -73 38.5 -113.5t112.5 -40.5t112.5 40.5t38.5 113.5v418q0 11 11 11h74q11 0 11 -11v-418q0 -112 -65.5 -175t-181.5 -63zM236 710q-29 0 -42 15.5t-13 38.5v11q0 25 13 39.5t42 14.5
q30 0 43 -14.5t13 -39.5v-11q0 -23 -13 -38.5t-43 -15.5zM410 710q-29 0 -42 15.5t-13 38.5v11q0 25 13 39.5t42 14.5t42.5 -14.5t13.5 -39.5v-11q0 -23 -13.5 -38.5t-42.5 -15.5z" />
    <glyph glyph-name="Yacute" unicode="&#xdd;" horiz-adv-x="544" 
d="M234 0q-10 0 -10 11v214l-214 417q-2 6 0 9.5t7 3.5h87q9 0 12 -7l104 -215q13 -27 26 -55.5t26 -55.5h1q14 29 27 56.5t26 56.5l103 213q3 7 13 7h84q5 0 7.5 -3.5t-0.5 -9.5l-213 -417v-214q0 -11 -11 -11h-75zM220 710q-5 0 -6 3t1 7l57 104q4 8 11 8h78q6 0 7.5 -4
t-2.5 -9l-74 -103q-4 -6 -11 -6h-61z" />
    <glyph glyph-name="Thorn" unicode="&#xde;" horiz-adv-x="549" 
d="M92 0q-10 0 -10 11v633q0 11 10 11h75q10 0 10 -11v-97h88q123 0 184.5 -52.5t61.5 -154.5q0 -101 -62 -154t-184 -53h-88v-122q0 -11 -10 -11h-75zM177 214h86q79 0 115.5 30t36.5 93q0 68 -37.5 98t-116.5 30h-84v-251z" />
    <glyph glyph-name="germandbls" unicode="&#xdf;" horiz-adv-x="545" 
d="M350 -12q-51 0 -83.5 13t-48 40.5t-14.5 69.5q0 9 11 9h67q9 0 9 -10q0 -21 15 -32t44 -11q35 0 52.5 15.5t17.5 45.5q0 34 -17 56.5t-42.5 40.5t-50.5 36.5t-42 42.5t-17 60q0 30 14 52t32 40.5t32 40t14 51.5q0 34 -21 51t-62 17q-48 0 -70.5 -26t-22.5 -82v-497
q0 -11 -11 -11h-74q-10 0 -10 11v488q0 101 45.5 148.5t141.5 47.5q57 0 97 -16t60.5 -48t20.5 -78q0 -40 -13.5 -66.5t-31.5 -45t-32 -34t-14 -33.5q0 -21 17.5 -38t42.5 -35.5t49.5 -41.5t42 -55t17.5 -77q0 -67 -41 -103t-124 -36z" />
    <glyph glyph-name="agrave" unicode="&#xe0;" horiz-adv-x="497" 
d="M357 0q-6 0 -8.5 4t-4.5 10q-1 8 -4.5 34t-4.5 47l-4 39v199q0 48 -19 68t-67 20q-86 0 -85 -60q0 -11 -10 -11h-73q-11 0 -12 19q-5 60 45 96t138 36q91 0 134.5 -41t43.5 -126v-212q0 -34 1.5 -61.5t4.5 -48.5q2 -12 -10 -12h-65zM165 -12q-58 0 -89 35.5t-31 102.5
q0 52 20.5 84.5t66 51t121.5 24.5l93 8v-67l-92 -8q-65 -6 -90 -24.5t-25 -61.5q0 -32 13.5 -48.5t40.5 -16.5q32 0 66.5 22t89.5 79l2 -76q-34 -37 -64 -60t-59.5 -34t-62.5 -11zM241 556q-8 0 -12 7l-85 123q-3 4 -1.5 7.5t6.5 3.5h76q10 0 13 -7l67 -123q5 -11 -6 -11
h-58z" />
    <glyph glyph-name="aacute" unicode="&#xe1;" horiz-adv-x="497" 
d="M357 0q-6 0 -8.5 4t-4.5 10q-1 8 -4.5 34t-4.5 47l-4 39v199q0 48 -19 68t-67 20q-86 0 -85 -60q0 -11 -10 -11h-73q-11 0 -12 19q-5 60 45 96t138 36q91 0 134.5 -41t43.5 -126v-212q0 -34 1.5 -61.5t4.5 -48.5q2 -12 -10 -12h-65zM165 -12q-58 0 -89 35.5t-31 102.5
q0 52 20.5 84.5t66 51t121.5 24.5l93 8v-67l-92 -8q-65 -6 -90 -24.5t-25 -61.5q0 -32 13.5 -48.5t40.5 -16.5q32 0 66.5 22t89.5 79l2 -76q-34 -37 -64 -60t-59.5 -34t-62.5 -11zM190 556q-11 0 -6 11l67 123q4 7 12 7h76q6 0 7.5 -3.5t-1.5 -7.5l-85 -123q-5 -7 -12 -7
h-58z" />
    <glyph glyph-name="acircumflex" unicode="&#xe2;" horiz-adv-x="497" 
d="M357 0q-6 0 -8.5 4t-4.5 10q-1 8 -4.5 34t-4.5 47l-4 39v199q0 48 -19 68t-67 20q-86 0 -85 -60q0 -11 -10 -11h-73q-11 0 -12 19q-5 60 45 96t138 36q91 0 134.5 -41t43.5 -126v-212q0 -34 1.5 -61.5t4.5 -48.5q2 -12 -10 -12h-65zM165 -12q-58 0 -89 35.5t-31 102.5
q0 52 20.5 84.5t66 51t121.5 24.5l93 8v-67l-92 -8q-65 -6 -90 -24.5t-25 -61.5q0 -32 13.5 -48.5t40.5 -16.5q32 0 66.5 22t89.5 79l2 -76q-34 -37 -64 -60t-59.5 -34t-62.5 -11zM125 551q-12 -6 -12 5v55q0 9 7 13l117 67q7 5 15 0l117 -67q7 -4 7 -13v-55q0 -11 -12 -5
l-120 60z" />
    <glyph glyph-name="atilde" unicode="&#xe3;" horiz-adv-x="497" 
d="M357 0q-6 0 -8.5 4t-4.5 10q-1 8 -4.5 34t-4.5 47l-4 39v199q0 48 -19 68t-67 20q-86 0 -85 -60q0 -11 -10 -11h-73q-11 0 -12 19q-5 60 45 96t138 36q91 0 134.5 -41t43.5 -126v-212q0 -34 1.5 -61.5t4.5 -48.5q2 -12 -10 -12h-65zM165 -12q-58 0 -89 35.5t-31 102.5
q0 52 20.5 84.5t66 51t121.5 24.5l93 8v-67l-92 -8q-65 -6 -90 -24.5t-25 -61.5q0 -32 13.5 -48.5t40.5 -16.5q32 0 66.5 22t89.5 79l2 -76q-34 -37 -64 -60t-59.5 -34t-62.5 -11zM295 566q-20 0 -36.5 7t-32 13t-34.5 6q-17 0 -36 -7t-30 -12q-13 -6 -13 6v51q0 9 6 13
q10 8 29.5 17t45.5 9q25 0 41.5 -6.5t30.5 -13t31 -6.5t36 7t30 12q13 6 13 -6v-50q0 -9 -6 -14q-10 -7 -29.5 -16.5t-45.5 -9.5z" />
    <glyph glyph-name="adieresis" unicode="&#xe4;" horiz-adv-x="497" 
d="M357 0q-6 0 -8.5 4t-4.5 10q-1 8 -4.5 34t-4.5 47l-4 39v199q0 48 -19 68t-67 20q-86 0 -85 -60q0 -11 -10 -11h-73q-11 0 -12 19q-5 60 45 96t138 36q91 0 134.5 -41t43.5 -126v-212q0 -34 1.5 -61.5t4.5 -48.5q2 -12 -10 -12h-65zM165 -12q-58 0 -89 35.5t-31 102.5
q0 52 20.5 84.5t66 51t121.5 24.5l93 8v-67l-92 -8q-65 -6 -90 -24.5t-25 -61.5q0 -32 13.5 -48.5t40.5 -16.5q32 0 66.5 22t89.5 79l2 -76q-34 -37 -64 -60t-59.5 -34t-62.5 -11zM157 568q-29 0 -42 15t-13 39v11q0 24 13 38.5t42 14.5q30 0 43 -14.5t13 -38.5v-11
q0 -24 -13 -39t-43 -15zM332 568q-29 0 -42 15t-13 39v11q0 24 13 38.5t42 14.5t42 -14.5t13 -38.5v-11q0 -24 -13 -39t-42 -15z" />
    <glyph glyph-name="aring" unicode="&#xe5;" horiz-adv-x="497" 
d="M357 0q-6 0 -8.5 4t-4.5 10q-1 8 -4.5 34t-4.5 47l-4 39v199q0 48 -19 68t-67 20q-86 0 -85 -60q0 -11 -10 -11h-73q-11 0 -12 19q-5 60 45 96t138 36q91 0 134.5 -41t43.5 -126v-212q0 -34 1.5 -61.5t4.5 -48.5q2 -12 -10 -12h-65zM165 -12q-58 0 -89 35.5t-31 102.5
q0 52 20.5 84.5t66 51t121.5 24.5l93 8v-67l-92 -8q-65 -6 -90 -24.5t-25 -61.5q0 -32 13.5 -48.5t40.5 -16.5q32 0 66.5 22t89.5 79l2 -76q-34 -37 -64 -60t-59.5 -34t-62.5 -11zM245 552q-52 0 -83 25.5t-31 73.5t30.5 73.5t83.5 25.5q52 0 83 -25.5t31 -73.5t-30.5 -73.5
t-83.5 -25.5zM245 606q27 0 38 12.5t11 32.5t-11 32.5t-38 12.5q-26 0 -37.5 -12.5t-11.5 -32.5t11.5 -32.5t37.5 -12.5z" />
    <glyph glyph-name="ae" unicode="&#xe6;" horiz-adv-x="781" 
d="M163 -12q-57 0 -87.5 35.5t-30.5 102.5q0 53 20.5 86.5t66.5 51.5t121 25l78 7v37q0 48 -19 68t-67 20q-43 0 -64.5 -15t-20.5 -45q0 -11 -10 -11h-73q-11 0 -12 19q-3 40 18 69.5t61 46t95 16.5q52 0 88.5 -16.5t56.5 -49.5q24 32 65 49t90 17q89 0 137.5 -50t48.5 -141
v-74q0 -10 -11 -10h-292v-36q0 -65 24.5 -93t79.5 -28q44 0 69 14.5t25 38.5q0 16 12 16h73q10 0 10 -22q0 -59 -52 -93.5t-143 -34.5q-68 0 -110.5 24t-61.5 73q-48 -50 -93.5 -73.5t-91.5 -23.5zM193 68q29 0 60 19t80 65q-1 11 -1.5 24t-0.5 25v25l-77 -7
q-65 -6 -90 -24.5t-25 -61.5q0 -32 13.5 -48.5t40.5 -16.5zM422 297h208v2q0 62 -24 91.5t-76 29.5q-53 0 -80.5 -30t-27.5 -92v-1z" />
    <glyph glyph-name="ccedilla" unicode="&#xe7;" horiz-adv-x="520" 
d="M267 -12q-102 0 -155 50.5t-53 145.5v121q0 95 54 145.5t156 50.5q61 0 104.5 -19t66.5 -52t23 -77q0 -22 -11 -22h-73q-10 0 -10 15q0 35 -27 53.5t-73 18.5q-58 0 -86.5 -29.5t-28.5 -92.5v-103q0 -62 28.5 -92t85.5 -30q47 0 73.5 20.5t26.5 50.5q0 16 10 16h73
q11 0 11 -10q0 -73 -50 -116.5t-145 -43.5zM250 -197q-11 0 -21.5 1t-22.5 3q-8 1 -8 9v39q0 9 8 8q7 -1 15 -1.5t14 -0.5q21 0 30.5 6.5t9.5 16.5v13q0 14 -8.5 19.5t-24.5 5.5h-23q-7 0 -7 7q0 5 0.5 10.5t1.5 9.5l23 76q2 6 10 6h52q9 0 5 -11l-19 -59h9q27 0 41 -17.5
t14 -46.5v-16q0 -40 -24.5 -59t-74.5 -19z" />
    <glyph glyph-name="egrave" unicode="&#xe8;" horiz-adv-x="522" 
d="M263 -12q-100 0 -152 46t-52 135v136q0 96 51.5 146t151.5 50t151.5 -49t51.5 -142v-78q0 -10 -10 -10h-302v-32q0 -63 27 -92t87 -29q45 0 69.5 14.5t24.5 43.5q0 11 11 11h74q8 0 10 -9q4 -67 -47.5 -104t-145.5 -37zM153 297h218v5q0 61 -27 89.5t-80 28.5
q-56 0 -83.5 -29.5t-27.5 -89.5v-4zM256 567q-8 0 -12 7l-85 123q-3 4 -1.5 7.5t6.5 3.5h76q10 0 13 -7l67 -123q5 -11 -6 -11h-58z" />
    <glyph glyph-name="eacute" unicode="&#xe9;" horiz-adv-x="522" 
d="M263 -12q-100 0 -152 46t-52 135v136q0 96 51.5 146t151.5 50t151.5 -49t51.5 -142v-78q0 -10 -10 -10h-302v-32q0 -63 27 -92t87 -29q45 0 69.5 14.5t24.5 43.5q0 11 11 11h74q8 0 10 -9q4 -67 -47.5 -104t-145.5 -37zM153 297h218v5q0 61 -27 89.5t-80 28.5
q-56 0 -83.5 -29.5t-27.5 -89.5v-4zM205 567q-11 0 -6 11l67 123q4 7 12 7h76q6 0 7.5 -3.5t-1.5 -7.5l-85 -123q-5 -7 -12 -7h-58z" />
    <glyph glyph-name="ecircumflex" unicode="&#xea;" horiz-adv-x="522" 
d="M263 -12q-100 0 -152 46t-52 135v136q0 96 51.5 146t151.5 50t151.5 -49t51.5 -142v-78q0 -10 -10 -10h-302v-32q0 -63 27 -92t87 -29q45 0 69.5 14.5t24.5 43.5q0 11 11 11h74q8 0 10 -9q4 -67 -47.5 -104t-145.5 -37zM153 297h218v5q0 61 -27 89.5t-80 28.5
q-56 0 -83.5 -29.5t-27.5 -89.5v-4zM140 562q-12 -6 -12 5v55q0 9 7 13l117 67q7 5 15 0l117 -67q7 -4 7 -13v-55q0 -11 -12 -5l-120 60z" />
    <glyph glyph-name="edieresis" unicode="&#xeb;" horiz-adv-x="522" 
d="M263 -12q-100 0 -152 46t-52 135v136q0 96 51.5 146t151.5 50t151.5 -49t51.5 -142v-78q0 -10 -10 -10h-302v-32q0 -63 27 -92t87 -29q45 0 69.5 14.5t24.5 43.5q0 11 11 11h74q8 0 10 -9q4 -67 -47.5 -104t-145.5 -37zM153 297h218v5q0 61 -27 89.5t-80 28.5
q-56 0 -83.5 -29.5t-27.5 -89.5v-4zM171 579q-29 0 -42 15t-13 39v11q0 24 13 38.5t42 14.5q30 0 43 -14.5t13 -38.5v-11q0 -24 -13 -39t-43 -15zM346 579q-29 0 -42 15t-13 39v11q0 24 13 38.5t42 14.5t42 -14.5t13 -38.5v-11q0 -24 -13 -39t-42 -15z" />
    <glyph glyph-name="igrave" unicode="&#xec;" horiz-adv-x="238" 
d="M82 0q-10 0 -10 11v468q0 10 10 10h74q11 0 11 -10v-468q0 -11 -11 -11h-74zM115 556q-8 0 -12 7l-85 123q-3 4 -1.5 7.5t6.5 3.5h76q10 0 13 -7l67 -123q5 -11 -6 -11h-58z" />
    <glyph glyph-name="iacute" unicode="&#xed;" horiz-adv-x="238" 
d="M82 0q-10 0 -10 11v468q0 10 10 10h74q11 0 11 -10v-468q0 -11 -11 -11h-74zM65 556q-11 0 -6 11l67 123q4 7 12 7h76q6 0 7.5 -3.5t-1.5 -7.5l-85 -123q-5 -7 -12 -7h-58z" />
    <glyph glyph-name="icircumflex" unicode="&#xee;" horiz-adv-x="238" 
d="M82 0q-10 0 -10 11v468q0 10 10 10h74q11 0 11 -10v-468q0 -11 -11 -11h-74zM0 551q-12 -6 -12 5v55q0 9 7 13l117 67q7 5 15 0l117 -67q7 -4 7 -13v-55q0 -11 -12 -5l-120 60z" />
    <glyph glyph-name="idieresis" unicode="&#xef;" horiz-adv-x="238" 
d="M82 0q-10 0 -10 11v468q0 10 10 10h74q11 0 11 -10v-468q0 -11 -11 -11h-74zM31 568q-29 0 -42 15t-13 39v11q0 24 13 38.5t42 14.5q30 0 43 -14.5t13 -38.5v-11q0 -24 -13 -39t-43 -15zM206 568q-29 0 -42 15t-13 39v11q0 24 13 38.5t42 14.5t42 -14.5t13 -38.5v-11
q0 -24 -13 -39t-42 -15z" />
    <glyph glyph-name="eth" unicode="&#xf0;" horiz-adv-x="533" 
d="M265 -12q-102 0 -154 47t-52 143v99q0 94 42.5 141t114.5 47q52 0 95.5 -19.5t75.5 -60.5v-91q-27 42 -67.5 65t-81.5 23q-40 0 -62 -28.5t-22 -88.5v-81q0 -62 27 -88.5t85 -26.5q59 0 87 33.5t28 97.5v108q6 63 -6.5 115.5t-40.5 93t-69.5 68.5t-92.5 40
q-12 3 -14.5 7.5t1.5 10.5l31 44q4 6 8.5 7t12.5 -1q82 -15 140.5 -64t90.5 -120t32 -154v-159q0 -100 -53.5 -154t-155.5 -54zM193 511q-8 -3 -13 7l-18 38q-3 8 6 12l266 124q8 4 13 -7l17 -38q3 -8 -6 -12z" />
    <glyph glyph-name="ntilde" unicode="&#xf1;" horiz-adv-x="557" 
d="M401 0q-11 0 -11 11v315q0 48 -19.5 70t-58.5 22q-38 0 -74.5 -22.5t-89.5 -74.5v80q32 35 62.5 57t61.5 32.5t66 10.5q72 0 109.5 -41.5t37.5 -124.5v-324q0 -11 -10 -11h-74zM82 0q-10 0 -10 11v355q0 27 -2.5 59t-4.5 51q-2 13 10 13h68q10 0 12 -10q2 -8 4 -24.5
t4 -34.5t2 -31l2 -31v-347q0 -11 -11 -11h-74zM332 566q-20 0 -36.5 7t-32 13t-34.5 6q-17 0 -36 -7t-30 -12q-13 -6 -13 6v51q0 9 6 13q10 8 29.5 17t45.5 9q25 0 41.5 -6.5t30.5 -13t31 -6.5t36 7t30 12q13 6 13 -6v-50q0 -9 -6 -14q-10 -7 -29.5 -16.5t-45.5 -9.5z" />
    <glyph glyph-name="ograve" unicode="&#xf2;" horiz-adv-x="538" 
d="M269 -12q-102 0 -156 49.5t-54 150.5v113q0 101 53.5 150.5t156.5 49.5t157 -49.5t54 -150.5v-113q0 -101 -53.5 -150.5t-157.5 -49.5zM269 71q61 0 88.5 31t27.5 95v96q0 63 -27.5 94t-88.5 31t-88 -31t-27 -94v-96q0 -64 27 -95t88 -31zM265 556q-8 0 -12 7l-85 123
q-3 4 -1.5 7.5t6.5 3.5h76q10 0 13 -7l67 -123q5 -11 -6 -11h-58z" />
    <glyph glyph-name="oacute" unicode="&#xf3;" horiz-adv-x="538" 
d="M269 -12q-102 0 -156 49.5t-54 150.5v113q0 101 53.5 150.5t156.5 49.5t157 -49.5t54 -150.5v-113q0 -101 -53.5 -150.5t-157.5 -49.5zM269 71q61 0 88.5 31t27.5 95v96q0 63 -27.5 94t-88.5 31t-88 -31t-27 -94v-96q0 -64 27 -95t88 -31zM214 556q-11 0 -6 11l67 123
q4 7 12 7h76q6 0 7.5 -3.5t-1.5 -7.5l-85 -123q-5 -7 -12 -7h-58z" />
    <glyph glyph-name="ocircumflex" unicode="&#xf4;" horiz-adv-x="538" 
d="M269 -12q-102 0 -156 49.5t-54 150.5v113q0 101 53.5 150.5t156.5 49.5t157 -49.5t54 -150.5v-113q0 -101 -53.5 -150.5t-157.5 -49.5zM269 71q61 0 88.5 31t27.5 95v96q0 63 -27.5 94t-88.5 31t-88 -31t-27 -94v-96q0 -64 27 -95t88 -31zM150 551q-12 -6 -12 5v55
q0 9 7 13l117 67q7 5 15 0l117 -67q7 -4 7 -13v-55q0 -11 -12 -5l-120 60z" />
    <glyph glyph-name="otilde" unicode="&#xf5;" horiz-adv-x="538" 
d="M269 -12q-102 0 -156 49.5t-54 150.5v113q0 101 53.5 150.5t156.5 49.5t157 -49.5t54 -150.5v-113q0 -101 -53.5 -150.5t-157.5 -49.5zM269 71q61 0 88.5 31t27.5 95v96q0 63 -27.5 94t-88.5 31t-88 -31t-27 -94v-96q0 -64 27 -95t88 -31zM320 566q-20 0 -36.5 7t-32 13
t-34.5 6q-17 0 -36 -7t-30 -12q-13 -6 -13 6v51q0 9 6 13q10 8 29.5 17t45.5 9q25 0 41.5 -6.5t30.5 -13t31 -6.5t36 7t30 12q13 6 13 -6v-50q0 -9 -6 -14q-10 -7 -29.5 -16.5t-45.5 -9.5z" />
    <glyph glyph-name="odieresis" unicode="&#xf6;" horiz-adv-x="538" 
d="M269 -12q-102 0 -156 49.5t-54 150.5v113q0 101 53.5 150.5t156.5 49.5t157 -49.5t54 -150.5v-113q0 -101 -53.5 -150.5t-157.5 -49.5zM269 71q61 0 88.5 31t27.5 95v96q0 63 -27.5 94t-88.5 31t-88 -31t-27 -94v-96q0 -64 27 -95t88 -31zM181 568q-29 0 -42 15t-13 39
v11q0 24 13 38.5t42 14.5q30 0 43 -14.5t13 -38.5v-11q0 -24 -13 -39t-43 -15zM356 568q-29 0 -42 15t-13 39v11q0 24 13 38.5t42 14.5t42 -14.5t13 -38.5v-11q0 -24 -13 -39t-42 -15z" />
    <glyph glyph-name="divide" unicode="&#xf7;" horiz-adv-x="600" 
d="M101 261q-10 0 -10 11v57q0 11 10 11h398q10 0 10 -11v-57q0 -11 -10 -11h-398zM300 104q-27 0 -40.5 13t-13.5 33v17q0 21 13.5 34t40.5 13q28 0 41.5 -13t13.5 -34v-17q0 -20 -13.5 -33t-41.5 -13zM300 386q-27 0 -40.5 13t-13.5 33v17q0 21 13.5 34t40.5 13
q28 0 41.5 -13t13.5 -34v-17q0 -20 -13.5 -33t-41.5 -13z" />
    <glyph glyph-name="oslash" unicode="&#xf8;" horiz-adv-x="538" 
d="M15 -51q-6 0 -8 4t2 9l95 126l25 28l225 299l30 46l54 72q5 6 13 6h72q6 0 8 -3.5t-2 -8.5l-89 -119l-39 -47l-214 -284l-29 -45l-58 -77q-4 -6 -13 -6h-72zM269 -12q-102 0 -156 49.5t-54 150.5v113q0 101 53.5 150.5t156.5 49.5t157 -49.5t54 -150.5v-113
q0 -101 -53.5 -150.5t-157.5 -49.5zM269 71q61 0 88.5 31t27.5 95v96q0 63 -27.5 94t-88.5 31t-88 -31t-27 -94v-96q0 -64 27 -95t88 -31z" />
    <glyph glyph-name="ugrave" unicode="&#xf9;" horiz-adv-x="543" 
d="M204 -12q-64 0 -98 42.5t-34 123.5v325q0 10 10 10h74q11 0 11 -10v-316q0 -47 16.5 -69.5t51.5 -22.5q36 0 72 22.5t88 75.5v-82q-31 -31 -62.5 -53.5t-63 -34t-65.5 -11.5zM404 0q-12 0 -13 10q-3 19 -5 39t-3 41l-6 44v345q0 10 10 10h74q11 0 11 -10v-356
q0 -28 1.5 -56.5t4.5 -55.5q2 -11 -11 -11h-63zM267 556q-8 0 -12 7l-85 123q-3 4 -1.5 7.5t6.5 3.5h76q10 0 13 -7l67 -123q5 -11 -6 -11h-58z" />
    <glyph glyph-name="uacute" unicode="&#xfa;" horiz-adv-x="543" 
d="M204 -12q-64 0 -98 42.5t-34 123.5v325q0 10 10 10h74q11 0 11 -10v-316q0 -47 16.5 -69.5t51.5 -22.5q36 0 72 22.5t88 75.5v-82q-31 -31 -62.5 -53.5t-63 -34t-65.5 -11.5zM404 0q-12 0 -13 10q-3 19 -5 39t-3 41l-6 44v345q0 10 10 10h74q11 0 11 -10v-356
q0 -28 1.5 -56.5t4.5 -55.5q2 -11 -11 -11h-63zM217 556q-11 0 -6 11l67 123q4 7 12 7h76q6 0 7.5 -3.5t-1.5 -7.5l-85 -123q-5 -7 -12 -7h-58z" />
    <glyph glyph-name="ucircumflex" unicode="&#xfb;" horiz-adv-x="543" 
d="M204 -12q-64 0 -98 42.5t-34 123.5v325q0 10 10 10h74q11 0 11 -10v-316q0 -47 16.5 -69.5t51.5 -22.5q36 0 72 22.5t88 75.5v-82q-31 -31 -62.5 -53.5t-63 -34t-65.5 -11.5zM404 0q-12 0 -13 10q-3 19 -5 39t-3 41l-6 44v345q0 10 10 10h74q11 0 11 -10v-356
q0 -28 1.5 -56.5t4.5 -55.5q2 -11 -11 -11h-63zM152 551q-12 -6 -12 5v55q0 9 7 13l117 67q7 5 15 0l117 -67q7 -4 7 -13v-55q0 -11 -12 -5l-120 60z" />
    <glyph glyph-name="udieresis" unicode="&#xfc;" horiz-adv-x="543" 
d="M204 -12q-64 0 -98 42.5t-34 123.5v325q0 10 10 10h74q11 0 11 -10v-316q0 -47 16.5 -69.5t51.5 -22.5q36 0 72 22.5t88 75.5v-82q-31 -31 -62.5 -53.5t-63 -34t-65.5 -11.5zM404 0q-12 0 -13 10q-3 19 -5 39t-3 41l-6 44v345q0 10 10 10h74q11 0 11 -10v-356
q0 -28 1.5 -56.5t4.5 -55.5q2 -11 -11 -11h-63zM183 568q-29 0 -42 15t-13 39v11q0 24 13 38.5t42 14.5q30 0 43 -14.5t13 -38.5v-11q0 -24 -13 -39t-43 -15zM358 568q-29 0 -42 15t-13 39v11q0 24 13 38.5t42 14.5t42 -14.5t13 -38.5v-11q0 -24 -13 -39t-42 -15z" />
    <glyph glyph-name="yacute" unicode="&#xfd;" horiz-adv-x="502" 
d="M144 -185q-12 0 -7 13l70 177l-184 472q-5 12 7 12h81q8 0 11 -8l85 -231q12 -31 23 -64.5t21 -66.5h2q10 33 22 66t23 65l84 231q3 8 13 8h77q13 0 8 -12l-251 -654q-3 -8 -11 -8h-74zM194 556q-11 0 -6 11l67 123q4 7 12 7h76q6 0 7.5 -3.5t-1.5 -7.5l-85 -123
q-5 -7 -12 -7h-58z" />
    <glyph glyph-name="thorn" unicode="&#xfe;" horiz-adv-x="538" 
d="M82 -185q-10 0 -10 11v846q0 11 10 11h74q11 0 11 -11v-241q42 37 80 53.5t81 16.5q74 0 111.5 -45t37.5 -138v-129q0 -98 -45.5 -149.5t-132.5 -51.5q-33 0 -69.5 8t-62.5 21v-191q0 -11 -11 -11h-74zM276 70q55 0 80.5 32.5t25.5 97.5v108q0 57 -19.5 83.5t-59.5 26.5
q-30 0 -60.5 -16t-75.5 -55v-251q25 -13 54.5 -19.5t54.5 -6.5z" />
    <glyph glyph-name="ydieresis" unicode="&#xff;" horiz-adv-x="502" 
d="M144 -185q-12 0 -7 13l70 177l-184 472q-5 12 7 12h81q8 0 11 -8l85 -231q12 -31 23 -64.5t21 -66.5h2q10 33 22 66t23 65l84 231q3 8 13 8h77q13 0 8 -12l-251 -654q-3 -8 -11 -8h-74zM161 568q-29 0 -42 15t-13 39v11q0 24 13 38.5t42 14.5q30 0 43 -14.5t13 -38.5v-11
q0 -24 -13 -39t-43 -15zM336 568q-29 0 -42 15t-13 39v11q0 24 13 38.5t42 14.5t42 -14.5t13 -38.5v-11q0 -24 -13 -39t-42 -15z" />
    <glyph glyph-name="Amacron" unicode="&#x100;" horiz-adv-x="568" 
d="M9 0q-12 0 -9 12l220 635q3 8 12 8h101q10 0 13 -8l222 -635q3 -12 -9 -12h-81q-10 0 -13 8l-143 439q-10 30 -20 61t-21 62h-1q-9 -30 -19 -60.5t-20 -60.5l-142 -440q-3 -9 -12 -9h-78zM128 148l21 82h264l22 -82h-307zM173 717q-11 0 -11 10v57q0 10 11 10h219
q10 0 10 -10v-57q0 -10 -10 -10h-219z" />
    <glyph glyph-name="amacron" unicode="&#x101;" horiz-adv-x="497" 
d="M357 0q-6 0 -8.5 4t-4.5 10q-1 8 -4.5 34t-4.5 47l-4 39v199q0 48 -19 68t-67 20q-86 0 -85 -60q0 -11 -10 -11h-73q-11 0 -12 19q-5 60 45 96t138 36q91 0 134.5 -41t43.5 -126v-212q0 -34 1.5 -61.5t4.5 -48.5q2 -12 -10 -12h-65zM165 -12q-58 0 -89 35.5t-31 102.5
q0 52 20.5 84.5t66 51t121.5 24.5l93 8v-67l-92 -8q-65 -6 -90 -24.5t-25 -61.5q0 -32 13.5 -48.5t40.5 -16.5q32 0 66.5 22t89.5 79l2 -76q-34 -37 -64 -60t-59.5 -34t-62.5 -11zM145 570q-11 0 -11 11v56q0 10 11 10h199q10 0 10 -10v-56q0 -11 -10 -11h-199z" />
    <glyph glyph-name="Abreve" unicode="&#x102;" horiz-adv-x="568" 
d="M9 0q-12 0 -9 12l220 635q3 8 12 8h101q10 0 13 -8l222 -635q3 -12 -9 -12h-81q-10 0 -13 8l-143 439q-10 30 -20 61t-21 62h-1q-9 -30 -19 -60.5t-20 -60.5l-142 -440q-3 -9 -12 -9h-78zM128 148l21 82h264l22 -82h-307zM284 715q-46 0 -83 15.5t-50 26.5q-6 4 -6 12v58
q0 7 3 9t9 -2q19 -11 54 -27.5t73 -16.5t72.5 16.5t54.5 27.5q5 4 8 2t3 -9v-58q0 -8 -5 -12q-14 -11 -51 -26.5t-82 -15.5z" />
    <glyph glyph-name="abreve" unicode="&#x103;" horiz-adv-x="497" 
d="M357 0q-6 0 -8.5 4t-4.5 10q-1 8 -4.5 34t-4.5 47l-4 39v199q0 48 -19 68t-67 20q-86 0 -85 -60q0 -11 -10 -11h-73q-11 0 -12 19q-5 60 45 96t138 36q91 0 134.5 -41t43.5 -126v-212q0 -34 1.5 -61.5t4.5 -48.5q2 -12 -10 -12h-65zM165 -12q-58 0 -89 35.5t-31 102.5
q0 52 20.5 84.5t66 51t121.5 24.5l93 8v-67l-92 -8q-65 -6 -90 -24.5t-25 -61.5q0 -32 13.5 -48.5t40.5 -16.5q32 0 66.5 22t89.5 79l2 -76q-34 -37 -64 -60t-59.5 -34t-62.5 -11zM245 556q-34 0 -58.5 9.5t-40 21t-23.5 19.5q-4 4 -4 12v58q0 6 3 8.5t9 -2.5q14 -14 44 -32
t70 -18q41 0 71 18t43 32q6 5 9 2.5t3 -8.5v-58q0 -4 -1 -7t-3 -6q-8 -7 -23.5 -18.5t-39.5 -21t-59 -9.5z" />
    <glyph glyph-name="Aogonek" unicode="&#x104;" horiz-adv-x="568" 
d="M9 0q-12 0 -9 12l220 635q3 8 12 8h101q10 0 13 -8l222 -635q3 -12 -9 -12h-81q-10 0 -13 8l-143 439q-10 30 -20 61t-21 62h-1q-9 -30 -19 -60.5t-20 -60.5l-142 -440q-3 -9 -12 -9h-78zM128 148l21 82h264l22 -82h-307zM518 -197q-51 0 -76 22.5t-25 59.5v11
q0 42 31.5 76.5t85.5 51.5l19 -12v-11q-28 -13 -43 -36t-15 -48v-9q0 -35 40 -35h13.5t12.5 1q9 1 9 -7v-50q0 -4 -1.5 -6.5t-6.5 -3.5q-11 -2 -22.5 -3t-21.5 -1z" />
    <glyph glyph-name="aogonek" unicode="&#x105;" horiz-adv-x="497" 
d="M357 0q-6 0 -8.5 4t-4.5 10q-1 8 -4.5 34t-4.5 47l-4 39v199q0 48 -19 68t-67 20q-86 0 -85 -60q0 -11 -10 -11h-73q-11 0 -12 19q-5 60 45 96t138 36q91 0 134.5 -41t43.5 -126v-212q0 -34 1.5 -61.5t4.5 -48.5q2 -12 -10 -12h-65zM165 -12q-58 0 -89 35.5t-31 102.5
q0 52 20.5 84.5t66 51t121.5 24.5l93 8v-67l-92 -8q-65 -6 -90 -24.5t-25 -61.5q0 -32 13.5 -48.5t40.5 -16.5q32 0 66.5 22t89.5 79l2 -76q-34 -37 -64 -60t-59.5 -34t-62.5 -11zM392 -197q-51 0 -76 22.5t-25 59.5v11q0 42 31.5 76.5t85.5 51.5l19 -12v-11
q-28 -13 -43 -36t-15 -48v-9q0 -35 40 -35h13.5t12.5 1q9 1 9 -7v-50q0 -4 -1.5 -6.5t-6.5 -3.5q-11 -2 -22.5 -3t-21.5 -1z" />
    <glyph glyph-name="Cacute" unicode="&#x106;" horiz-adv-x="636" 
d="M321 -12q-123 0 -187 61.5t-64 177.5v201q0 116 64.5 177.5t187.5 61.5q80 0 139.5 -27t89 -77t19.5 -120q-1 -5 -3 -9.5t-8 -4.5h-75q-11 0 -10 11q3 68 -35.5 105.5t-115.5 37.5q-76 0 -117 -39.5t-41 -115.5v-201q0 -76 41 -115.5t117 -39.5q77 0 118 38t33 105
q-1 11 10 11h74q10 0 12 -14q6 -68 -23.5 -118t-87.5 -78t-138 -28zM266 710q-5 0 -6 3t1 7l57 104q4 8 11 8h78q6 0 7.5 -4t-2.5 -9l-74 -103q-4 -6 -11 -6h-61z" />
    <glyph glyph-name="cacute" unicode="&#x107;" horiz-adv-x="520" 
d="M267 -12q-102 0 -155 50.5t-53 145.5v121q0 95 54 145.5t156 50.5q61 0 104.5 -19t66.5 -52t23 -77q0 -22 -11 -22h-73q-10 0 -10 15q0 35 -27 53.5t-73 18.5q-58 0 -86.5 -29.5t-28.5 -92.5v-103q0 -62 28.5 -92t85.5 -30q47 0 73.5 20.5t26.5 50.5q0 16 10 16h73
q11 0 11 -10q0 -73 -50 -116.5t-145 -43.5zM206 556q-11 0 -6 11l67 123q4 7 12 7h76q6 0 7.5 -3.5t-1.5 -7.5l-85 -123q-5 -7 -12 -7h-58z" />
    <glyph glyph-name="Cdotaccent" unicode="&#x10a;" horiz-adv-x="636" 
d="M321 -12q-123 0 -187 61.5t-64 177.5v201q0 116 64.5 177.5t187.5 61.5q80 0 139.5 -27t89 -77t19.5 -120q-1 -5 -3 -9.5t-8 -4.5h-75q-11 0 -10 11q3 68 -35.5 105.5t-115.5 37.5q-76 0 -117 -39.5t-41 -115.5v-201q0 -76 41 -115.5t117 -39.5q77 0 118 38t33 105
q-1 11 10 11h74q10 0 12 -14q6 -68 -23.5 -118t-87.5 -78t-138 -28zM318 724q-30 0 -44.5 16t-14.5 42v11q0 26 14.5 42t44.5 16q31 0 45 -16t14 -42v-11q0 -26 -14 -42t-45 -16z" />
    <glyph glyph-name="cdotaccent" unicode="&#x10b;" horiz-adv-x="520" 
d="M267 -12q-102 0 -155 50.5t-53 145.5v121q0 95 54 145.5t156 50.5q61 0 104.5 -19t66.5 -52t23 -77q0 -22 -11 -22h-73q-10 0 -10 15q0 35 -27 53.5t-73 18.5q-58 0 -86.5 -29.5t-28.5 -92.5v-103q0 -62 28.5 -92t85.5 -30q47 0 73.5 20.5t26.5 50.5q0 16 10 16h73
q11 0 11 -10q0 -73 -50 -116.5t-145 -43.5zM260 568q-30 0 -44.5 16t-14.5 42v11q0 26 14.5 42t44.5 16q31 0 45 -16t14 -42v-11q0 -26 -14 -42t-45 -16z" />
    <glyph glyph-name="Ccaron" unicode="&#x10c;" horiz-adv-x="636" 
d="M321 -12q-123 0 -187 61.5t-64 177.5v201q0 116 64.5 177.5t187.5 61.5q80 0 139.5 -27t89 -77t19.5 -120q-1 -5 -3 -9.5t-8 -4.5h-75q-11 0 -10 11q3 68 -35.5 105.5t-115.5 37.5q-76 0 -117 -39.5t-41 -115.5v-201q0 -76 41 -115.5t117 -39.5q77 0 118 38t33 105
q-1 11 10 11h74q10 0 12 -14q6 -68 -23.5 -118t-87.5 -78t-138 -28zM311 717l-127 57q-7 3 -7 10v54q0 12 11 7l130 -48l130 48q12 5 12 -7v-54q0 -7 -7 -10l-127 -57q-8 -3 -15 0z" />
    <glyph glyph-name="ccaron" unicode="&#x10d;" horiz-adv-x="520" 
d="M267 -12q-102 0 -155 50.5t-53 145.5v121q0 95 54 145.5t156 50.5q61 0 104.5 -19t66.5 -52t23 -77q0 -22 -11 -22h-73q-10 0 -10 15q0 35 -27 53.5t-73 18.5q-58 0 -86.5 -29.5t-28.5 -92.5v-103q0 -62 28.5 -92t85.5 -30q47 0 73.5 20.5t26.5 50.5q0 16 10 16h73
q11 0 11 -10q0 -73 -50 -116.5t-145 -43.5zM253 551l-117 67q-7 4 -7 14v54q0 11 12 5l119 -60l120 60q12 6 12 -5v-54q0 -10 -7 -14l-117 -67q-8 -5 -15 0z" />
    <glyph glyph-name="Dcaron" unicode="&#x10e;" horiz-adv-x="643" 
d="M92 0q-10 0 -10 11v633q0 11 10 11h183q155 0 231 -71.5t76 -216.5v-53q0 -158 -76 -236t-231 -78h-183zM177 81h91q113 0 165.5 56t52.5 173v62q0 103 -52.5 152.5t-165.5 49.5h-91v-493zM287 717l-127 57q-7 3 -7 10v54q0 12 11 7l130 -48l130 48q12 5 12 -7v-54
q0 -7 -7 -10l-127 -57q-8 -3 -15 0z" />
    <glyph glyph-name="dcaron" unicode="&#x10f;" horiz-adv-x="544" 
d="M205 -12q-70 0 -107 46t-37 137v129q0 97 47.5 149t132.5 52q38 0 80.5 -10t65.5 -26l5 -80q-31 17 -67 25.5t-64 8.5q-53 0 -79 -32.5t-26 -96.5v-118q0 -50 19.5 -75.5t58.5 -25.5q24 0 47.5 9.5t51 31t63.5 57.5v-81q-33 -33 -63 -55.5t-61 -33.5t-67 -11zM402 0
q-11 0 -12 11q-2 15 -5 38t-2 38l-6 47v538q0 11 10 11h74q11 0 11 -11v-557q0 -15 0.5 -34.5t2 -37.5t3.5 -29q3 -14 -10 -14h-66zM539 528q-11 0 -9 10l14 57q-15 5 -22 13.5t-7 24.5v24q0 17 12.5 27.5t34.5 10.5q26 0 38 -10t12 -27v-26q0 -12 -1.5 -23t-6.5 -23
l-18 -50q-3 -8 -12 -8h-35z" />
    <glyph glyph-name="Dcroat" unicode="&#x110;" horiz-adv-x="643" 
d="M14 294q-10 0 -10 11v55q0 11 10 11h68h233q11 0 11 -11v-55q0 -11 -11 -11h-301zM92 0q-10 0 -10 11v633q0 11 10 11h183q155 0 231 -71.5t76 -216.5v-53q0 -158 -76 -236t-231 -78h-183zM177 81h91q113 0 165.5 56t52.5 173v62q0 103 -52.5 152.5t-165.5 49.5h-91v-493
z" />
    <glyph glyph-name="dcroat" unicode="&#x111;" horiz-adv-x="544" 
d="M276 552q-11 0 -11 11v52q0 11 11 11h263q11 0 11 -11v-52q0 -11 -11 -11h-67h-196zM205 -12q-70 0 -107 46t-37 137v129q0 97 47.5 149t132.5 52q38 0 80.5 -10t65.5 -26l5 -80q-31 17 -67 25.5t-64 8.5q-53 0 -79 -32.5t-26 -96.5v-118q0 -50 19.5 -75.5t58.5 -25.5
q24 0 47.5 9.5t51 31t63.5 57.5v-81q-33 -33 -63 -55.5t-61 -33.5t-67 -11zM402 0q-11 0 -12 11q-2 15 -5 38t-2 38l-6 47v538q0 11 10 11h74q11 0 11 -11v-557q0 -15 0.5 -34.5t2 -37.5t3.5 -29q3 -14 -10 -14h-66z" />
    <glyph glyph-name="Emacron" unicode="&#x112;" horiz-adv-x="535" 
d="M92 0q-10 0 -10 11v633q0 11 10 11h364q10 0 10 -11v-64q0 -11 -10 -11h-279v-195h255q10 0 10 -11v-61q0 -11 -10 -11h-255v-205h279q10 0 10 -11v-64q0 -11 -10 -11h-364zM170 717q-11 0 -11 10v57q0 10 11 10h219q10 0 10 -10v-57q0 -10 -10 -10h-219z" />
    <glyph glyph-name="emacron" unicode="&#x113;" horiz-adv-x="522" 
d="M263 -12q-100 0 -152 46t-52 135v136q0 96 51.5 146t151.5 50t151.5 -49t51.5 -142v-78q0 -10 -10 -10h-302v-32q0 -63 27 -92t87 -29q45 0 69.5 14.5t24.5 43.5q0 11 11 11h74q8 0 10 -9q4 -67 -47.5 -104t-145.5 -37zM153 297h218v5q0 61 -27 89.5t-80 28.5
q-56 0 -83.5 -29.5t-27.5 -89.5v-4zM160 581q-11 0 -11 11v56q0 10 11 10h199q10 0 10 -10v-56q0 -11 -10 -11h-199z" />
    <glyph glyph-name="Edotaccent" unicode="&#x116;" horiz-adv-x="535" 
d="M92 0q-10 0 -10 11v633q0 11 10 11h364q10 0 10 -11v-64q0 -11 -10 -11h-279v-195h255q10 0 10 -11v-61q0 -11 -10 -11h-255v-205h279q10 0 10 -11v-64q0 -11 -10 -11h-364zM279 724q-30 0 -44.5 16t-14.5 42v11q0 26 14.5 42t44.5 16q31 0 45 -16t14 -42v-11
q0 -26 -14 -42t-45 -16z" />
    <glyph glyph-name="edotaccent" unicode="&#x117;" horiz-adv-x="522" 
d="M263 -12q-100 0 -152 46t-52 135v136q0 96 51.5 146t151.5 50t151.5 -49t51.5 -142v-78q0 -10 -10 -10h-302v-32q0 -63 27 -92t87 -29q45 0 69.5 14.5t24.5 43.5q0 11 11 11h74q8 0 10 -9q4 -67 -47.5 -104t-145.5 -37zM153 297h218v5q0 61 -27 89.5t-80 28.5
q-56 0 -83.5 -29.5t-27.5 -89.5v-4zM260 579q-30 0 -44.5 16t-14.5 42v11q0 26 14.5 42t44.5 16q31 0 45 -16t14 -42v-11q0 -26 -14 -42t-45 -16z" />
    <glyph glyph-name="Eogonek" unicode="&#x118;" horiz-adv-x="535" 
d="M92 0q-10 0 -10 11v633q0 11 10 11h364q10 0 10 -11v-64q0 -11 -10 -11h-279v-195h255q10 0 10 -11v-61q0 -11 -10 -11h-255v-205h279q10 0 10 -11v-64q0 -11 -10 -11h-364zM401 -197q-51 0 -76 22.5t-25 59.5v11q0 42 31.5 76.5t85.5 51.5l19 -12v-11q-28 -13 -43 -36
t-15 -48v-9q0 -35 40 -35h13.5t12.5 1q9 1 9 -7v-50q0 -4 -1.5 -6.5t-6.5 -3.5q-11 -2 -22.5 -3t-21.5 -1z" />
    <glyph glyph-name="eogonek" unicode="&#x119;" horiz-adv-x="522" 
d="M263 -12q-100 0 -152 46t-52 135v136q0 96 51.5 146t151.5 50t151.5 -49t51.5 -142v-78q0 -10 -10 -10h-302v-32q0 -63 27 -92t87 -29q45 0 69.5 14.5t24.5 43.5q0 11 11 11h74q8 0 10 -9q4 -67 -47.5 -104t-145.5 -37zM153 297h218v5q0 61 -27 89.5t-80 28.5
q-56 0 -83.5 -29.5t-27.5 -89.5v-4zM327 -196q-51 0 -76 22.5t-25 59.5v11q0 42 31.5 76.5t85.5 51.5l19 -12v-11q-28 -13 -43 -36t-15 -48v-9q0 -35 40 -35h13.5t12.5 1q9 1 9 -7v-50q0 -4 -1.5 -6.5t-6.5 -3.5q-11 -2 -22.5 -3t-21.5 -1z" />
    <glyph glyph-name="Ecaron" unicode="&#x11a;" horiz-adv-x="535" 
d="M92 0q-10 0 -10 11v633q0 11 10 11h364q10 0 10 -11v-64q0 -11 -10 -11h-279v-195h255q10 0 10 -11v-61q0 -11 -10 -11h-255v-205h279q10 0 10 -11v-64q0 -11 -10 -11h-364zM272 717l-127 57q-7 3 -7 10v54q0 12 11 7l130 -48l130 48q12 5 12 -7v-54q0 -7 -7 -10
l-127 -57q-8 -3 -15 0z" />
    <glyph glyph-name="ecaron" unicode="&#x11b;" horiz-adv-x="522" 
d="M263 -12q-100 0 -152 46t-52 135v136q0 96 51.5 146t151.5 50t151.5 -49t51.5 -142v-78q0 -10 -10 -10h-302v-32q0 -63 27 -92t87 -29q45 0 69.5 14.5t24.5 43.5q0 11 11 11h74q8 0 10 -9q4 -67 -47.5 -104t-145.5 -37zM153 297h218v5q0 61 -27 89.5t-80 28.5
q-56 0 -83.5 -29.5t-27.5 -89.5v-4zM252 562l-117 67q-7 4 -7 14v54q0 11 12 5l119 -60l120 60q12 6 12 -5v-54q0 -10 -7 -14l-117 -67q-8 -5 -15 0z" />
    <glyph glyph-name="Gbreve" unicode="&#x11e;" horiz-adv-x="655" 
d="M306 -12q-73 0 -126 28t-81.5 81.5t-28.5 129.5v201q0 113 68 176t187 63q81 0 139.5 -27t87 -75.5t18.5 -113.5q-1 -11 -11 -11h-75q-11 0 -9 11q3 43 -13.5 72.5t-50 44.5t-84.5 15q-80 0 -121 -38.5t-41 -116.5v-201q0 -79 39 -117t117 -38q80 0 121.5 38.5
t41.5 110.5v37h-150q-11 0 -11 10v58q0 11 11 11h229q10 0 10 -11v-193q0 -32 1.5 -62.5t6.5 -58.5q1 -6 -2 -9t-8 -3h-61q-4 0 -7 2t-4 7q-2 12 -4 28.5t-3 33.5h-1q-18 -27 -46 -45.5t-63 -28t-76 -9.5zM313 715q-46 0 -83 15.5t-50 26.5q-6 4 -6 12v58q0 7 3 9t9 -2
q19 -11 54 -27.5t73 -16.5t72.5 16.5t54.5 27.5q5 4 8 2t3 -9v-58q0 -8 -5 -12q-14 -11 -51 -26.5t-82 -15.5z" />
    <glyph glyph-name="gbreve" unicode="&#x11f;" horiz-adv-x="518" 
d="M255 -197q-119 0 -171 31.5t-52 94.5q0 40 19 70.5t60 49.5l74 -27q-29 -9 -42 -28.5t-13 -45.5q0 -38 28.5 -52.5t100.5 -14.5q77 0 105.5 15t28.5 55q0 27 -13 40t-43 14l-184 11q-33 2 -58.5 24t-25.5 68q0 32 15 54t51 49l59 -33q-21 -8 -30.5 -20.5t-9.5 -28.5
q0 -17 11 -24t35 -9l165 -10q62 -4 92 -38t30 -100q0 -77 -55.5 -111t-176.5 -34zM263 158q-95 0 -141 42.5t-46 129.5t46.5 129t143.5 42q94 0 139 -42.5t45 -129.5t-45 -129t-142 -42zM263 238q53 0 73.5 20.5t20.5 70.5q0 51 -21 72t-73 21t-72.5 -21t-20.5 -72
q0 -50 20.5 -70.5t72.5 -20.5zM267 556q-34 0 -58.5 9.5t-40 21t-23.5 19.5q-4 4 -4 12v58q0 6 3 8.5t9 -2.5q14 -14 44 -32t70 -18q41 0 71 18t43 32q6 5 9 2.5t3 -8.5v-58q0 -4 -1 -7t-3 -6q-8 -7 -23.5 -18.5t-39.5 -21t-59 -9.5z" />
    <glyph glyph-name="Gdotaccent" unicode="&#x120;" horiz-adv-x="655" 
d="M306 -12q-73 0 -126 28t-81.5 81.5t-28.5 129.5v201q0 113 68 176t187 63q81 0 139.5 -27t87 -75.5t18.5 -113.5q-1 -11 -11 -11h-75q-11 0 -9 11q3 43 -13.5 72.5t-50 44.5t-84.5 15q-80 0 -121 -38.5t-41 -116.5v-201q0 -79 39 -117t117 -38q80 0 121.5 38.5
t41.5 110.5v37h-150q-11 0 -11 10v58q0 11 11 11h229q10 0 10 -11v-193q0 -32 1.5 -62.5t6.5 -58.5q1 -6 -2 -9t-8 -3h-61q-4 0 -7 2t-4 7q-2 12 -4 28.5t-3 33.5h-1q-18 -27 -46 -45.5t-63 -28t-76 -9.5zM313 724q-30 0 -44.5 16t-14.5 42v11q0 26 14.5 42t44.5 16
q31 0 45 -16t14 -42v-11q0 -26 -14 -42t-45 -16z" />
    <glyph glyph-name="gdotaccent" unicode="&#x121;" horiz-adv-x="518" 
d="M255 -197q-119 0 -171 31.5t-52 94.5q0 40 19 70.5t60 49.5l74 -27q-29 -9 -42 -28.5t-13 -45.5q0 -38 28.5 -52.5t100.5 -14.5q77 0 105.5 15t28.5 55q0 27 -13 40t-43 14l-184 11q-33 2 -58.5 24t-25.5 68q0 32 15 54t51 49l59 -33q-21 -8 -30.5 -20.5t-9.5 -28.5
q0 -17 11 -24t35 -9l165 -10q62 -4 92 -38t30 -100q0 -77 -55.5 -111t-176.5 -34zM263 158q-95 0 -141 42.5t-46 129.5t46.5 129t143.5 42q94 0 139 -42.5t45 -129.5t-45 -129t-142 -42zM263 238q53 0 73.5 20.5t20.5 70.5q0 51 -21 72t-73 21t-72.5 -21t-20.5 -72
q0 -50 20.5 -70.5t72.5 -20.5zM267 568q-30 0 -44.5 16t-14.5 42v11q0 26 14.5 42t44.5 16q31 0 45 -16t14 -42v-11q0 -26 -14 -42t-45 -16z" />
    <glyph glyph-name="uni0122" unicode="&#x122;" horiz-adv-x="655" 
d="M306 -12q-73 0 -126 28t-81.5 81.5t-28.5 129.5v201q0 113 68 176t187 63q81 0 139.5 -27t87 -75.5t18.5 -113.5q-1 -11 -11 -11h-75q-11 0 -9 11q3 43 -13.5 72.5t-50 44.5t-84.5 15q-80 0 -121 -38.5t-41 -116.5v-201q0 -79 39 -117t117 -38q80 0 121.5 38.5
t41.5 110.5v37h-150q-11 0 -11 10v58q0 11 11 11h229q10 0 10 -11v-193q0 -32 1.5 -62.5t6.5 -58.5q1 -6 -2 -9t-8 -3h-61q-4 0 -7 2t-4 7q-2 12 -4 28.5t-3 33.5h-1q-18 -27 -46 -45.5t-63 -28t-76 -9.5zM291 -236q-7 0 -6 10l15 67q-15 5 -22 15.5t-7 27.5v17
q0 21 13 32.5t34 11.5q28 0 40.5 -11.5t12.5 -32.5v-18q0 -13 -2 -25.5t-7 -25.5l-20 -62q-3 -6 -11 -6h-40z" />
    <glyph glyph-name="uni0123" unicode="&#x123;" horiz-adv-x="518" 
d="M255 -197q-119 0 -171 31.5t-52 94.5q0 40 19 70.5t60 49.5l74 -27q-29 -9 -42 -28.5t-13 -45.5q0 -38 28.5 -52.5t100.5 -14.5q77 0 105.5 15t28.5 55q0 27 -13 40t-43 14l-184 11q-33 2 -58.5 24t-25.5 68q0 32 15 54t51 49l59 -33q-21 -8 -30.5 -20.5t-9.5 -28.5
q0 -17 11 -24t35 -9l165 -10q62 -4 92 -38t30 -100q0 -77 -55.5 -111t-176.5 -34zM263 158q-95 0 -141 42.5t-46 129.5t46.5 129t143.5 42q94 0 139 -42.5t45 -129.5t-45 -129t-142 -42zM263 238q53 0 73.5 20.5t20.5 70.5q0 51 -21 72t-73 21t-72.5 -21t-20.5 -72
q0 -50 20.5 -70.5t72.5 -20.5zM269 562q-27 0 -39.5 11.5t-12.5 32.5v18q0 14 2 26t6 25l21 61q2 7 10 7h40q9 0 7 -10l-16 -67q16 -5 23 -15.5t7 -27.5v-17q0 -21 -13 -32.5t-35 -11.5z" />
    <glyph glyph-name="Hbar" unicode="&#x126;" horiz-adv-x="663" 
d="M36 512q-10 0 -10 11v54q0 11 10 11h591q10 0 10 -11v-54q0 -11 -10 -11h-45h-500h-46zM92 0q-10 0 -10 11v633q0 11 10 11h75q10 0 10 -11v-266h309v266q0 11 10 11h75q11 0 11 -11v-633q0 -11 -11 -11h-75q-10 0 -10 11v284h-309v-284q0 -11 -10 -11h-75z" />
    <glyph glyph-name="hbar" unicode="&#x127;" horiz-adv-x="558" 
d="M5 552q-11 0 -11 11v52q0 11 11 11h263q11 0 11 -11v-52q0 -11 -11 -11h-195h-68zM402 0q-11 0 -11 11v315q0 47 -19 69.5t-58 22.5q-38 0 -77.5 -23.5t-84.5 -72.5l-1 81q32 34 62 55.5t61 32t66 10.5q72 0 109 -41.5t37 -124.5v-324q0 -11 -10 -11h-74zM83 0
q-10 0 -10 11v661q0 11 10 11h74q11 0 11 -11v-661q0 -11 -11 -11h-74z" />
    <glyph glyph-name="Imacron" unicode="&#x12a;" horiz-adv-x="259" 
d="M92 0q-10 0 -10 11v633q0 11 10 11h75q10 0 10 -11v-633q0 -11 -10 -11h-75zM20 717q-11 0 -11 10v57q0 10 11 10h219q10 0 10 -10v-57q0 -10 -10 -10h-219z" />
    <glyph glyph-name="imacron" unicode="&#x12b;" horiz-adv-x="238" 
d="M82 0q-10 0 -10 11v468q0 10 10 10h74q11 0 11 -10v-468q0 -11 -11 -11h-74zM20 570q-11 0 -11 11v56q0 10 11 10h199q10 0 10 -10v-56q0 -11 -10 -11h-199z" />
    <glyph glyph-name="Iogonek" unicode="&#x12e;" horiz-adv-x="259" 
d="M92 0q-10 0 -10 11v633q0 11 10 11h75q10 0 10 -11v-633q0 -11 -10 -11h-75zM135 -197q-51 0 -76 22.5t-25 59.5v11q0 42 31.5 76.5t85.5 51.5l19 -12v-11q-28 -13 -43 -36t-15 -48v-9q0 -35 40 -35h13.5t12.5 1q9 1 9 -7v-50q0 -4 -1.5 -6.5t-6.5 -3.5q-11 -2 -22.5 -3
t-21.5 -1z" />
    <glyph glyph-name="iogonek" unicode="&#x12f;" horiz-adv-x="238" 
d="M82 0q-10 0 -10 11v468q0 10 10 10h74q11 0 11 -10v-468q0 -11 -11 -11h-74zM119 568q-30 0 -44.5 16t-14.5 42v11q0 26 14.5 42t44.5 16q31 0 45 -16t14 -42v-11q0 -26 -14 -42t-45 -16zM119 -197q-51 0 -76 22.5t-25 59.5v11q0 42 31.5 76.5t85.5 51.5l19 -12v-11
q-28 -13 -43 -36t-15 -48v-9q0 -35 40 -35h13.5t12.5 1q9 1 9 -7v-50q0 -4 -1.5 -6.5t-6.5 -3.5q-11 -2 -22.5 -3t-21.5 -1z" />
    <glyph glyph-name="Idotaccent" unicode="&#x130;" horiz-adv-x="259" 
d="M92 0q-10 0 -10 11v633q0 11 10 11h75q10 0 10 -11v-633q0 -11 -10 -11h-75zM130 724q-30 0 -44.5 16t-14.5 42v11q0 26 14.5 42t44.5 16q31 0 45 -16t14 -42v-11q0 -26 -14 -42t-45 -16z" />
    <glyph glyph-name="dotlessi" unicode="&#x131;" horiz-adv-x="238" 
d="M82 0q-10 0 -10 11v468q0 10 10 10h74q11 0 11 -10v-468q0 -11 -11 -11h-74z" />
    <glyph glyph-name="IJ" unicode="&#x132;" horiz-adv-x="527" 
d="M92 0q-10 0 -10 11v633q0 11 10 11h75q10 0 10 -11v-633q0 -11 -10 -11h-75zM296 -143q-21 -4 -24 5l-20 66q-3 11 18 16q40 10 60.5 45.5t20.5 95.5v559q0 11 10 11h75q10 0 10 -11v-554q0 -101 -38 -158.5t-112 -74.5z" />
    <glyph glyph-name="ij" unicode="&#x133;" horiz-adv-x="477" 
d="M82 0q-10 0 -10 11v468q0 10 10 10h74q11 0 11 -10v-468q0 -11 -11 -11h-74zM119 568q-30 0 -44.5 16t-14.5 42v11q0 26 14.5 42t44.5 16q31 0 45 -16t14 -42v-11q0 -26 -14 -42t-45 -16zM284 -190q-8 -5 -14 3l-44 54q-3 5 -2.5 8.5t5.5 6.5q25 18 43 44t28 61t10 81
v411q0 5 3 7.5t7 2.5h74q5 0 8 -2.5t3 -7.5v-416q0 -61 -13 -108.5t-39.5 -83t-68.5 -61.5zM358 568q-30 0 -44.5 16t-14.5 42v11q0 26 14.5 42t44.5 16q31 0 45 -16t14 -42v-11q0 -26 -14 -42t-45 -16z" />
    <glyph glyph-name="uni0136" unicode="&#x136;" horiz-adv-x="601" 
d="M92 0q-10 0 -10 11v633q0 11 10 11h75q10 0 10 -11v-186v-60.5t-1 -60.5h1q22 27 44.5 52.5t45.5 51.5l185 209q4 5 12 5h96q6 0 8.5 -3.5t-2.5 -9.5l-230 -253l249 -376q3 -6 1.5 -9.5t-7.5 -3.5h-95q-7 0 -12 7l-202 308l-93 -101v-203q0 -11 -10 -11h-75zM289 -236
q-7 0 -6 10l15 67q-15 5 -22 15.5t-7 27.5v17q0 21 13 32.5t34 11.5q28 0 40.5 -11.5t12.5 -32.5v-18q0 -13 -2 -25.5t-7 -25.5l-20 -62q-3 -6 -11 -6h-40z" />
    <glyph glyph-name="uni0137" unicode="&#x137;" horiz-adv-x="499" 
d="M82 0q-10 0 -10 11v661q0 11 10 11h74q11 0 11 -11v-254q0 -34 -0.5 -68.5t-1.5 -69.5h1q18 20 36.5 41t36.5 41l111 122q5 5 13 5h98q7 0 8.5 -3.5t-3.5 -8.5l-166 -174l181 -290q3 -6 1 -9.5t-8 -3.5h-88q-7 0 -13 7l-140 227l-66 -68v-155q0 -11 -11 -11h-74z
M228 -237q-7 0 -6 10l15 67q-15 5 -22 15.5t-7 27.5v17q0 21 13 32.5t34 11.5q28 0 40.5 -11.5t12.5 -32.5v-18q0 -13 -2.5 -25.5t-6.5 -25.5l-20 -61q-2 -7 -11 -7h-40z" />
    <glyph glyph-name="kgreenlandic" unicode="&#x138;" horiz-adv-x="499" 
d="M82 0q-10 0 -10 11v468q0 10 10 10h74q11 0 11 -10v-61q0 -34 -0.5 -68.5t-1.5 -69.5h1q18 20 36.5 41t36.5 41l111 122q5 5 13 5h98q7 0 8.5 -3.5t-3.5 -8.5l-166 -174l181 -290q3 -6 1 -9.5t-8 -3.5h-88q-7 0 -13 7l-140 227l-66 -68v-155q0 -11 -11 -11h-74z" />
    <glyph glyph-name="Lacute" unicode="&#x139;" horiz-adv-x="479" 
d="M92 0q-10 0 -10 11v633q0 11 10 11h75q10 0 10 -11v-558h272q11 0 11 -11v-64q0 -11 -11 -11h-357zM77 710q-5 0 -6 3t1 7l57 104q4 8 11 8h78q6 0 7.5 -4t-2.5 -9l-74 -103q-4 -6 -11 -6h-61z" />
    <glyph glyph-name="lacute" unicode="&#x13a;" horiz-adv-x="238" 
d="M82 0q-10 0 -10 11v661q0 11 10 11h74q11 0 11 -11v-661q0 -11 -11 -11h-74zM67 738q-5 0 -6 3t1 7l57 104q4 8 11 8h78q6 0 7.5 -4t-2.5 -9l-74 -103q-4 -6 -11 -6h-61z" />
    <glyph glyph-name="uni013B" unicode="&#x13b;" horiz-adv-x="479" 
d="M92 0q-10 0 -10 11v633q0 11 10 11h75q10 0 10 -11v-558h272q11 0 11 -11v-64q0 -11 -11 -11h-357zM247 -236q-7 0 -6 10l15 67q-15 5 -22 15.5t-7 27.5v17q0 21 13 32.5t34 11.5q28 0 40.5 -11.5t12.5 -32.5v-18q0 -13 -2 -25.5t-7 -25.5l-20 -62q-3 -6 -11 -6h-40z" />
    <glyph glyph-name="uni013C" unicode="&#x13c;" horiz-adv-x="238" 
d="M82 0q-10 0 -10 11v661q0 11 10 11h74q11 0 11 -11v-661q0 -11 -11 -11h-74zM89 -237q-7 0 -6 10l15 67q-15 5 -22 15.5t-7 27.5v17q0 21 13 32.5t34 11.5q28 0 40.5 -11.5t12.5 -32.5v-18q0 -13 -2.5 -25.5t-6.5 -25.5l-20 -61q-2 -7 -11 -7h-40z" />
    <glyph glyph-name="Lcaron" unicode="&#x13d;" horiz-adv-x="479" 
d="M92 0q-10 0 -10 11v633q0 11 10 11h75q10 0 10 -11v-558h272q11 0 11 -11v-64q0 -11 -11 -11h-357zM286 500q-11 0 -9 10l14 57q-15 5 -22 13.5t-7 24.5v24q0 17 12.5 27.5t34.5 10.5q26 0 38 -10t12 -27v-26q0 -12 -1.5 -23t-6.5 -23l-18 -50q-3 -8 -12 -8h-35z" />
    <glyph glyph-name="lcaron" unicode="&#x13e;" horiz-adv-x="239" 
d="M82 0q-10 0 -10 11v661q0 11 10 11h74q11 0 11 -11v-661q0 -11 -11 -11h-74zM234 528q-11 0 -9 10l14 57q-15 5 -22 13.5t-7 24.5v24q0 17 12.5 27.5t34.5 10.5q26 0 38 -10t12 -27v-26q0 -12 -1.5 -23t-6.5 -23l-18 -50q-3 -8 -12 -8h-35z" />
    <glyph glyph-name="Lslash" unicode="&#x141;" horiz-adv-x="479" 
d="M1 261q-13 -5 -13 8v62q0 8 9 11l304 121q12 5 12 -9v-60q0 -9 -8 -12zM92 0q-10 0 -10 11v633q0 11 10 11h75q10 0 10 -11v-558h272q11 0 11 -11v-64q0 -11 -11 -11h-357z" />
    <glyph glyph-name="lslash" unicode="&#x142;" horiz-adv-x="239" 
d="M6 332q-6 -2 -9.5 0.5t-3.5 8.5v60q0 8 8 11l233 105q5 2 8.5 -0.5t3.5 -7.5v-61q0 -8 -8 -11l-166 -74zM83 0q-11 0 -11 11v661q0 11 11 11h74q10 0 10 -11v-661q0 -11 -10 -11h-74z" />
    <glyph glyph-name="Nacute" unicode="&#x143;" horiz-adv-x="664" 
d="M92 0q-10 0 -10 11v633q0 11 10 11h124q9 0 12 -7l180 -365q19 -36 33.5 -66t26 -57t21.5 -51h2q-1 27 -1 58t-0.5 62.5t-0.5 57.5v357q0 11 10 11h73q11 0 11 -11v-633q0 -11 -11 -11h-121q-9 0 -13 7l-176 355q-16 32 -30.5 63t-28.5 61t-27 60h-2q0 -34 1 -65t1 -62
v-65v-343q0 -11 -11 -11h-73zM280 710q-5 0 -6 3t1 7l57 104q4 8 11 8h78q6 0 7.5 -4t-2.5 -9l-74 -103q-4 -6 -11 -6h-61z" />
    <glyph glyph-name="nacute" unicode="&#x144;" horiz-adv-x="557" 
d="M401 0q-11 0 -11 11v315q0 48 -19.5 70t-58.5 22q-38 0 -74.5 -22.5t-89.5 -74.5v80q32 35 62.5 57t61.5 32.5t66 10.5q72 0 109.5 -41.5t37.5 -124.5v-324q0 -11 -10 -11h-74zM82 0q-10 0 -10 11v355q0 27 -2.5 59t-4.5 51q-2 13 10 13h68q10 0 12 -10q2 -8 4 -24.5
t4 -34.5t2 -31l2 -31v-347q0 -11 -11 -11h-74zM227 556q-11 0 -6 11l67 123q4 7 12 7h76q6 0 7.5 -3.5t-1.5 -7.5l-85 -123q-5 -7 -12 -7h-58z" />
    <glyph glyph-name="uni0145" unicode="&#x145;" horiz-adv-x="664" 
d="M92 0q-10 0 -10 11v633q0 11 10 11h124q9 0 12 -7l180 -365q19 -36 33.5 -66t26 -57t21.5 -51h2q-1 27 -1 58t-0.5 62.5t-0.5 57.5v357q0 11 10 11h73q11 0 11 -11v-633q0 -11 -11 -11h-121q-9 0 -13 7l-176 355q-16 32 -30.5 63t-28.5 61t-27 60h-2q0 -34 1 -65t1 -62
v-65v-343q0 -11 -11 -11h-73zM302 -236q-7 0 -6 10l15 67q-15 5 -22 15.5t-7 27.5v17q0 21 13 32.5t34 11.5q28 0 40.5 -11.5t12.5 -32.5v-18q0 -13 -2 -25.5t-7 -25.5l-20 -62q-3 -6 -11 -6h-40z" />
    <glyph glyph-name="uni0146" unicode="&#x146;" horiz-adv-x="557" 
d="M401 0q-11 0 -11 11v315q0 48 -19.5 70t-58.5 22q-38 0 -74.5 -22.5t-89.5 -74.5v80q32 35 62.5 57t61.5 32.5t66 10.5q72 0 109.5 -41.5t37.5 -124.5v-324q0 -11 -10 -11h-74zM82 0q-10 0 -10 11v355q0 27 -2.5 59t-4.5 51q-2 13 10 13h68q10 0 12 -10q2 -8 4 -24.5
t4 -34.5t2 -31l2 -31v-347q0 -11 -11 -11h-74zM256 -237q-7 0 -6 10l15 67q-15 5 -22 15.5t-7 27.5v17q0 21 13 32.5t34 11.5q28 0 40.5 -11.5t12.5 -32.5v-18q0 -13 -2.5 -25.5t-6.5 -25.5l-20 -61q-2 -7 -11 -7h-40z" />
    <glyph glyph-name="Ncaron" unicode="&#x147;" horiz-adv-x="664" 
d="M92 0q-10 0 -10 11v633q0 11 10 11h124q9 0 12 -7l180 -365q19 -36 33.5 -66t26 -57t21.5 -51h2q-1 27 -1 58t-0.5 62.5t-0.5 57.5v357q0 11 10 11h73q11 0 11 -11v-633q0 -11 -11 -11h-121q-9 0 -13 7l-176 355q-16 32 -30.5 63t-28.5 61t-27 60h-2q0 -34 1 -65t1 -62
v-65v-343q0 -11 -11 -11h-73zM325 717l-127 57q-7 3 -7 10v54q0 12 11 7l130 -48l130 48q12 5 12 -7v-54q0 -7 -7 -10l-127 -57q-8 -3 -15 0z" />
    <glyph glyph-name="ncaron" unicode="&#x148;" horiz-adv-x="557" 
d="M401 0q-11 0 -11 11v315q0 48 -19.5 70t-58.5 22q-38 0 -74.5 -22.5t-89.5 -74.5v80q32 35 62.5 57t61.5 32.5t66 10.5q72 0 109.5 -41.5t37.5 -124.5v-324q0 -11 -10 -11h-74zM82 0q-10 0 -10 11v355q0 27 -2.5 59t-4.5 51q-2 13 10 13h68q10 0 12 -10q2 -8 4 -24.5
t4 -34.5t2 -31l2 -31v-347q0 -11 -11 -11h-74zM274 551l-117 67q-7 4 -7 14v54q0 11 12 5l119 -60l120 60q12 6 12 -5v-54q0 -10 -7 -14l-117 -67q-8 -5 -15 0z" />
    <glyph glyph-name="Eng" unicode="&#x14a;" horiz-adv-x="664" 
d="M447 -187l-44 54q-4 5 -2 9.5t11 9.5q27 18 45.5 48t25.5 66h-32q-9 0 -13 7l-176 355q-16 32 -30.5 63t-28.5 61t-27 60h-2q0 -34 1 -65t1 -62v-65v-343q0 -11 -11 -11h-73q-10 0 -10 11v633q0 11 10 11h124q9 0 12 -7l180 -365q19 -36 33.5 -66t26 -57t21.5 -51h2
q-1 27 -1 58t-0.5 62.5t-0.5 57.5v357q0 11 10 11h73q11 0 11 -11v-580q0 -59 -12 -107t-36.5 -82.5t-61.5 -57.5q-11 -7 -16.5 -7.5t-9.5 3.5z" />
    <glyph glyph-name="eng" unicode="&#x14b;" horiz-adv-x="557" 
d="M365 -190q-8 -5 -14 3l-45 54q-3 5 -2 8.5t5 6.5q27 19 45 44.5t27 60.5t9 81v258q0 48 -19.5 70t-58.5 22q-34 0 -67 -18t-78 -61v-328q0 -11 -11 -11h-74q-10 0 -10 11v355q0 27 -2.5 59t-4.5 51q-2 13 10 13h68q10 0 12 -10q2 -9 4.5 -27t3.5 -36q44 44 85 64.5
t90 20.5q72 0 109.5 -41.5t37.5 -124.5v-272q0 -62 -13 -110t-39.5 -83.5t-67.5 -59.5z" />
    <glyph glyph-name="Omacron" unicode="&#x14c;" horiz-adv-x="645" 
d="M322 -12q-127 0 -189.5 62t-62.5 176v203q0 115 62.5 176.5t189.5 61.5t190 -61.5t63 -176.5v-203q0 -114 -63 -176t-190 -62zM322 72q78 0 118 40t40 117v197q0 78 -40 117.5t-118 39.5q-76 0 -116.5 -39.5t-40.5 -117.5v-197q0 -77 40.5 -117t116.5 -40zM213 717
q-11 0 -11 10v57q0 10 11 10h219q10 0 10 -10v-57q0 -10 -10 -10h-219z" />
    <glyph glyph-name="omacron" unicode="&#x14d;" horiz-adv-x="538" 
d="M269 -12q-102 0 -156 49.5t-54 150.5v113q0 101 53.5 150.5t156.5 49.5t157 -49.5t54 -150.5v-113q0 -101 -53.5 -150.5t-157.5 -49.5zM269 71q61 0 88.5 31t27.5 95v96q0 63 -27.5 94t-88.5 31t-88 -31t-27 -94v-96q0 -64 27 -95t88 -31zM169 570q-11 0 -11 11v56
q0 10 11 10h199q10 0 10 -10v-56q0 -11 -10 -11h-199z" />
    <glyph glyph-name="Ohungarumlaut" unicode="&#x150;" horiz-adv-x="645" 
d="M322 -12q-127 0 -189.5 62t-62.5 176v203q0 115 62.5 176.5t189.5 61.5t190 -61.5t63 -176.5v-203q0 -114 -63 -176t-190 -62zM322 72q78 0 118 40t40 117v197q0 78 -40 117.5t-118 39.5q-76 0 -116.5 -39.5t-40.5 -117.5v-197q0 -77 40.5 -117t116.5 -40zM360 710
q-12 0 -7 11l44 102q3 9 12 9h70q13 0 6 -13l-55 -102q-5 -7 -13 -7h-57zM212 710q-12 0 -7 11l44 102q3 9 12 9h70q13 0 6 -13l-55 -102q-5 -7 -13 -7h-57z" />
    <glyph glyph-name="ohungarumlaut" unicode="&#x151;" horiz-adv-x="538" 
d="M269 -12q-102 0 -156 49.5t-54 150.5v113q0 101 53.5 150.5t156.5 49.5t157 -49.5t54 -150.5v-113q0 -101 -53.5 -150.5t-157.5 -49.5zM269 71q61 0 88.5 31t27.5 95v96q0 63 -27.5 94t-88.5 31t-88 -31t-27 -94v-96q0 -64 27 -95t88 -31zM157 556q-12 0 -7 12l52 123
q3 8 12 8h73q12 0 5 -12l-65 -123q-5 -8 -12 -8h-58zM297 556q-11 0 -6 12l52 123q3 8 12 8h72q13 0 6 -12l-66 -123q-4 -8 -11 -8h-59z" />
    <glyph glyph-name="OE" unicode="&#x152;" horiz-adv-x="877" 
d="M322 -12q-126 0 -189 62.5t-63 175.5v203q0 113 63 175.5t189 62.5q26 0 54.5 -3t49.5 -9h372q11 0 11 -11v-64q0 -11 -11 -11h-279v-195h255q11 0 11 -11v-61q0 -11 -11 -11h-255v-205h279q11 0 11 -11v-64q0 -11 -11 -11h-372q-20 -6 -49 -9t-55 -3zM323 72
q28 0 55 2.5t46 6.5v493q-19 5 -46.5 7t-54.5 2q-77 0 -117.5 -40t-40.5 -115v-201q0 -75 40.5 -115t117.5 -40z" />
    <glyph glyph-name="oe" unicode="&#x153;" horiz-adv-x="839" 
d="M261 -12q-98 0 -150 50.5t-52 146.5v120q0 96 52 146t149 50q57 0 98.5 -18.5t64.5 -58.5q24 39 67.5 58t98.5 19q93 0 143 -49t50 -142v-78q0 -10 -10 -10h-302v-32q0 -63 27 -92t87 -29q45 0 69.5 15t24.5 39q0 15 11 15h73q11 0 11 -12q0 -65 -51.5 -101.5
t-140.5 -36.5q-56 0 -94.5 17t-66.5 59q-29 -42 -67 -59t-92 -17zM265 71q56 0 83.5 30t27.5 92v103q0 62 -27.5 92t-83.5 30t-83.5 -30t-27.5 -92v-103q0 -62 27.5 -92t83.5 -30zM470 297h218v4q0 60 -27 89.5t-81 29.5q-55 0 -82.5 -30.5t-27.5 -89.5v-3z" />
    <glyph glyph-name="Racute" unicode="&#x154;" horiz-adv-x="607" 
d="M92 0q-10 0 -10 11v633q0 11 10 11h198q122 0 180 -46.5t58 -137.5q0 -71 -33.5 -118.5t-96.5 -65.5v-2l165 -272q4 -6 1.5 -9.5t-8.5 -3.5h-87q-9 0 -13 7l-159 267h-120v-263q0 -11 -10 -11h-75zM177 350h105q80 0 115.5 27.5t35.5 87.5q0 59 -33 84t-112 25h-111v-224
zM225 710q-5 0 -6 3t1 7l57 104q4 8 11 8h78q6 0 7.5 -4t-2.5 -9l-74 -103q-4 -6 -11 -6h-61z" />
    <glyph glyph-name="racute" unicode="&#x155;" horiz-adv-x="359" 
d="M82 0q-10 0 -10 11v358q0 29 -1.5 55.5t-5.5 53.5q-2 11 10 11h68q11 0 12 -9q4 -19 6 -43t2 -41l4 -55v-330q0 -11 -11 -11h-74zM156 307l-4 88q21 31 48.5 54.5t55.5 37.5t52 14q18 0 27 -3q8 -2 9 -11q2 -22 1.5 -45.5t-3.5 -44.5q-2 -12 -14 -9q-7 2 -16 3t-19 1
q-24 0 -48.5 -10.5t-47 -29.5t-41.5 -45zM154 556q-11 0 -6 11l67 123q4 7 12 7h76q6 0 7.5 -3.5t-1.5 -7.5l-85 -123q-5 -7 -12 -7h-58z" />
    <glyph glyph-name="uni0156" unicode="&#x156;" horiz-adv-x="607" 
d="M92 0q-10 0 -10 11v633q0 11 10 11h198q122 0 180 -46.5t58 -137.5q0 -71 -33.5 -118.5t-96.5 -65.5v-2l165 -272q4 -6 1.5 -9.5t-8.5 -3.5h-87q-9 0 -13 7l-159 267h-120v-263q0 -11 -10 -11h-75zM177 350h105q80 0 115.5 27.5t35.5 87.5q0 59 -33 84t-112 25h-111v-224
zM274 -236q-7 0 -6 10l15 67q-15 5 -22 15.5t-7 27.5v17q0 21 13 32.5t34 11.5q28 0 40.5 -11.5t12.5 -32.5v-18q0 -13 -2 -25.5t-7 -25.5l-20 -62q-3 -6 -11 -6h-40z" />
    <glyph glyph-name="uni0157" unicode="&#x157;" horiz-adv-x="359" 
d="M82 0q-10 0 -10 11v358q0 29 -1.5 55.5t-5.5 53.5q-2 11 10 11h68q11 0 12 -9q4 -19 6 -43t2 -41l4 -55v-330q0 -11 -11 -11h-74zM156 307l-4 88q21 31 48.5 54.5t55.5 37.5t52 14q18 0 27 -3q8 -2 9 -11q2 -22 1.5 -45.5t-3.5 -44.5q-2 -12 -14 -9q-7 2 -16 3t-19 1
q-24 0 -48.5 -10.5t-47 -29.5t-41.5 -45zM92 -237q-7 0 -6 10l15 67q-15 5 -22 15.5t-7 27.5v17q0 21 13 32.5t34 11.5q28 0 40.5 -11.5t12.5 -32.5v-18q0 -13 -2.5 -25.5t-6.5 -25.5l-20 -61q-2 -7 -11 -7h-40z" />
    <glyph glyph-name="Rcaron" unicode="&#x158;" horiz-adv-x="607" 
d="M92 0q-10 0 -10 11v633q0 11 10 11h198q122 0 180 -46.5t58 -137.5q0 -71 -33.5 -118.5t-96.5 -65.5v-2l165 -272q4 -6 1.5 -9.5t-8.5 -3.5h-87q-9 0 -13 7l-159 267h-120v-263q0 -11 -10 -11h-75zM177 350h105q80 0 115.5 27.5t35.5 87.5q0 59 -33 84t-112 25h-111v-224
zM270 717l-127 57q-7 3 -7 10v54q0 12 11 7l130 -48l130 48q12 5 12 -7v-54q0 -7 -7 -10l-127 -57q-8 -3 -15 0z" />
    <glyph glyph-name="rcaron" unicode="&#x159;" horiz-adv-x="359" 
d="M82 0q-10 0 -10 11v358q0 29 -1.5 55.5t-5.5 53.5q-2 11 10 11h68q11 0 12 -9q4 -19 6 -43t2 -41l4 -55v-330q0 -11 -11 -11h-74zM156 307l-4 88q21 31 48.5 54.5t55.5 37.5t52 14q18 0 27 -3q8 -2 9 -11q2 -22 1.5 -45.5t-3.5 -44.5q-2 -12 -14 -9q-7 2 -16 3t-19 1
q-24 0 -48.5 -10.5t-47 -29.5t-41.5 -45zM201 551l-117 67q-7 4 -7 14v54q0 11 12 5l119 -60l120 60q12 6 12 -5v-54q0 -10 -7 -14l-117 -67q-8 -5 -15 0z" />
    <glyph glyph-name="Sacute" unicode="&#x15a;" horiz-adv-x="569" 
d="M278 -12q-122 0 -178.5 51.5t-50.5 137.5q1 17 13 17h72q12 0 12 -15q0 -58 34.5 -83t104.5 -25q68 0 102.5 23.5t34.5 72.5q0 24 -8 41t-27 30.5t-52 26.5l-146 61q-47 20 -75.5 44t-41 55t-12.5 70q1 84 56 127.5t161 43.5q73 0 126 -21t80 -61.5t21 -100.5
q-2 -18 -11 -18h-73q-6 0 -8.5 4t-1.5 14q4 48 -32.5 74.5t-102.5 26.5q-59 0 -89 -21t-31 -64q0 -22 8.5 -39t28 -31t53.5 -29l145 -61q46 -19 74.5 -42.5t41 -54.5t11.5 -74q0 -85 -57.5 -132.5t-181.5 -47.5zM229 710q-5 0 -6 3t1 7l57 104q4 8 11 8h78q6 0 7.5 -4
t-2.5 -9l-74 -103q-4 -6 -11 -6h-61z" />
    <glyph glyph-name="sacute" unicode="&#x15b;" horiz-adv-x="466" 
d="M234 -12q-93 0 -138.5 39.5t-44.5 119.5q0 9 10 9h74q9 0 9 -9q0 -42 21.5 -61t68.5 -19t70.5 15.5t23.5 44.5q0 22 -13.5 37t-43.5 28l-114 47q-54 23 -77 52t-23 76q0 67 43 100.5t128 33.5q88 0 135.5 -35.5t47.5 -101.5q0 -10 -11 -10h-73q-10 0 -10 16
q0 25 -22.5 39t-62.5 14t-60 -14t-20 -42q0 -21 11 -31.5t45 -25.5l114 -48q53 -21 77 -51.5t24 -78.5q0 -70 -49 -107t-140 -37zM175 556q-11 0 -6 11l67 123q4 7 12 7h76q6 0 7.5 -3.5t-1.5 -7.5l-85 -123q-5 -7 -12 -7h-58z" />
    <glyph glyph-name="Scedilla" unicode="&#x15e;" horiz-adv-x="569" 
d="M278 -12q-122 0 -178.5 51.5t-50.5 137.5q1 17 13 17h72q12 0 12 -15q0 -58 34.5 -83t104.5 -25q68 0 102.5 23.5t34.5 72.5q0 24 -8 41t-27 30.5t-52 26.5l-146 61q-47 20 -75.5 44t-41 55t-12.5 70q1 84 56 127.5t161 43.5q73 0 126 -21t80 -61.5t21 -100.5
q-2 -18 -11 -18h-73q-6 0 -8.5 4t-1.5 14q4 48 -32.5 74.5t-102.5 26.5q-59 0 -89 -21t-31 -64q0 -22 8.5 -39t28 -31t53.5 -29l145 -61q46 -19 74.5 -42.5t41 -54.5t11.5 -74q0 -85 -57.5 -132.5t-181.5 -47.5zM269 -197q-11 0 -21.5 1t-22.5 3q-8 1 -8 9v39q0 9 8 8
q7 -1 15 -1.5t14 -0.5q21 0 30.5 6.5t9.5 16.5v13q0 14 -8.5 19.5t-24.5 5.5h-23q-7 0 -7 7q0 5 0.5 10.5t1.5 9.5l23 76q2 6 10 6h52q9 0 5 -11l-19 -59h9q27 0 41 -17.5t14 -46.5v-16q0 -40 -24.5 -59t-74.5 -19z" />
    <glyph glyph-name="scedilla" unicode="&#x15f;" horiz-adv-x="466" 
d="M234 -12q-93 0 -138.5 39.5t-44.5 119.5q0 9 10 9h74q9 0 9 -9q0 -42 21.5 -61t68.5 -19t70.5 15.5t23.5 44.5q0 22 -13.5 37t-43.5 28l-114 47q-54 23 -77 52t-23 76q0 67 43 100.5t128 33.5q88 0 135.5 -35.5t47.5 -101.5q0 -10 -11 -10h-73q-10 0 -10 16
q0 25 -22.5 39t-62.5 14t-60 -14t-20 -42q0 -21 11 -31.5t45 -25.5l114 -48q53 -21 77 -51.5t24 -78.5q0 -70 -49 -107t-140 -37zM224 -197q-11 0 -21.5 1t-22.5 3q-8 1 -8 9v39q0 9 8 8q7 -1 15 -1.5t14 -0.5q21 0 30.5 6.5t9.5 16.5v13q0 14 -8.5 19.5t-24.5 5.5h-23
q-7 0 -7 7q0 5 0.5 10.5t1.5 9.5l23 76q2 6 10 6h52q9 0 5 -11l-19 -59h9q27 0 41 -17.5t14 -46.5v-16q0 -40 -24.5 -59t-74.5 -19z" />
    <glyph glyph-name="Scaron" unicode="&#x160;" horiz-adv-x="569" 
d="M278 -12q-122 0 -178.5 51.5t-50.5 137.5q1 17 13 17h72q12 0 12 -15q0 -58 34.5 -83t104.5 -25q68 0 102.5 23.5t34.5 72.5q0 24 -8 41t-27 30.5t-52 26.5l-146 61q-47 20 -75.5 44t-41 55t-12.5 70q1 84 56 127.5t161 43.5q73 0 126 -21t80 -61.5t21 -100.5
q-2 -18 -11 -18h-73q-6 0 -8.5 4t-1.5 14q4 48 -32.5 74.5t-102.5 26.5q-59 0 -89 -21t-31 -64q0 -22 8.5 -39t28 -31t53.5 -29l145 -61q46 -19 74.5 -42.5t41 -54.5t11.5 -74q0 -85 -57.5 -132.5t-181.5 -47.5zM274 717l-127 57q-7 3 -7 10v54q0 12 11 7l130 -48l130 48
q12 5 12 -7v-54q0 -7 -7 -10l-127 -57q-8 -3 -15 0z" />
    <glyph glyph-name="scaron" unicode="&#x161;" horiz-adv-x="466" 
d="M234 -12q-93 0 -138.5 39.5t-44.5 119.5q0 9 10 9h74q9 0 9 -9q0 -42 21.5 -61t68.5 -19t70.5 15.5t23.5 44.5q0 22 -13.5 37t-43.5 28l-114 47q-54 23 -77 52t-23 76q0 67 43 100.5t128 33.5q88 0 135.5 -35.5t47.5 -101.5q0 -10 -11 -10h-73q-10 0 -10 16
q0 25 -22.5 39t-62.5 14t-60 -14t-20 -42q0 -21 11 -31.5t45 -25.5l114 -48q53 -21 77 -51.5t24 -78.5q0 -70 -49 -107t-140 -37zM222 551l-117 67q-7 4 -7 14v54q0 11 12 5l119 -60l120 60q12 6 12 -5v-54q0 -10 -7 -14l-117 -67q-8 -5 -15 0z" />
    <glyph glyph-name="uni0162" unicode="&#x162;" horiz-adv-x="538" 
d="M232 0q-11 0 -11 11v558h-178q-10 0 -10 11v64q0 11 10 11h452q10 0 10 -11v-64q0 -11 -10 -11h-178v-558q0 -11 -11 -11h-74zM246 -197q-11 0 -21.5 1t-22.5 3q-8 1 -8 9v39q0 9 8 8q7 -1 15 -1.5t14 -0.5q21 0 30.5 6.5t9.5 16.5v13q0 14 -8.5 19.5t-24.5 5.5h-23
q-7 0 -7 7q0 5 0.5 10.5t1.5 9.5l23 76q2 6 10 6h52q9 0 5 -11l-19 -59h9q27 0 41 -17.5t14 -46.5v-16q0 -40 -24.5 -59t-74.5 -19z" />
    <glyph glyph-name="uni0163" unicode="&#x163;" horiz-adv-x="388" 
d="M250 -12q-53 0 -85 17.5t-46 53.5t-14 90v259h-76q-11 0 -11 11v60q0 10 11 10h78l12 120q1 11 12 11h58q10 0 10 -11l1 -120h145q11 0 11 -10v-60q0 -11 -11 -11h-145v-255q0 -45 16 -64t54 -19q20 0 39.5 4.5t34.5 11.5q13 5 13 -8v-61q0 -9 -9 -12q-18 -7 -42.5 -12
t-55.5 -5zM216 -197q-11 0 -21.5 1t-22.5 3q-8 1 -8 9v39q0 9 8 8q7 -1 15 -1.5t14 -0.5q21 0 30.5 6.5t9.5 16.5v13q0 14 -8.5 19.5t-24.5 5.5h-23q-7 0 -7 7q0 5 0.5 10.5t1.5 9.5l23 76q2 6 10 6h52q9 0 5 -11l-19 -59h9q27 0 41 -17.5t14 -46.5v-16q0 -40 -24.5 -59
t-74.5 -19z" />
    <glyph glyph-name="Tcaron" unicode="&#x164;" horiz-adv-x="538" 
d="M232 0q-11 0 -11 11v558h-178q-10 0 -10 11v64q0 11 10 11h452q10 0 10 -11v-64q0 -11 -10 -11h-178v-558q0 -11 -11 -11h-74zM262 717l-127 57q-7 3 -7 10v54q0 12 11 7l130 -48l130 48q12 5 12 -7v-54q0 -7 -7 -10l-127 -57q-8 -3 -15 0z" />
    <glyph glyph-name="tcaron" unicode="&#x165;" horiz-adv-x="394" 
d="M250 -12q-53 0 -85 17.5t-46 53.5t-14 90v259h-76q-11 0 -11 11v60q0 10 11 10h78l12 120q1 11 12 11h58q10 0 10 -11l1 -120h145q11 0 11 -10v-60q0 -11 -11 -11h-145v-255q0 -45 16 -64t54 -19q20 0 39.5 4.5t34.5 11.5q13 5 13 -8v-61q0 -9 -9 -12q-18 -7 -42.5 -12
t-55.5 -5zM279 528q-11 0 -9 10l14 57q-15 5 -22 13.5t-7 24.5v24q0 17 12.5 27.5t34.5 10.5q26 0 38 -10t12 -27v-26q0 -12 -1.5 -23t-6.5 -23l-18 -50q-3 -8 -12 -8h-35z" />
    <glyph glyph-name="Tbar" unicode="&#x166;" horiz-adv-x="538" 
d="M122 297q-10 0 -10 11v51q0 10 10 10h294q10 0 10 -10v-51q0 -11 -10 -11h-99h-96h-99zM232 0q-11 0 -11 11v558h-178q-10 0 -10 11v64q0 11 10 11h452q10 0 10 -11v-64q0 -11 -10 -11h-178v-558q0 -11 -11 -11h-74z" />
    <glyph glyph-name="tbar" unicode="&#x167;" horiz-adv-x="388" 
d="M38 257q-10 0 -10 10v54q0 10 10 10h67h95h131q11 0 11 -10v-54q0 -10 -11 -10h-293zM250 -12q-53 0 -85 17.5t-46 53.5t-14 90v259h-76q-11 0 -11 11v60q0 10 11 10h78l12 120q1 11 12 11h58q10 0 10 -11l1 -120h145q11 0 11 -10v-60q0 -11 -11 -11h-145v-255
q0 -45 16 -64t54 -19q20 0 39.5 4.5t34.5 11.5q13 5 13 -8v-61q0 -9 -9 -12q-18 -7 -42.5 -12t-55.5 -5z" />
    <glyph glyph-name="Umacron" unicode="&#x16a;" horiz-adv-x="646" 
d="M323 -12q-118 0 -182 61.5t-64 178.5v416q0 11 10 11h75q10 0 10 -11v-418q0 -73 38.5 -113.5t112.5 -40.5t112.5 40.5t38.5 113.5v418q0 11 11 11h74q11 0 11 -11v-418q0 -112 -65.5 -175t-181.5 -63zM214 717q-11 0 -11 10v57q0 10 11 10h219q10 0 10 -10v-57
q0 -10 -10 -10h-219z" />
    <glyph glyph-name="umacron" unicode="&#x16b;" horiz-adv-x="543" 
d="M204 -12q-64 0 -98 42.5t-34 123.5v325q0 10 10 10h74q11 0 11 -10v-316q0 -47 16.5 -69.5t51.5 -22.5q36 0 72 22.5t88 75.5v-82q-31 -31 -62.5 -53.5t-63 -34t-65.5 -11.5zM404 0q-12 0 -13 10q-3 19 -5 39t-3 41l-6 44v345q0 10 10 10h74q11 0 11 -10v-356
q0 -28 1.5 -56.5t4.5 -55.5q2 -11 -11 -11h-63zM172 570q-11 0 -11 11v56q0 10 11 10h199q10 0 10 -10v-56q0 -11 -10 -11h-199z" />
    <glyph glyph-name="Uring" unicode="&#x16e;" horiz-adv-x="646" 
d="M323 -12q-118 0 -182 61.5t-64 178.5v416q0 11 10 11h75q10 0 10 -11v-418q0 -73 38.5 -113.5t112.5 -40.5t112.5 40.5t38.5 113.5v418q0 11 11 11h74q11 0 11 -11v-418q0 -112 -65.5 -175t-181.5 -63zM323 670q-52 0 -83 26t-31 73q0 49 30.5 74t83.5 25q52 0 83 -25
t31 -74q0 -47 -30.5 -73t-83.5 -26zM323 724q27 0 38 13t11 33q0 19 -11 32t-38 13q-26 0 -37.5 -13t-11.5 -32q0 -20 11.5 -33t37.5 -13z" />
    <glyph glyph-name="uring" unicode="&#x16f;" horiz-adv-x="543" 
d="M204 -12q-64 0 -98 42.5t-34 123.5v325q0 10 10 10h74q11 0 11 -10v-316q0 -47 16.5 -69.5t51.5 -22.5q36 0 72 22.5t88 75.5v-82q-31 -31 -62.5 -53.5t-63 -34t-65.5 -11.5zM404 0q-12 0 -13 10q-3 19 -5 39t-3 41l-6 44v345q0 10 10 10h74q11 0 11 -10v-356
q0 -28 1.5 -56.5t4.5 -55.5q2 -11 -11 -11h-63zM272 552q-52 0 -83 25.5t-31 73.5t30.5 73.5t83.5 25.5q52 0 83 -25.5t31 -73.5t-30.5 -73.5t-83.5 -25.5zM272 606q27 0 38 12.5t11 32.5t-11 32.5t-38 12.5q-26 0 -37.5 -12.5t-11.5 -32.5t11.5 -32.5t37.5 -12.5z" />
    <glyph glyph-name="Uhungarumlaut" unicode="&#x170;" horiz-adv-x="646" 
d="M323 -12q-118 0 -182 61.5t-64 178.5v416q0 11 10 11h75q10 0 10 -11v-418q0 -73 38.5 -113.5t112.5 -40.5t112.5 40.5t38.5 113.5v418q0 11 11 11h74q11 0 11 -11v-418q0 -112 -65.5 -175t-181.5 -63zM360 710q-12 0 -7 11l44 102q3 9 12 9h70q13 0 6 -13l-55 -102
q-5 -7 -13 -7h-57zM212 710q-12 0 -7 11l44 102q3 9 12 9h70q13 0 6 -13l-55 -102q-5 -7 -13 -7h-57z" />
    <glyph glyph-name="uhungarumlaut" unicode="&#x171;" horiz-adv-x="543" 
d="M204 -12q-64 0 -98 42.5t-34 123.5v325q0 10 10 10h74q11 0 11 -10v-316q0 -47 16.5 -69.5t51.5 -22.5q36 0 72 22.5t88 75.5v-82q-31 -31 -62.5 -53.5t-63 -34t-65.5 -11.5zM404 0q-12 0 -13 10q-3 19 -5 39t-3 41l-6 44v345q0 10 10 10h74q11 0 11 -10v-356
q0 -28 1.5 -56.5t4.5 -55.5q2 -11 -11 -11h-63zM159 556q-12 0 -7 12l52 123q3 8 12 8h73q12 0 5 -12l-65 -123q-5 -8 -12 -8h-58zM299 556q-11 0 -6 12l52 123q3 8 12 8h72q13 0 6 -12l-66 -123q-4 -8 -11 -8h-59z" />
    <glyph glyph-name="Uogonek" unicode="&#x172;" horiz-adv-x="646" 
d="M323 -12q-118 0 -182 61.5t-64 178.5v416q0 11 10 11h75q10 0 10 -11v-418q0 -73 38.5 -113.5t112.5 -40.5t112.5 40.5t38.5 113.5v418q0 11 11 11h74q11 0 11 -11v-418q0 -112 -65.5 -175t-181.5 -63zM383 -197q-51 0 -76 22.5t-25 59.5v11q0 42 31.5 76.5t85.5 51.5
l19 -12v-11q-28 -13 -43 -36t-15 -48v-9q0 -35 40 -35h13.5t12.5 1q9 1 9 -7v-50q0 -4 -1.5 -6.5t-6.5 -3.5q-11 -2 -22.5 -3t-21.5 -1z" />
    <glyph glyph-name="uogonek" unicode="&#x173;" horiz-adv-x="543" 
d="M204 -12q-64 0 -98 42.5t-34 123.5v325q0 10 10 10h74q11 0 11 -10v-316q0 -47 16.5 -69.5t51.5 -22.5q36 0 72 22.5t88 75.5v-82q-31 -31 -62.5 -53.5t-63 -34t-65.5 -11.5zM404 0q-12 0 -13 10q-3 19 -5 39t-3 41l-6 44v345q0 10 10 10h74q11 0 11 -10v-356
q0 -28 1.5 -56.5t4.5 -55.5q2 -11 -11 -11h-63zM437 -197q-51 0 -76 22.5t-25 59.5v11q0 42 31.5 76.5t85.5 51.5l19 -12v-11q-28 -13 -43 -36t-15 -48v-9q0 -35 40 -35h13.5t12.5 1q9 1 9 -7v-50q0 -4 -1.5 -6.5t-6.5 -3.5q-11 -2 -22.5 -3t-21.5 -1z" />
    <glyph glyph-name="Wcircumflex" unicode="&#x174;" horiz-adv-x="855" 
d="M213 0q-10 0 -12 9l-181 634q-3 12 9 12h76q9 0 11 -9l110 -396q8 -24 13.5 -49t12 -50t11.5 -49h2q10 35 20.5 69.5t20.5 68.5l82 268l-36 125q-2 5 1 8t8 3h77q9 0 11 -9l110 -402q9 -33 17.5 -65.5t16.5 -65.5h1q6 24 11.5 48.5t11.5 49.5t13 49l106 397q2 9 11 9h78
q13 0 10 -12l-175 -634q-2 -9 -12 -9h-102q-10 0 -12 9l-65 226q-10 34 -19 67.5t-18 66.5h-1q-10 -33 -19.5 -65.5t-20.5 -66.5l-68 -229q-3 -8 -12 -8h-98zM297 717q-11 -5 -11 6v54q0 8 7 11l127 57q7 4 15 0l127 -57q7 -3 7 -11v-54q0 -11 -12 -6l-130 47z" />
    <glyph glyph-name="wcircumflex" unicode="&#x175;" horiz-adv-x="724" 
d="M183 0q-9 0 -12 9l-146 469q-3 11 9 11h79q8 0 11 -9l75 -266q9 -33 17.5 -65t16.5 -64h3q9 31 19 62l20 62l50 158l-29 100q-3 12 9 12h70q10 0 12 -8l70 -262q8 -31 15.5 -62t15.5 -62h2q8 32 16.5 64t17.5 63l75 268q3 9 12 9h79q12 0 8 -11l-146 -469q-3 -9 -12 -9
h-97q-8 0 -11 9l-30 96q-9 34 -18 69t-18 77h-3q-9 -42 -19 -76t-21 -67l-32 -99q-3 -9 -12 -9h-96zM242 551q-12 -6 -12 5v55q0 9 7 13l117 67q7 5 15 0l117 -67q7 -4 7 -13v-55q0 -11 -12 -5l-120 60z" />
    <glyph glyph-name="Ycircumflex" unicode="&#x176;" horiz-adv-x="544" 
d="M234 0q-10 0 -10 11v214l-214 417q-2 6 0 9.5t7 3.5h87q9 0 12 -7l104 -215q13 -27 26 -55.5t26 -55.5h1q14 29 27 56.5t26 56.5l103 213q3 7 13 7h84q5 0 7.5 -3.5t-0.5 -9.5l-213 -417v-214q0 -11 -11 -11h-75zM142 717q-11 -5 -11 6v54q0 8 7 11l127 57q7 4 15 0
l127 -57q7 -3 7 -11v-54q0 -11 -12 -6l-130 47z" />
    <glyph glyph-name="ycircumflex" unicode="&#x177;" horiz-adv-x="502" 
d="M144 -185q-12 0 -7 13l70 177l-184 472q-5 12 7 12h81q8 0 11 -8l85 -231q12 -31 23 -64.5t21 -66.5h2q10 33 22 66t23 65l84 231q3 8 13 8h77q13 0 8 -12l-251 -654q-3 -8 -11 -8h-74zM130 551q-12 -6 -12 5v55q0 9 7 13l117 67q7 5 15 0l117 -67q7 -4 7 -13v-55
q0 -11 -12 -5l-120 60z" />
    <glyph glyph-name="Ydieresis" unicode="&#x178;" horiz-adv-x="544" 
d="M234 0q-10 0 -10 11v214l-214 417q-2 6 0 9.5t7 3.5h87q9 0 12 -7l104 -215q13 -27 26 -55.5t26 -55.5h1q14 29 27 56.5t26 56.5l103 213q3 7 13 7h84q5 0 7.5 -3.5t-0.5 -9.5l-213 -417v-214q0 -11 -11 -11h-75zM185 710q-29 0 -42 15.5t-13 38.5v11q0 25 13 39.5
t42 14.5q30 0 43 -14.5t13 -39.5v-11q0 -23 -13 -38.5t-43 -15.5zM359 710q-29 0 -42 15.5t-13 38.5v11q0 25 13 39.5t42 14.5t42.5 -14.5t13.5 -39.5v-11q0 -23 -13.5 -38.5t-42.5 -15.5z" />
    <glyph glyph-name="Zacute" unicode="&#x179;" horiz-adv-x="548" 
d="M29 0q-10 0 -10 10v2q0 6 4 14l289 445q16 25 31.5 49t32.5 49v1q-28 -1 -56.5 -1h-57.5h-200q-11 0 -11 11v64q0 11 11 11h454q11 0 11 -10v-2q0 -6 -5 -14l-285 -435q-18 -28 -35 -54.5t-36 -53.5v-1q32 1 64.5 1h64.5h198q10 0 10 -11v-64q0 -11 -10 -11h-464z
M219 710q-5 0 -6 3t1 7l57 104q4 8 11 8h78q6 0 7.5 -4t-2.5 -9l-74 -103q-4 -6 -11 -6h-61z" />
    <glyph glyph-name="zacute" unicode="&#x17a;" horiz-adv-x="467" 
d="M34 0q-11 0 -11 10v2q0 8 4 14l211 299q14 20 28.5 41t29.5 41v2q-27 -1 -55 -1h-56h-128q-10 0 -10 11v60q0 10 10 10h376q10 0 10 -9v-3q0 -4 -1 -7.5t-4 -7.5l-204 -289q-16 -22 -31.5 -45t-33.5 -46v-1h51.5h50.5h149q11 0 11 -11v-59q0 -11 -11 -11h-386zM190 556
q-11 0 -6 11l67 123q4 7 12 7h76q6 0 7.5 -3.5t-1.5 -7.5l-85 -123q-5 -7 -12 -7h-58z" />
    <glyph glyph-name="Zdotaccent" unicode="&#x17b;" horiz-adv-x="548" 
d="M29 0q-10 0 -10 10v2q0 6 4 14l289 445q16 25 31.5 49t32.5 49v1q-28 -1 -56.5 -1h-57.5h-200q-11 0 -11 11v64q0 11 11 11h454q11 0 11 -10v-2q0 -6 -5 -14l-285 -435q-18 -28 -35 -54.5t-36 -53.5v-1q32 1 64.5 1h64.5h198q10 0 10 -11v-64q0 -11 -10 -11h-464z
M271 724q-30 0 -44.5 16t-14.5 42v11q0 26 14.5 42t44.5 16q31 0 45 -16t14 -42v-11q0 -26 -14 -42t-45 -16z" />
    <glyph glyph-name="zdotaccent" unicode="&#x17c;" horiz-adv-x="467" 
d="M34 0q-11 0 -11 10v2q0 8 4 14l211 299q14 20 28.5 41t29.5 41v2q-27 -1 -55 -1h-56h-128q-10 0 -10 11v60q0 10 10 10h376q10 0 10 -9v-3q0 -4 -1 -7.5t-4 -7.5l-204 -289q-16 -22 -31.5 -45t-33.5 -46v-1h51.5h50.5h149q11 0 11 -11v-59q0 -11 -11 -11h-386zM245 568
q-30 0 -44.5 16t-14.5 42v11q0 26 14.5 42t44.5 16q31 0 45 -16t14 -42v-11q0 -26 -14 -42t-45 -16z" />
    <glyph glyph-name="Zcaron" unicode="&#x17d;" horiz-adv-x="548" 
d="M29 0q-10 0 -10 10v2q0 6 4 14l289 445q16 25 31.5 49t32.5 49v1q-28 -1 -56.5 -1h-57.5h-200q-11 0 -11 11v64q0 11 11 11h454q11 0 11 -10v-2q0 -6 -5 -14l-285 -435q-18 -28 -35 -54.5t-36 -53.5v-1q32 1 64.5 1h64.5h198q10 0 10 -11v-64q0 -11 -10 -11h-464z
M264 717l-127 57q-7 3 -7 10v54q0 12 11 7l130 -48l130 48q12 5 12 -7v-54q0 -7 -7 -10l-127 -57q-8 -3 -15 0z" />
    <glyph glyph-name="zcaron" unicode="&#x17e;" horiz-adv-x="467" 
d="M34 0q-11 0 -11 10v2q0 8 4 14l211 299q14 20 28.5 41t29.5 41v2q-27 -1 -55 -1h-56h-128q-10 0 -10 11v60q0 10 10 10h376q10 0 10 -9v-3q0 -4 -1 -7.5t-4 -7.5l-204 -289q-16 -22 -31.5 -45t-33.5 -46v-1h51.5h50.5h149q11 0 11 -11v-59q0 -11 -11 -11h-386zM237 551
l-117 67q-7 4 -7 14v54q0 11 12 5l119 -60l120 60q12 6 12 -5v-54q0 -10 -7 -14l-117 -67q-8 -5 -15 0z" />
    <glyph glyph-name="florin" unicode="&#x192;" horiz-adv-x="630" 
d="M230 -185q-4 0 -7 3t-3 8v522h-82q-4 0 -7 3t-3 7v60q0 5 3 7.5t7 2.5h82v83q0 77 44.5 116.5t113.5 39.5q39 0 66.5 -6t47.5 -14q8 -3 8 -11v-62q0 -13 -12 -8q-19 8 -42 14t-50 6q-36 0 -58.5 -18t-22.5 -60v-80h143q5 0 8 -2.5t3 -7.5v-60q0 -4 -3 -7t-8 -3h-143v-522
q0 -5 -3 -8t-8 -3h-74z" />
    <glyph glyph-name="uni0218" unicode="&#x218;" horiz-adv-x="569" 
d="M278 -12q-122 0 -178.5 51.5t-50.5 137.5q1 17 13 17h72q12 0 12 -15q0 -58 34.5 -83t104.5 -25q68 0 102.5 23.5t34.5 72.5q0 24 -8 41t-27 30.5t-52 26.5l-146 61q-47 20 -75.5 44t-41 55t-12.5 70q1 84 56 127.5t161 43.5q73 0 126 -21t80 -61.5t21 -100.5
q-2 -18 -11 -18h-73q-6 0 -8.5 4t-1.5 14q4 48 -32.5 74.5t-102.5 26.5q-59 0 -89 -21t-31 -64q0 -22 8.5 -39t28 -31t53.5 -29l145 -61q46 -19 74.5 -42.5t41 -54.5t11.5 -74q0 -85 -57.5 -132.5t-181.5 -47.5zM262 -236q-7 0 -6 10l15 67q-15 5 -22 15.5t-7 27.5v17
q0 21 13 32.5t34 11.5q28 0 40.5 -11.5t12.5 -32.5v-18q0 -13 -2 -25.5t-7 -25.5l-20 -62q-3 -6 -11 -6h-40z" />
    <glyph glyph-name="uni0219" unicode="&#x219;" horiz-adv-x="466" 
d="M234 -12q-93 0 -138.5 39.5t-44.5 119.5q0 9 10 9h74q9 0 9 -9q0 -42 21.5 -61t68.5 -19t70.5 15.5t23.5 44.5q0 22 -13.5 37t-43.5 28l-114 47q-54 23 -77 52t-23 76q0 67 43 100.5t128 33.5q88 0 135.5 -35.5t47.5 -101.5q0 -10 -11 -10h-73q-10 0 -10 16
q0 25 -22.5 39t-62.5 14t-60 -14t-20 -42q0 -21 11 -31.5t45 -25.5l114 -48q53 -21 77 -51.5t24 -78.5q0 -70 -49 -107t-140 -37zM217 -237q-7 0 -6 10l15 67q-15 5 -22 15.5t-7 27.5v17q0 21 13 32.5t34 11.5q28 0 40.5 -11.5t12.5 -32.5v-18q0 -13 -2.5 -25.5t-6.5 -25.5
l-20 -61q-2 -7 -11 -7h-40z" />
    <glyph glyph-name="uni021A" unicode="&#x21a;" horiz-adv-x="538" 
d="M232 0q-11 0 -11 11v558h-178q-10 0 -10 11v64q0 11 10 11h452q10 0 10 -11v-64q0 -11 -10 -11h-178v-558q0 -11 -11 -11h-74zM239 -236q-7 0 -6 10l15 67q-15 5 -22 15.5t-7 27.5v17q0 21 13 32.5t34 11.5q28 0 40.5 -11.5t12.5 -32.5v-18q0 -13 -2 -25.5t-7 -25.5
l-20 -62q-3 -6 -11 -6h-40z" />
    <glyph glyph-name="uni021B" unicode="&#x21b;" horiz-adv-x="388" 
d="M250 -12q-53 0 -85 17.5t-46 53.5t-14 90v259h-76q-11 0 -11 11v60q0 10 11 10h78l12 120q1 11 12 11h58q10 0 10 -11l1 -120h145q11 0 11 -10v-60q0 -11 -11 -11h-145v-255q0 -45 16 -64t54 -19q20 0 39.5 4.5t34.5 11.5q13 5 13 -8v-61q0 -9 -9 -12q-18 -7 -42.5 -12
t-55.5 -5zM209 -237q-7 0 -6 10l15 67q-15 5 -22 15.5t-7 27.5v17q0 21 13 32.5t34 11.5q28 0 40.5 -11.5t12.5 -32.5v-18q0 -13 -2.5 -25.5t-6.5 -25.5l-20 -61q-2 -7 -11 -7h-40z" />
    <glyph glyph-name="uni0237" unicode="&#x237;" horiz-adv-x="239" 
d="M46 -190q-8 -5 -14 3l-44 54q-3 5 -2.5 8.5t5.5 6.5q25 18 43 44t28 61t10 81v411q0 5 3 7.5t7 2.5h74q5 0 8 -2.5t3 -7.5v-416q0 -61 -13 -108.5t-39.5 -83t-68.5 -61.5z" />
    <glyph glyph-name="uni02BC" unicode="&#x2bc;" horiz-adv-x="160" 
d="M50 514q-7 0 -6 10l15 67q-15 5 -22 15.5t-7 27.5v17q0 21 13 32.5t34 11.5q28 0 40.5 -11.5t12.5 -32.5v-18q0 -13 -2 -25.5t-7 -25.5l-20 -62q-3 -6 -11 -6h-40z" />
    <glyph glyph-name="circumflex" unicode="&#x2c6;" horiz-adv-x="323" 
d="M42 551q-12 -6 -12 5v55q0 9 7 13l117 67q7 5 15 0l117 -67q7 -4 7 -13v-55q0 -11 -12 -5l-120 60z" />
    <glyph glyph-name="caron" unicode="&#x2c7;" horiz-adv-x="323" 
d="M154 551l-117 67q-7 4 -7 14v54q0 11 12 5l119 -60l120 60q12 6 12 -5v-54q0 -10 -7 -14l-117 -67q-8 -5 -15 0z" />
    <glyph glyph-name="breve" unicode="&#x2d8;" horiz-adv-x="312" 
d="M156 556q-34 0 -58.5 9.5t-40 21t-23.5 19.5q-4 4 -4 12v58q0 6 3 8.5t9 -2.5q14 -14 44 -32t70 -18q41 0 71 18t43 32q6 5 9 2.5t3 -8.5v-58q0 -4 -1 -7t-3 -6q-8 -7 -23.5 -18.5t-39.5 -21t-59 -9.5z" />
    <glyph glyph-name="dotaccent" unicode="&#x2d9;" horiz-adv-x="178" 
d="M89 568q-30 0 -44.5 16t-14.5 42v11q0 26 14.5 42t44.5 16q31 0 45 -16t14 -42v-11q0 -26 -14 -42t-45 -16z" />
    <glyph glyph-name="ring" unicode="&#x2da;" horiz-adv-x="288" 
d="M144 552q-52 0 -83 25.5t-31 73.5t30.5 73.5t83.5 25.5q52 0 83 -25.5t31 -73.5t-30.5 -73.5t-83.5 -25.5zM144 606q27 0 38 12.5t11 32.5t-11 32.5t-38 12.5q-26 0 -37.5 -12.5t-11.5 -32.5t11.5 -32.5t37.5 -12.5z" />
    <glyph glyph-name="ogonek" unicode="&#x2db;" horiz-adv-x="213" 
d="M131 -197q-51 0 -76 22.5t-25 59.5v11q0 42 31.5 76.5t85.5 51.5l19 -12v-11q-28 -13 -43 -36t-15 -48v-9q0 -35 40 -35h13.5t12.5 1q9 1 9 -7v-50q0 -4 -1.5 -6.5t-6.5 -3.5q-11 -2 -22.5 -3t-21.5 -1z" />
    <glyph glyph-name="tilde" unicode="&#x2dc;" horiz-adv-x="323" 
d="M212 566q-20 0 -36.5 7t-32 13t-34.5 6q-17 0 -36 -7t-30 -12q-13 -6 -13 6v51q0 9 6 13q10 8 29.5 17t45.5 9q25 0 41.5 -6.5t30.5 -13t31 -6.5t36 7t30 12q13 6 13 -6v-50q0 -9 -6 -14q-10 -7 -29.5 -16.5t-45.5 -9.5z" />
    <glyph glyph-name="hungarumlaut" unicode="&#x2dd;" horiz-adv-x="346" 
d="M38 556q-12 0 -7 12l52 123q3 8 12 8h73q12 0 5 -12l-65 -123q-5 -8 -12 -8h-58zM178 556q-11 0 -6 12l52 123q3 8 12 8h72q13 0 6 -12l-66 -123q-4 -8 -11 -8h-59z" />
    <glyph glyph-name="gravecomb" unicode="&#x300;" 
d="M129 556q-8 0 -12 7l-85 123q-3 4 -1.5 7.5t6.5 3.5h76q10 0 13 -7l67 -123q5 -11 -6 -11h-58z" />
    <glyph glyph-name="acutecomb" unicode="&#x301;" 
d="M37 556q-11 0 -6 11l67 123q4 7 12 7h76q6 0 7.5 -3.5t-1.5 -7.5l-85 -123q-5 -7 -12 -7h-58z" />
    <glyph glyph-name="uni0302" unicode="&#x302;" 
d="M42 551q-12 -6 -12 5v55q0 9 7 13l117 67q7 5 15 0l117 -67q7 -4 7 -13v-55q0 -11 -12 -5l-120 60z" />
    <glyph glyph-name="tildecomb" unicode="&#x303;" 
d="M212 566q-20 0 -36.5 7t-32 13t-34.5 6q-17 0 -36 -7t-30 -12q-13 -6 -13 6v51q0 9 6 13q10 8 29.5 17t45.5 9q25 0 41.5 -6.5t30.5 -13t31 -6.5t36 7t30 12q13 6 13 -6v-50q0 -9 -6 -14q-10 -7 -29.5 -16.5t-45.5 -9.5z" />
    <glyph glyph-name="uni0304" unicode="&#x304;" 
d="M41 570q-11 0 -11 11v56q0 10 11 10h199q10 0 10 -10v-56q0 -11 -10 -11h-199z" />
    <glyph glyph-name="uni0306" unicode="&#x306;" 
d="M156 556q-34 0 -58.5 9.5t-40 21t-23.5 19.5q-4 4 -4 12v58q0 6 3 8.5t9 -2.5q14 -14 44 -32t70 -18q41 0 71 18t43 32q6 5 9 2.5t3 -8.5v-58q0 -4 -1 -7t-3 -6q-8 -7 -23.5 -18.5t-39.5 -21t-59 -9.5z" />
    <glyph glyph-name="uni0307" unicode="&#x307;" 
d="M89 568q-30 0 -44.5 16t-14.5 42v11q0 26 14.5 42t44.5 16q31 0 45 -16t14 -42v-11q0 -26 -14 -42t-45 -16z" />
    <glyph glyph-name="uni0308" unicode="&#x308;" 
d="M85 568q-29 0 -42 15t-13 39v11q0 24 13 38.5t42 14.5q30 0 43 -14.5t13 -38.5v-11q0 -24 -13 -39t-43 -15zM260 568q-29 0 -42 15t-13 39v11q0 24 13 38.5t42 14.5t42 -14.5t13 -38.5v-11q0 -24 -13 -39t-42 -15z" />
    <glyph glyph-name="uni030A" unicode="&#x30a;" 
d="M144 552q-52 0 -83 25.5t-31 73.5t30.5 73.5t83.5 25.5q52 0 83 -25.5t31 -73.5t-30.5 -73.5t-83.5 -25.5zM144 606q27 0 38 12.5t11 32.5t-11 32.5t-38 12.5q-26 0 -37.5 -12.5t-11.5 -32.5t11.5 -32.5t37.5 -12.5z" />
    <glyph glyph-name="uni030B" unicode="&#x30b;" 
d="M38 556q-12 0 -7 12l52 123q3 8 12 8h73q12 0 5 -12l-65 -123q-5 -8 -12 -8h-58zM178 556q-11 0 -6 12l52 123q3 8 12 8h72q13 0 6 -12l-66 -123q-4 -8 -11 -8h-59z" />
    <glyph glyph-name="uni030C" unicode="&#x30c;" 
d="M154 551l-117 67q-7 4 -7 14v54q0 11 12 5l119 -60l120 60q12 6 12 -5v-54q0 -10 -7 -14l-117 -67q-8 -5 -15 0z" />
    <glyph glyph-name="uni0312" unicode="&#x312;" 
d="M82 562q-27 0 -39.5 11.5t-12.5 32.5v18q0 14 2 26t6 25l21 61q2 7 10 7h40q9 0 7 -10l-16 -67q16 -5 23 -15.5t7 -27.5v-17q0 -21 -13 -32.5t-35 -11.5z" />
    <glyph glyph-name="uni0313" unicode="&#x313;" 
d="M50 547q-7 0 -6 9l15 68q-15 5 -22 15.5t-7 27.5v17q0 20 13 32t34 12q28 0 40.5 -12t12.5 -32v-19q0 -13 -2 -25.5t-7 -24.5l-20 -62q-3 -6 -11 -6h-40z" />
    <glyph glyph-name="uni0324" unicode="&#x324;" 
d="M85 -174q-29 0 -42 15t-13 39v11q0 24 13 38.5t42 14.5q30 0 43 -14.5t13 -38.5v-11q0 -24 -13 -39t-43 -15zM260 -174q-29 0 -42 15t-13 39v11q0 24 13 38.5t42 14.5t42 -14.5t13 -38.5v-11q0 -24 -13 -39t-42 -15z" />
    <glyph glyph-name="uni0325" unicode="&#x325;" 
d="M144 -226q-52 0 -83 25.5t-31 73.5t30.5 73.5t83.5 25.5q52 0 83 -25.5t31 -73.5t-30.5 -73.5t-83.5 -25.5zM144 -172q27 0 38 12.5t11 32.5t-11 32.5t-38 12.5q-26 0 -37.5 -12.5t-11.5 -32.5t11.5 -32.5t37.5 -12.5z" />
    <glyph glyph-name="uni0326" unicode="&#x326;" 
d="M50 -237q-7 0 -6 10l15 67q-15 5 -22 15.5t-7 27.5v17q0 21 13 32.5t34 11.5q28 0 40.5 -11.5t12.5 -32.5v-18q0 -13 -2.5 -25.5t-6.5 -25.5l-20 -61q-2 -7 -11 -7h-40z" />
    <glyph glyph-name="uni0327" unicode="&#x327;" 
d="M82 -197q-11 0 -21.5 1t-22.5 3q-8 1 -8 9v39q0 9 8 8q7 -1 15 -1.5t14 -0.5q21 0 30.5 6.5t9.5 16.5v13q0 14 -8.5 19.5t-24.5 5.5h-23q-7 0 -7 7q0 5 0.5 10.5t1.5 9.5l23 76q2 6 10 6h52q9 0 5 -11l-19 -59h9q27 0 41 -17.5t14 -46.5v-16q0 -40 -24.5 -59t-74.5 -19z
" />
    <glyph glyph-name="uni0328" unicode="&#x328;" 
d="M131 -197q-51 0 -76 22.5t-25 59.5v11q0 42 31.5 76.5t85.5 51.5l19 -12v-11q-28 -13 -43 -36t-15 -48v-9q0 -35 40 -35h13.5t12.5 1q9 1 9 -7v-50q0 -4 -1.5 -6.5t-6.5 -3.5q-11 -2 -22.5 -3t-21.5 -1z" />
    <glyph glyph-name="uni0330" unicode="&#x330;" 
d="M212 -193q-20 0 -36.5 7t-32 13t-34.5 6q-17 0 -36 -7t-30 -12q-13 -6 -13 6v51q0 9 6 13q10 8 29.5 17t45.5 9q25 0 41.5 -6.5t30.5 -13t31 -6.5t36 7t30 12q13 6 13 -6v-50q0 -9 -6 -14q-10 -7 -29.5 -16.5t-45.5 -9.5z" />
    <glyph glyph-name="uni0331" unicode="&#x331;" 
d="M41 -187q-11 0 -11 11v56q0 10 11 10h199q10 0 10 -10v-56q0 -11 -10 -11h-199z" />
    <glyph glyph-name="uni0335" unicode="&#x335;" 
d="M40 229q-10 0 -10 11v51q0 11 10 11h334q11 0 11 -11v-51q0 -11 -11 -11h-334z" />
    <glyph glyph-name="uni0336" unicode="&#x336;" 
d="M40 229q-10 0 -10 11v51q0 11 10 11h725q10 0 10 -11v-51q0 -11 -10 -11h-725z" />
    <glyph glyph-name="tonos" unicode="&#x384;" horiz-adv-x="186" 
d="M38 546q-10 0 -8 10l32 135q2 9 11 9h75q11 0 7 -12l-51 -134q-4 -8 -12 -8h-54z" />
    <glyph glyph-name="dieresistonos" unicode="&#x385;" horiz-adv-x="337" 
d="M139 719q-11 0 -9 11l25 122q2 9 10 9h75q6 0 8 -3t0 -8l-43 -122q-4 -9 -12 -9h-54zM85 570q-29 0 -42 15t-13 38v12q0 24 13 38.5t42 14.5q30 0 43 -14.5t13 -38.5v-12q0 -23 -13 -38t-43 -15zM252 570q-29 0 -42.5 15t-13.5 38v12q0 24 13.5 38.5t42.5 14.5t42 -14.5
t13 -38.5v-12q0 -23 -13 -38t-42 -15z" />
    <glyph glyph-name="Alphatonos" unicode="&#x386;" horiz-adv-x="575" 
d="M16 0q-12 0 -9 12l220 635q3 8 12 8h101q10 0 13 -8l222 -635q3 -12 -9 -12h-81q-10 0 -13 8l-143 439q-10 30 -20 61t-21 62h-1q-9 -30 -19 -60.5t-20 -60.5l-142 -440q-3 -9 -12 -9h-78zM135 148l21 82h264l22 -82h-307zM47 511q-10 0 -8 10l23 126q1 8 10 8h76
q9 0 6 -12l-40 -124q-3 -8 -12 -8h-55z" />
    <glyph glyph-name="anoteleia" unicode="&#x387;" horiz-adv-x="242" 
d="M121 350q-33 0 -47.5 16.5t-14.5 44.5v12q0 27 14.5 43.5t47.5 16.5t47.5 -16.5t14.5 -43.5v-12q0 -28 -14.5 -44.5t-47.5 -16.5z" />
    <glyph glyph-name="Epsilontonos" unicode="&#x388;" horiz-adv-x="618" 
d="M175 0q-10 0 -10 11v633q0 11 10 11h364q10 0 10 -11v-64q0 -11 -10 -11h-279v-195h255q10 0 10 -11v-61q0 -11 -10 -11h-255v-205h279q10 0 10 -11v-64q0 -11 -10 -11h-364zM8 511q-10 0 -8 10l23 126q1 8 10 8h76q9 0 6 -12l-40 -124q-3 -8 -12 -8h-55z" />
    <glyph glyph-name="Etatonos" unicode="&#x389;" horiz-adv-x="746" 
d="M175 0q-10 0 -10 11v633q0 11 10 11h75q10 0 10 -11v-266h309v266q0 11 10 11h75q11 0 11 -11v-633q0 -11 -11 -11h-75q-10 0 -10 11v284h-309v-284q0 -11 -10 -11h-75zM8 511q-10 0 -8 10l23 126q1 8 10 8h76q9 0 6 -12l-40 -124q-3 -8 -12 -8h-55z" />
    <glyph glyph-name="Iotatonos" unicode="&#x38a;" horiz-adv-x="342" 
d="M175 0q-10 0 -10 11v633q0 11 10 11h75q10 0 10 -11v-633q0 -11 -10 -11h-75zM8 511q-10 0 -8 10l23 126q1 8 10 8h76q9 0 6 -12l-40 -124q-3 -8 -12 -8h-55z" />
    <glyph glyph-name="Omicrontonos" unicode="&#x38c;" horiz-adv-x="686" 
d="M364 -12q-127 0 -189.5 62t-62.5 176v203q0 115 62.5 176.5t189.5 61.5t190 -61.5t63 -176.5v-203q0 -114 -63 -176t-190 -62zM364 72q78 0 118 40t40 117v197q0 78 -40 117.5t-118 39.5q-76 0 -116.5 -39.5t-40.5 -117.5v-197q0 -77 40.5 -117t116.5 -40zM8 511
q-10 0 -8 10l23 126q1 8 10 8h76q9 0 6 -12l-40 -124q-3 -8 -12 -8h-55z" />
    <glyph glyph-name="Upsilontonos" unicode="&#x38e;" horiz-adv-x="682" 
d="M372 0q-10 0 -10 11v214l-214 417q-2 6 0 9.5t7 3.5h87q9 0 12 -7l104 -215q13 -27 26 -55.5t26 -55.5h1q14 29 27 56.5t26 56.5l103 213q3 7 13 7h84q5 0 7.5 -3.5t-0.5 -9.5l-213 -417v-214q0 -11 -11 -11h-75zM8 511q-10 0 -8 10l23 126q1 8 10 8h76q9 0 6 -12
l-40 -124q-3 -8 -12 -8h-55z" />
    <glyph glyph-name="Omegatonos" unicode="&#x38f;" horiz-adv-x="687" 
d="M111 0q-10 0 -10 11v67q0 11 10 11h80v2q-31 19 -48 40.5t-24 50t-7 67.5v180q0 115 62.5 176.5t189.5 61.5t190 -61.5t63 -176.5v-180q0 -39 -7 -67.5t-24 -50t-48 -40.5v-2h80q10 0 10 -11v-67q0 -11 -10 -11h-210q-11 0 -11 11v64q0 11 10 11q35 0 60.5 16.5t40 48
t14.5 74.5v202q0 78 -40 117t-118 39q-76 0 -116.5 -39t-40.5 -117v-202q0 -64 31.5 -101.5t82.5 -37.5q11 0 11 -11v-64q0 -11 -11 -11h-210zM8 511q-10 0 -8 10l23 126q1 8 10 8h76q9 0 6 -12l-40 -124q-3 -8 -12 -8h-55z" />
    <glyph glyph-name="iotadieresistonos" unicode="&#x390;" horiz-adv-x="330" 
d="M227 -12q-54 0 -88.5 14t-50.5 45t-16 81v351q0 10 10 10h74q11 0 11 -10v-352q0 -33 15.5 -46t52.5 -13q19 0 34 2.5t30 5.5q12 2 12 -10v-58q0 -7 -9 -10q-14 -5 -35 -7.5t-40 -2.5zM90 719q-11 0 -9 11l25 122q2 9 10 9h75q6 0 8 -3t0 -8l-43 -122q-4 -9 -12 -9h-54z
M36 570q-29 0 -42 15t-13 38v12q0 24 13 38.5t42 14.5q30 0 43 -14.5t13 -38.5v-12q0 -23 -13 -38t-43 -15zM203 570q-29 0 -42.5 15t-13.5 38v12q0 24 13.5 38.5t42.5 14.5t42 -14.5t13 -38.5v-12q0 -23 -13 -38t-42 -15z" />
    <glyph glyph-name="Alpha" unicode="&#x391;" horiz-adv-x="568" 
d="M9 0q-12 0 -9 12l220 635q3 8 12 8h101q10 0 13 -8l222 -635q3 -12 -9 -12h-81q-10 0 -13 8l-143 439q-10 30 -20 61t-21 62h-1q-9 -30 -19 -60.5t-20 -60.5l-142 -440q-3 -9 -12 -9h-78zM128 148l21 82h264l22 -82h-307z" />
    <glyph glyph-name="Beta" unicode="&#x392;" horiz-adv-x="578" 
d="M92 0q-10 0 -10 11v633q0 11 10 11h184q116 0 173 -40.5t57 -122.5q0 -55 -25.5 -89t-84.5 -55v-2q69 -13 103.5 -54t34.5 -110q0 -94 -62 -138t-195 -44h-185zM177 82h100q87 0 124.5 24.5t37.5 81.5q0 59 -38 86t-121 27h-103v-219zM177 376h96q72 0 105 24.5t33 76.5
q0 53 -34 75t-113 22h-87v-198z" />
    <glyph glyph-name="Gamma" unicode="&#x393;" horiz-adv-x="476" 
d="M92 0q-10 0 -10 11v633q0 11 10 11h345q10 0 10 -11v-64q0 -11 -10 -11h-260v-558q0 -11 -10 -11h-75z" />
    <glyph glyph-name="uni0394" unicode="&#x394;" horiz-adv-x="559" 
d="M25 0q-11 0 -11 11v46q0 4 0.5 7t1.5 6l200 577q3 8 12 8h102q9 0 12 -8l201 -575q1 -3 1.5 -6.5t0.5 -6.5v-48q0 -11 -10 -11h-510zM119 85h319l-127 384q-9 25 -17.5 50t-15.5 51h-2q-8 -26 -16.5 -52t-16.5 -51z" />
    <glyph glyph-name="Epsilon" unicode="&#x395;" horiz-adv-x="535" 
d="M92 0q-10 0 -10 11v633q0 11 10 11h364q10 0 10 -11v-64q0 -11 -10 -11h-279v-195h255q10 0 10 -11v-61q0 -11 -10 -11h-255v-205h279q10 0 10 -11v-64q0 -11 -10 -11h-364z" />
    <glyph glyph-name="Zeta" unicode="&#x396;" horiz-adv-x="548" 
d="M29 0q-10 0 -10 10v2q0 6 4 14l289 445q16 25 31.5 49t32.5 49v1q-28 -1 -56.5 -1h-57.5h-200q-11 0 -11 11v64q0 11 11 11h454q11 0 11 -10v-2q0 -6 -5 -14l-285 -435q-18 -28 -35 -54.5t-36 -53.5v-1q32 1 64.5 1h64.5h198q10 0 10 -11v-64q0 -11 -10 -11h-464z" />
    <glyph glyph-name="Eta" unicode="&#x397;" horiz-adv-x="663" 
d="M92 0q-10 0 -10 11v633q0 11 10 11h75q10 0 10 -11v-266h309v266q0 11 10 11h75q11 0 11 -11v-633q0 -11 -11 -11h-75q-10 0 -10 11v284h-309v-284q0 -11 -10 -11h-75z" />
    <glyph glyph-name="Theta" unicode="&#x398;" horiz-adv-x="645" 
d="M243 292q-10 0 -10 10v61q0 10 10 10h159q10 0 10 -10v-61q0 -10 -10 -10h-159zM322 -12q-127 0 -189.5 62t-62.5 176v203q0 115 62.5 176.5t189.5 61.5t190 -61.5t63 -176.5v-203q0 -114 -63 -176t-190 -62zM322 72q78 0 118 40t40 117v197q0 78 -40 117.5t-118 39.5
q-76 0 -116.5 -39.5t-40.5 -117.5v-197q0 -77 40.5 -117t116.5 -40z" />
    <glyph glyph-name="Iota" unicode="&#x399;" horiz-adv-x="259" 
d="M92 0q-10 0 -10 11v633q0 11 10 11h75q10 0 10 -11v-633q0 -11 -10 -11h-75z" />
    <glyph glyph-name="Kappa" unicode="&#x39a;" horiz-adv-x="585" 
d="M477 0q-8 0 -13 6l-272 317q-7 8 0 15l263 311q5 6 14 6h88q7 0 9.5 -3.5t-2.5 -9.5l-263 -305l281 -324q5 -6 2 -9.5t-9 -3.5h-98zM92 0q-10 0 -10 11v633q0 11 10 11h75q10 0 10 -11v-633q0 -11 -10 -11h-75z" />
    <glyph glyph-name="Lambda" unicode="&#x39b;" horiz-adv-x="562" 
d="M9 0q-12 0 -9 12l217 635q3 8 12 8h101q10 0 13 -8l219 -635q3 -12 -9 -12h-81q-10 0 -13 8l-141 439q-10 30 -20 61l-20 62h-1q-9 -30 -18 -61t-19 -61l-141 -439q-3 -9 -12 -9h-78z" />
    <glyph glyph-name="Mu" unicode="&#x39c;" horiz-adv-x="774" 
d="M77 0q-10 0 -10 11l14 633q0 11 10 11h113q8 0 12 -8l172 -385l170 385q4 8 12 8h113q10 0 10 -11l14 -633q0 -11 -10 -11h-73q-10 0 -10 11l-10 378q-1 37 0.5 74.5t3.5 75.5h-3q-15 -38 -31 -75t-34 -74l-140 -302q-4 -8 -12 -8h-3q-8 0 -11 8l-143 306
q-16 36 -31.5 72.5t-29.5 72.5h-3q2 -36 3 -73.5t0 -73.5l-10 -381q0 -11 -10 -11h-73z" />
    <glyph glyph-name="Nu" unicode="&#x39d;" horiz-adv-x="664" 
d="M92 0q-10 0 -10 11v633q0 11 10 11h124q9 0 12 -7l180 -365q19 -36 33.5 -66t26 -57t21.5 -51h2q-1 27 -1 58t-0.5 62.5t-0.5 57.5v357q0 11 10 11h73q11 0 11 -11v-633q0 -11 -11 -11h-121q-9 0 -13 7l-176 355q-16 32 -30.5 63t-28.5 61t-27 60h-2q0 -34 1 -65t1 -62
v-65v-343q0 -11 -11 -11h-73z" />
    <glyph glyph-name="Xi" unicode="&#x39e;" horiz-adv-x="567" 
d="M68 565q-10 0 -10 10v69q0 11 10 11h431q10 0 10 -11v-69q0 -10 -10 -10h-431zM68 0q-10 0 -10 11v69q0 10 10 10h431q10 0 10 -10v-69q0 -11 -10 -11h-431zM146 288q-10 0 -10 10v69q0 11 10 11h274q10 0 10 -11v-69q0 -10 -10 -10h-274z" />
    <glyph glyph-name="Omicron" unicode="&#x39f;" horiz-adv-x="645" 
d="M322 -12q-127 0 -189.5 62t-62.5 176v203q0 115 62.5 176.5t189.5 61.5t190 -61.5t63 -176.5v-203q0 -114 -63 -176t-190 -62zM322 72q78 0 118 40t40 117v197q0 78 -40 117.5t-118 39.5q-76 0 -116.5 -39.5t-40.5 -117.5v-197q0 -77 40.5 -117t116.5 -40z" />
    <glyph glyph-name="Pi" unicode="&#x3a0;" horiz-adv-x="662" 
d="M92 0q-10 0 -10 11v633q0 11 10 11h478q10 0 10 -11v-633q0 -11 -10 -11h-75q-10 0 -10 11v558h-308v-558q0 -11 -10 -11h-75z" />
    <glyph glyph-name="Rho" unicode="&#x3a1;" horiz-adv-x="549" 
d="M92 0q-10 0 -10 11v633q0 11 10 11h173q123 0 184.5 -52.5t61.5 -154.5q0 -101 -62 -153.5t-184 -52.5h-88v-231q0 -11 -10 -11h-75zM177 323h86q79 0 115.5 29.5t36.5 92.5q0 68 -37.5 98.5t-116.5 30.5h-84v-251z" />
    <glyph glyph-name="Sigma" unicode="&#x3a3;" horiz-adv-x="527" 
d="M49 0q-10 0 -10 11v56q0 6 5 13l211 250l-211 245q-5 7 -5 13v56q0 11 10 11h433q11 0 11 -11v-64q0 -11 -11 -11h-221q-25 0 -52 1t-52 1v-2q21 -21 39.5 -42t37.5 -43l107 -124q5 -7 5 -13v-34q0 -5 -5 -13l-103 -119q-21 -24 -42 -47.5t-43 -47.5v-2q28 1 58 1.5
t58 0.5h213q11 0 11 -11v-64q0 -11 -11 -11h-433z" />
    <glyph glyph-name="Tau" unicode="&#x3a4;" horiz-adv-x="538" 
d="M232 0q-11 0 -11 11v558h-178q-10 0 -10 11v64q0 11 10 11h452q10 0 10 -11v-64q0 -11 -10 -11h-178v-558q0 -11 -11 -11h-74z" />
    <glyph glyph-name="Upsilon" unicode="&#x3a5;" horiz-adv-x="544" 
d="M234 0q-10 0 -10 11v214l-214 417q-2 6 0 9.5t7 3.5h87q9 0 12 -7l104 -215q13 -27 26 -55.5t26 -55.5h1q14 29 27 56.5t26 56.5l103 213q3 7 13 7h84q5 0 7.5 -3.5t-0.5 -9.5l-213 -417v-214q0 -11 -11 -11h-75z" />
    <glyph glyph-name="Phi" unicode="&#x3a6;" horiz-adv-x="812" 
d="M317 67q-88 0 -142.5 24t-79.5 75t-25 132v89q0 80 25 131.5t79.5 75.5t142.5 24h178q83 0 138 -22t82 -72.5t27 -136.5v-89q0 -85 -27 -136t-82 -73t-138 -22h-178zM317 147h178q77 0 115 30t38 114v103q0 84 -38 114t-115 30h-178q-78 0 -115.5 -31t-37.5 -113v-103
q0 -81 37.5 -112.5t115.5 -31.5zM369 -14q-10 0 -10 10v95l2 30v442l-2 31v94q0 11 10 11h75q10 0 10 -11v-93l-2 -30v-445l2 -31v-93q0 -10 -10 -10h-75z" />
    <glyph glyph-name="Chi" unicode="&#x3a7;" horiz-adv-x="559" 
d="M13 0q-6 0 -8 3.5t2 9.5l213 325l-200 304q-3 6 -1.5 9.5t8.5 3.5h91q7 0 11 -6l107 -165q11 -18 23 -38t23 -38h1q12 20 24 40.5t25 39.5l103 161q5 6 12 6h87q6 0 8 -3.5t-2 -9.5l-198 -306l210 -323q4 -6 2 -9.5t-8 -3.5h-91q-8 0 -13 6l-112 175q-13 19 -26 41
t-25 42h-1q-12 -19 -25 -40.5t-25 -40.5l-113 -176q-5 -7 -12 -7h-90z" />
    <glyph glyph-name="Psi" unicode="&#x3a8;" horiz-adv-x="795" 
d="M266 165q-66 0 -109 21t-64 62.5t-21 103.5v292q0 11 10 11h75q10 0 10 -11v-298q0 -49 27.5 -73t73.5 -24h259q47 0 74 24t27 73v298q0 11 10 11h75q10 0 10 -11v-292q0 -61 -21 -103t-64 -63t-109 -21h-263zM362 0q-11 0 -11 11v633q0 11 11 11h72q11 0 11 -11v-633
q0 -11 -11 -11h-72z" />
    <glyph glyph-name="uni03A9" unicode="&#x3a9;" horiz-adv-x="645" 
d="M69 0q-10 0 -10 11v67q0 11 10 11h80v2q-31 19 -48 40.5t-24 50t-7 67.5v180q0 115 62.5 176.5t189.5 61.5t190 -61.5t63 -176.5v-180q0 -39 -7 -67.5t-24 -50t-48 -40.5v-2h80q10 0 10 -11v-67q0 -11 -10 -11h-210q-11 0 -11 11v64q0 11 10 11q35 0 60.5 16.5t40 48
t14.5 74.5v202q0 78 -40 117t-118 39q-76 0 -116.5 -39t-40.5 -117v-202q0 -64 31.5 -101.5t82.5 -37.5q11 0 11 -11v-64q0 -11 -11 -11h-210z" />
    <glyph glyph-name="Iotadieresis" unicode="&#x3aa;" horiz-adv-x="259" 
d="M92 0q-10 0 -10 11v633q0 11 10 11h75q10 0 10 -11v-633q0 -11 -10 -11h-75zM43 710q-29 0 -42 15.5t-13 38.5v11q0 25 13 39.5t42 14.5q30 0 43 -14.5t13 -39.5v-11q0 -23 -13 -38.5t-43 -15.5zM217 710q-29 0 -42 15.5t-13 38.5v11q0 25 13 39.5t42 14.5t42.5 -14.5
t13.5 -39.5v-11q0 -23 -13.5 -38.5t-42.5 -15.5z" />
    <glyph glyph-name="Upsilondieresis" unicode="&#x3ab;" horiz-adv-x="544" 
d="M234 0q-10 0 -10 11v214l-214 417q-2 6 0 9.5t7 3.5h87q9 0 12 -7l104 -215q13 -27 26 -55.5t26 -55.5h1q14 29 27 56.5t26 56.5l103 213q3 7 13 7h84q5 0 7.5 -3.5t-0.5 -9.5l-213 -417v-214q0 -11 -11 -11h-75zM185 710q-29 0 -42 15.5t-13 38.5v11q0 25 13 39.5
t42 14.5q30 0 43 -14.5t13 -39.5v-11q0 -23 -13 -38.5t-43 -15.5zM359 710q-29 0 -42 15.5t-13 38.5v11q0 25 13 39.5t42 14.5t42.5 -14.5t13.5 -39.5v-11q0 -23 -13.5 -38.5t-42.5 -15.5z" />
    <glyph glyph-name="alphatonos" unicode="&#x3ac;" horiz-adv-x="552" 
d="M203 -12q-70 0 -107 46t-37 137v128q0 96 47 149t132 53q42 0 83.5 -17t64.5 -36l2 -76q-30 20 -65 33t-65 13q-53 0 -78.5 -32t-25.5 -97v-117q0 -50 19 -75.5t58 -25.5q24 0 47 9.5t51 30.5t64 58v-81q-33 -32 -63 -55t-61 -34t-66 -11zM489 -12q-53 0 -81 22.5
t-28 73.5v21l-6 31v261l6 34v48q0 10 10 10h68q11 0 11 -10v-357q0 -34 8.5 -43.5t29.5 -9.5q7 0 15 1t15 1q11 1 11 -10v-58q0 -4 -2 -6.5t-8 -3.5q-11 -2 -24.5 -3.5t-24.5 -1.5zM220 546q-10 0 -8 10l32 135q2 9 11 9h75q11 0 7 -12l-51 -134q-4 -8 -12 -8h-54z" />
    <glyph glyph-name="epsilontonos" unicode="&#x3ad;" horiz-adv-x="494" 
d="M249 -12q-92 0 -144 35.5t-52 101.5q0 44 21.5 78t72.5 43v3q-37 12 -60 44t-23 75q0 68 46 100.5t139 32.5q95 0 146.5 -37t46.5 -96q-1 -17 -14 -17h-72q-10 0 -10 15q0 27 -24 41.5t-73 14.5q-45 0 -70 -16.5t-25 -50.5q0 -36 27.5 -54t88.5 -18h58q10 0 10 -10v-50
q0 -11 -10 -11h-77q-58 0 -81 -20.5t-23 -62.5q0 -30 26.5 -46t79.5 -16q50 0 75.5 14t25.5 42q0 15 9 15h73q11 0 12 -18q7 -61 -44.5 -96.5t-154.5 -35.5zM207 546q-10 0 -8 10l32 135q2 9 11 9h75q11 0 7 -12l-51 -134q-4 -8 -12 -8h-54z" />
    <glyph glyph-name="etatonos" unicode="&#x3ae;" horiz-adv-x="575" 
d="M419 -185q-11 0 -11 11v500q0 48 -19 70t-59 22q-37 0 -74 -22.5t-89 -74.5l-1 80q32 35 62.5 57t61.5 32.5t66 10.5q72 0 109.5 -41.5t37.5 -124.5v-509q0 -11 -10 -11h-74zM101 0q-10 0 -10 11v363q0 30 -8 38.5t-27 8.5q-7 0 -15 -1t-15 -1q-12 0 -12 10v57q0 5 3 7
t8 4q14 2 30.5 3t27.5 1q46 0 71.5 -22t25.5 -63v-20l6 -41v-344q0 -11 -11 -11h-74zM248 546q-10 0 -8 10l32 135q2 9 11 9h75q11 0 7 -12l-51 -134q-4 -8 -12 -8h-54z" />
    <glyph glyph-name="iotatonos" unicode="&#x3af;" horiz-adv-x="330" 
d="M227 -12q-54 0 -88.5 14t-50.5 45t-16 81v351q0 10 10 10h74q11 0 11 -10v-352q0 -33 15.5 -46t52.5 -13q19 0 34 2.5t30 5.5q12 2 12 -10v-58q0 -7 -9 -10q-14 -5 -35 -7.5t-40 -2.5zM82 546q-10 0 -8 10l32 135q2 9 11 9h75q11 0 7 -12l-51 -134q-4 -8 -12 -8h-54z" />
    <glyph glyph-name="upsilondieresistonos" unicode="&#x3b0;" horiz-adv-x="556" 
d="M291 -12q-70 0 -114.5 21.5t-65 62.5t-20.5 100v202q0 30 -8 38.5t-27 8.5q-7 0 -15 -1t-15 -1q-12 0 -12 10v57q0 5 3 7t8 4q14 2 30.5 3t28.5 1q48 0 75 -24.5t27 -72.5v-240q0 -46 28.5 -69.5t76.5 -23.5q47 0 74.5 25.5t27.5 77.5v64q0 75 -6 136t-12 104
q-2 11 10 11h74q10 0 11 -9q7 -39 12.5 -95.5t5.5 -124.5v-77q0 -64 -21 -107.5t-65 -65.5t-111 -22zM242 719q-11 0 -9 11l25 122q2 9 10 9h75q6 0 8 -3t0 -8l-43 -122q-4 -9 -12 -9h-54zM188 570q-29 0 -42 15t-13 38v12q0 24 13 38.5t42 14.5q30 0 43 -14.5t13 -38.5v-12
q0 -23 -13 -38t-43 -15zM355 570q-29 0 -42.5 15t-13.5 38v12q0 24 13.5 38.5t42.5 14.5t42 -14.5t13 -38.5v-12q0 -23 -13 -38t-42 -15z" />
    <glyph glyph-name="alpha" unicode="&#x3b1;" horiz-adv-x="552" 
d="M203 -12q-70 0 -107 46t-37 137v128q0 96 47 149t132 53q42 0 83.5 -17t64.5 -36l2 -76q-30 20 -65 33t-65 13q-53 0 -78.5 -32t-25.5 -97v-117q0 -50 19 -75.5t58 -25.5q24 0 47 9.5t51 30.5t64 58v-81q-33 -32 -63 -55t-61 -34t-66 -11zM489 -12q-53 0 -81 22.5
t-28 73.5v21l-6 31v261l6 34v48q0 10 10 10h68q11 0 11 -10v-357q0 -34 8.5 -43.5t29.5 -9.5q7 0 15 1t15 1q11 1 11 -10v-58q0 -4 -2 -6.5t-8 -3.5q-11 -2 -24.5 -3.5t-24.5 -1.5z" />
    <glyph glyph-name="beta" unicode="&#x3b2;" horiz-adv-x="546" 
d="M82 -185q-10 0 -10 11v688q0 89 49 135t147 46q89 0 134.5 -37t45.5 -110v-30q0 -51 -18.5 -79t-48.5 -45v-2q52 -12 80 -48.5t28 -98.5v-84q0 -83 -44.5 -128t-134.5 -45q-43 0 -85 13t-70 26l-2 83q28 -19 66 -29.5t71 -10.5q53 0 79 25.5t26 76.5v64q0 37 -9.5 59.5
t-27 32.5t-45.5 10h-69q-11 0 -11 11v52q0 10 9 10h8q43 0 65.5 7.5t30.5 28t8 60.5v18q0 46 -22 67.5t-67 21.5q-48 0 -73.5 -24t-25.5 -71v-693q0 -11 -10 -11h-74z" />
    <glyph glyph-name="gamma" unicode="&#x3b3;" horiz-adv-x="510" 
d="M227 -185q-11 0 -11 11v131q-6 56 -22.5 125t-38 138.5t-42.5 126.5q-13 34 -23.5 50t-21.5 21t-27 5q-8 0 -17 -0.5t-17 -1.5q-11 -2 -11 9v55q0 9 8 11q12 3 24.5 4t25.5 1q40 0 68.5 -11.5t49 -43t36.5 -94.5q8 -26 15 -51.5t13 -50.5q7 -23 12.5 -47t10.5 -48t9 -48
h2q12 36 25.5 73.5t27.5 78.5l84 222q3 8 12 8h81q13 0 8 -12l-197 -480v-171q0 -11 -10 -11h-74z" />
    <glyph glyph-name="delta" unicode="&#x3b4;" horiz-adv-x="539" 
d="M269 -12q-102 0 -156 50t-54 150v63q0 42 11 74.5t36.5 58t68 45.5t104.5 37l46 -46q-58 -22 -92 -41t-51 -38.5t-22.5 -44t-5.5 -57.5v-42q0 -64 27.5 -95t87.5 -31q61 0 88 31t27 95v53q0 40 -8.5 67t-31 51t-64.5 57l-117 95q-33 26 -45 47.5t-12 45.5q0 31 27 50.5
t86 19.5h227q11 0 11 -11v-56q0 -10 -11 -10h-216q-23 0 -23 -12q0 -7 8.5 -15t25.5 -21l121 -97q33 -27 55.5 -51t36 -49t20 -53.5t6.5 -64.5v-55q0 -100 -53.5 -150t-157.5 -50z" />
    <glyph glyph-name="epsilon" unicode="&#x3b5;" horiz-adv-x="494" 
d="M249 -12q-92 0 -144 35.5t-52 101.5q0 44 21.5 78t72.5 43v3q-37 12 -60 44t-23 75q0 68 46 100.5t139 32.5q95 0 146.5 -37t46.5 -96q-1 -17 -14 -17h-72q-10 0 -10 15q0 27 -24 41.5t-73 14.5q-45 0 -70 -16.5t-25 -50.5q0 -36 27.5 -54t88.5 -18h58q10 0 10 -10v-50
q0 -11 -10 -11h-77q-58 0 -81 -20.5t-23 -62.5q0 -30 26.5 -46t79.5 -16q50 0 75.5 14t25.5 42q0 15 9 15h73q11 0 12 -18q7 -61 -44.5 -96.5t-154.5 -35.5z" />
    <glyph glyph-name="zeta" unicode="&#x3b6;" horiz-adv-x="439" 
d="M344 -130q-11 0 -11 10v81q0 15 -4.5 23.5t-16.5 12t-36 3.5h-26q-105 0 -156 47.5t-51 136.5q0 51 17.5 103t52 104.5t85.5 104.5l108 110h-246q-10 0 -10 10v56q0 11 10 11h348q11 0 11 -11v-48q0 -5 -5 -12l-119 -129q-53 -57 -88 -110t-52 -102t-17 -95
q0 -52 32.5 -74.5t100.5 -22.5q64 0 97 -6.5t45 -26t12 -59.5v-107q0 -10 -11 -10h-70z" />
    <glyph glyph-name="eta" unicode="&#x3b7;" horiz-adv-x="575" 
d="M419 -185q-11 0 -11 11v500q0 48 -19 70t-59 22q-37 0 -74 -22.5t-89 -74.5l-1 80q32 35 62.5 57t61.5 32.5t66 10.5q72 0 109.5 -41.5t37.5 -124.5v-509q0 -11 -10 -11h-74zM101 0q-10 0 -10 11v363q0 30 -8 38.5t-27 8.5q-7 0 -15 -1t-15 -1q-12 0 -12 10v57q0 5 3 7
t8 4q14 2 30.5 3t27.5 1q46 0 71.5 -22t25.5 -63v-20l6 -41v-344q0 -11 -11 -11h-74z" />
    <glyph glyph-name="theta" unicode="&#x3b8;" horiz-adv-x="567" 
d="M284 695q108 0 160 -49t52 -137v-335q0 -87 -52 -136.5t-160 -49.5q-107 0 -159.5 49.5t-52.5 136.5v335q0 88 52.5 137t159.5 49zM284 612q-56 0 -87 -25.5t-31 -76.5v-116h235v117q0 50 -30.5 75.5t-86.5 25.5zM284 71q56 0 86.5 25.5t30.5 76.5v144h-235v-144
q0 -51 31 -76.5t87 -25.5z" />
    <glyph glyph-name="iota" unicode="&#x3b9;" horiz-adv-x="330" 
d="M227 -12q-54 0 -88.5 14t-50.5 45t-16 81v351q0 10 10 10h74q11 0 11 -10v-352q0 -33 15.5 -46t52.5 -13q19 0 34 2.5t30 5.5q12 2 12 -10v-58q0 -7 -9 -10q-14 -5 -35 -7.5t-40 -2.5z" />
    <glyph glyph-name="kappa" unicode="&#x3ba;" horiz-adv-x="490" 
d="M382 0q-7 0 -12 5l-184 237q-6 8 0 16l175 226q4 5 12 5h92q6 0 8 -3.5t-3 -8.5l-179 -222l196 -242q5 -6 2.5 -9.5t-9.5 -3.5h-98zM82 0q-10 0 -10 11v468q0 10 10 10h74q11 0 11 -10v-468q0 -11 -11 -11h-74z" />
    <glyph glyph-name="lambda" unicode="&#x3bb;" horiz-adv-x="519" 
d="M469 -12q-40 0 -65.5 12t-43 42t-34.5 84l-30 93q-13 41 -24.5 81t-23.5 87h-2q-15 -47 -31 -88t-33 -84l-79 -206q-3 -9 -11 -9h-79q-13 0 -8 13l181 448q3 8 12 8h18l-30 90q-13 36 -28.5 45.5t-38.5 9.5q-10 0 -19.5 -0.5t-20.5 -2.5q-12 -2 -12 10v58q0 10 10 11
q13 3 28 4t29 1q38 0 66 -11.5t48 -38.5t35 -76l138 -442q11 -35 24 -46.5t34 -11.5q8 0 15 1t17 2q11 2 11 -10l1 -58q0 -10 -10 -11q-11 -2 -22.5 -3.5t-21.5 -1.5z" />
    <glyph glyph-name="uni03BC" unicode="&#x3bc;" horiz-adv-x="555" 
d="M82 -185q-10 0 -10 11v653q0 10 10 10h74q11 0 11 -10v-306q0 -52 19 -76.5t53 -24.5t73 22t65 58v327q0 10 10 10h74q11 0 11 -10v-357q0 -34 8.5 -43.5t29.5 -9.5q7 0 15 1t15 1q11 1 11 -10v-58q0 -4 -2 -6.5t-8 -3.5q-11 -2 -24.5 -3.5t-23.5 -1.5q-51 0 -78 21
t-28 64v1q-32 -39 -75 -62t-80 -23q-43 0 -70 23v-186q0 -11 -10 -11h-70z" />
    <glyph glyph-name="nu" unicode="&#x3bd;" horiz-adv-x="511" 
d="M211 0q-8 0 -11 8l-176 469q-3 12 9 12h79q9 0 12 -8l95 -271q11 -30 21 -60.5t19 -61.5h1q13 29 26.5 58t26.5 57l49 105q15 33 24 61t9 65v45q0 10 10 10h75q11 0 11 -10v-41q0 -42 -12 -82t-35 -87l-126 -261q-3 -8 -12 -8h-95z" />
    <glyph glyph-name="xi" unicode="&#x3be;" horiz-adv-x="452" 
d="M358 -130q-11 0 -11 10v81q0 15 -3.5 23.5t-14 12t-28.5 3.5h-20q-120 0 -173.5 41.5t-53.5 122.5v37q0 69 28 106t85 50v2q-43 16 -62 44.5t-19 67.5v9q0 46 24.5 78t87.5 49v2q-19 -3 -42 -4t-43 -1h-56q-10 0 -10 10v58q0 11 10 11h353q10 0 10 -11v-59q0 -10 -8 -10
h-20q-114 0 -163.5 -27t-49.5 -96v-11q0 -39 27 -57.5t84 -18.5h52q5 0 7.5 -3t2.5 -8v-53q0 -4 -2.5 -7t-7.5 -3h-71q-64 0 -94 -22t-30 -81v-43q0 -52 35 -72t108 -20q62 0 93.5 -6.5t43 -26t11.5 -58.5v-110q0 -10 -11 -10h-69z" />
    <glyph glyph-name="omicron" unicode="&#x3bf;" horiz-adv-x="538" 
d="M269 -12q-102 0 -156 49.5t-54 150.5v113q0 101 53.5 150.5t156.5 49.5t157 -49.5t54 -150.5v-113q0 -101 -53.5 -150.5t-157.5 -49.5zM269 71q61 0 88.5 31t27.5 95v96q0 63 -27.5 94t-88.5 31t-88 -31t-27 -94v-96q0 -64 27 -95t88 -31z" />
    <glyph glyph-name="pi" unicode="&#x3c0;" horiz-adv-x="596" 
d="M522 -12q-47 0 -77 14t-44 46t-14 83v277h-194v-397q0 -11 -10 -11h-74q-11 0 -11 11v397h-69q-11 0 -11 11v60q0 10 11 10h532q11 0 11 -10v-60q0 -11 -11 -11h-79v-283q0 -35 11 -47t33 -12q11 0 23 0.5t22 1.5q10 2 10 -9v-55q0 -9 -9 -11q-11 -2 -25 -3.5t-25 -1.5z
" />
    <glyph glyph-name="rho" unicode="&#x3c1;" horiz-adv-x="533" 
d="M82 -185q-10 0 -10 11v490q0 90 49.5 137.5t152.5 47.5q105 0 153 -45t48 -136v-131q0 -97 -45.5 -149t-132.5 -52q-36 0 -76.5 10t-65.5 26l-3 79q27 -15 60.5 -24t60.5 -9q55 0 81 32.5t26 97.5v118q0 52 -26.5 76.5t-79.5 24.5q-51 0 -79 -25.5t-28 -80.5v-487
q0 -11 -11 -11h-74z" />
    <glyph glyph-name="uni03C2" unicode="&#x3c2;" horiz-adv-x="507" 
d="M353 -130q-10 0 -10 10v81q0 16 -4.5 24.5t-16.5 11.5t-35 3h-26q-98 0 -150 46t-52 136v123q0 95 53.5 145.5t152.5 50.5q60 0 102.5 -19t65.5 -52t22 -77q0 -22 -11 -22h-73q-10 0 -10 15q0 35 -26 53.5t-69 18.5q-56 0 -84 -30t-28 -92v-114q0 -53 31.5 -77t98.5 -24
q63 0 95 -6.5t43.5 -26t11.5 -59.5v-109q0 -10 -10 -10h-71z" />
    <glyph glyph-name="sigma" unicode="&#x3c3;" horiz-adv-x="559" 
d="M266 -12q-106 0 -156.5 49.5t-50.5 136.5v120q0 95 51.5 145t164.5 50h269q11 0 11 -10v-60q0 -11 -11 -11l-123 6v-2q16 -14 28.5 -32.5t19 -43t6.5 -59.5v-103q0 -87 -50.5 -136.5t-158.5 -49.5zM266 71q56 0 85 25.5t29 76.5v112q0 38 -8.5 64t-23 41t-32.5 22h-42
q-55 0 -87.5 -22.5t-32.5 -86.5v-130q0 -51 29 -76.5t83 -25.5z" />
    <glyph glyph-name="tau" unicode="&#x3c4;" horiz-adv-x="503" 
d="M341 -12q-54 0 -89 15t-51.5 49t-16.5 91v265h-155q-10 0 -10 11v60q0 10 10 10h440q10 0 10 -10v-60q0 -11 -10 -11h-190v-270q0 -37 15.5 -53.5t49.5 -16.5q21 0 39.5 3t33.5 5q12 2 12 -9l1 -57q0 -9 -9 -11q-16 -4 -36 -7.5t-44 -3.5z" />
    <glyph glyph-name="upsilon" unicode="&#x3c5;" horiz-adv-x="556" 
d="M291 -12q-70 0 -114.5 21.5t-65 62.5t-20.5 100v202q0 30 -8 38.5t-27 8.5q-7 0 -15 -1t-15 -1q-12 0 -12 10v57q0 5 3 7t8 4q14 2 30.5 3t28.5 1q48 0 75 -24.5t27 -72.5v-240q0 -46 28.5 -69.5t76.5 -23.5q47 0 74.5 25.5t27.5 77.5v64q0 75 -6 136t-12 104
q-2 11 10 11h74q10 0 11 -9q7 -39 12.5 -95.5t5.5 -124.5v-77q0 -64 -21 -107.5t-65 -65.5t-111 -22z" />
    <glyph glyph-name="phi" unicode="&#x3c6;" horiz-adv-x="765" 
d="M346 -185q-11 0 -11 11v174h-72q-97 0 -144 48.5t-47 136.5v294q0 10 10 10h74q10 0 10 -10v-304q0 -46 27.5 -71.5t72.5 -25.5h69v402q0 8 11 10q35 5 76 8t75 3q63 0 107 -19.5t67 -60t23 -103.5v-133q0 -88 -47 -136.5t-147 -48.5h-70v-174q0 -11 -10 -11h-74zM430 78
h67q48 1 75 26t27 71v151q0 48 -27.5 72t-74.5 24q-17 0 -34 -0.5t-33 -2.5v-341z" />
    <glyph glyph-name="chi" unicode="&#x3c7;" horiz-adv-x="507" 
d="M464 -197q-38 0 -63 13.5t-45.5 47t-43.5 91.5l-24 59q-8 20 -16.5 41t-15.5 43h-2q-10 -22 -19.5 -43t-20.5 -42l-93 -190q-4 -8 -13 -8h-84q-6 0 -8.5 3.5t1.5 9.5l180 333l-101 213q-15 31 -26 40t-27 9q-8 0 -15 -0.5t-17 -2.5q-12 -2 -12 10v55q0 10 10 11
q11 3 24 4t25 1q36 0 59.5 -13.5t43 -46t43.5 -91.5l27 -63q6 -15 12 -29.5t12 -30.5h2q6 15 13 30.5t14 30.5l95 194q3 7 13 7h82q15 0 8 -12l-167 -313l95 -207q16 -32 27 -48.5t21 -22t23 -5.5q3 0 8 0.5t12 1.5q11 2 11 -9v-55q0 -9 -9 -11q-11 -2 -20.5 -3.5
t-18.5 -1.5z" />
    <glyph glyph-name="psi" unicode="&#x3c8;" horiz-adv-x="774" 
d="M347 -185q-11 0 -11 11v174h-74q-97 0 -143.5 49t-46.5 136v294q0 10 10 10h74q10 0 10 -10v-303q0 -47 27.5 -72t72.5 -25h70v550q0 11 11 11h72q10 0 10 -11v-550h79q45 0 72 25t27 72v184q0 19 -8.5 36t-43.5 23q-10 1 -10 11v61q0 10 11 10q52 0 84 -19t47 -52
t15 -75v-170q0 -87 -46 -136t-144 -49h-81v-174q0 -11 -10 -11h-74z" />
    <glyph glyph-name="omega" unicode="&#x3c9;" horiz-adv-x="781" 
d="M237 -12q-55 0 -92.5 18t-56.5 56t-19 96v195q0 43 15 76t47.5 52.5t83.5 19.5q11 0 11 -10v-61q0 -11 -10 -11q-35 -5 -44 -21.5t-9 -35.5v-189q0 -55 22.5 -76.5t68.5 -21.5q42 0 66.5 22.5t24.5 72.5v164q0 10 11 10h69q11 0 11 -10v-164q0 -50 25 -72.5t66 -22.5
q46 0 68 21.5t22 76.5v189q0 19 -8.5 35.5t-43.5 21.5q-10 0 -10 11v61q0 10 11 10q52 0 84 -19.5t47 -52.5t15 -76v-195q0 -58 -19 -96t-56 -56t-91 -18q-51 0 -94.5 23t-60.5 59h-1q-16 -32 -57 -57t-96 -25z" />
    <glyph glyph-name="iotadieresis" unicode="&#x3ca;" horiz-adv-x="330" 
d="M227 -12q-54 0 -88.5 14t-50.5 45t-16 81v351q0 10 10 10h74q11 0 11 -10v-352q0 -33 15.5 -46t52.5 -13q19 0 34 2.5t30 5.5q12 2 12 -10v-58q0 -7 -9 -10q-14 -5 -35 -7.5t-40 -2.5zM31 568q-29 0 -42 15t-13 39v11q0 24 13 38.5t42 14.5q30 0 43 -14.5t13 -38.5v-11
q0 -24 -13 -39t-43 -15zM206 568q-29 0 -42 15t-13 39v11q0 24 13 38.5t42 14.5t42 -14.5t13 -38.5v-11q0 -24 -13 -39t-42 -15z" />
    <glyph glyph-name="upsilondieresis" unicode="&#x3cb;" horiz-adv-x="556" 
d="M291 -12q-70 0 -114.5 21.5t-65 62.5t-20.5 100v202q0 30 -8 38.5t-27 8.5q-7 0 -15 -1t-15 -1q-12 0 -12 10v57q0 5 3 7t8 4q14 2 30.5 3t28.5 1q48 0 75 -24.5t27 -72.5v-240q0 -46 28.5 -69.5t76.5 -23.5q47 0 74.5 25.5t27.5 77.5v64q0 75 -6 136t-12 104
q-2 11 10 11h74q10 0 11 -9q7 -39 12.5 -95.5t5.5 -124.5v-77q0 -64 -21 -107.5t-65 -65.5t-111 -22zM183 568q-29 0 -42 15t-13 39v11q0 24 13 38.5t42 14.5q30 0 43 -14.5t13 -38.5v-11q0 -24 -13 -39t-43 -15zM358 568q-29 0 -42 15t-13 39v11q0 24 13 38.5t42 14.5
t42 -14.5t13 -38.5v-11q0 -24 -13 -39t-42 -15z" />
    <glyph glyph-name="omicrontonos" unicode="&#x3cc;" horiz-adv-x="538" 
d="M269 -12q-102 0 -156 49.5t-54 150.5v113q0 101 53.5 150.5t156.5 49.5t157 -49.5t54 -150.5v-113q0 -101 -53.5 -150.5t-157.5 -49.5zM269 71q61 0 88.5 31t27.5 95v96q0 63 -27.5 94t-88.5 31t-88 -31t-27 -94v-96q0 -64 27 -95t88 -31zM232 546q-10 0 -8 10l32 135
q2 9 11 9h75q11 0 7 -12l-51 -134q-4 -8 -12 -8h-54z" />
    <glyph glyph-name="upsilontonos" unicode="&#x3cd;" horiz-adv-x="556" 
d="M291 -12q-70 0 -114.5 21.5t-65 62.5t-20.5 100v202q0 30 -8 38.5t-27 8.5q-7 0 -15 -1t-15 -1q-12 0 -12 10v57q0 5 3 7t8 4q14 2 30.5 3t28.5 1q48 0 75 -24.5t27 -72.5v-240q0 -46 28.5 -69.5t76.5 -23.5q47 0 74.5 25.5t27.5 77.5v64q0 75 -6 136t-12 104
q-2 11 10 11h74q10 0 11 -9q7 -39 12.5 -95.5t5.5 -124.5v-77q0 -64 -21 -107.5t-65 -65.5t-111 -22zM234 546q-10 0 -8 10l32 135q2 9 11 9h75q11 0 7 -12l-51 -134q-4 -8 -12 -8h-54z" />
    <glyph glyph-name="omegatonos" unicode="&#x3ce;" horiz-adv-x="781" 
d="M237 -12q-55 0 -92.5 18t-56.5 56t-19 96v195q0 43 15 76t47.5 52.5t83.5 19.5q11 0 11 -10v-61q0 -11 -10 -11q-35 -5 -44 -21.5t-9 -35.5v-189q0 -55 22.5 -76.5t68.5 -21.5q42 0 66.5 22.5t24.5 72.5v164q0 10 11 10h69q11 0 11 -10v-164q0 -50 25 -72.5t66 -22.5
q46 0 68 21.5t22 76.5v189q0 19 -8.5 35.5t-43.5 21.5q-10 0 -10 11v61q0 10 11 10q52 0 84 -19.5t47 -52.5t15 -76v-195q0 -58 -19 -96t-56 -56t-91 -18q-51 0 -94.5 23t-60.5 59h-1q-16 -32 -57 -57t-96 -25zM353 546q-10 0 -8 10l32 135q2 9 11 9h75q11 0 7 -12l-51 -134
q-4 -8 -12 -8h-54z" />
    <glyph glyph-name="uni0400" unicode="&#x400;" horiz-adv-x="535" 
d="M92 0q-10 0 -10 11v633q0 11 10 11h364q10 0 10 -11v-64q0 -11 -10 -11h-279v-195h255q10 0 10 -11v-61q0 -11 -10 -11h-255v-205h279q10 0 10 -11v-64q0 -11 -10 -11h-364zM270 710q-7 0 -12 6l-74 103q-3 5 -1.5 9t6.5 4h79q8 0 11 -8l57 -104q2 -4 1 -7t-7 -3h-60z
" />
    <glyph glyph-name="uni0401" unicode="&#x401;" horiz-adv-x="535" 
d="M92 0q-10 0 -10 11v633q0 11 10 11h364q10 0 10 -11v-64q0 -11 -10 -11h-279v-195h255q10 0 10 -11v-61q0 -11 -10 -11h-255v-205h279q10 0 10 -11v-64q0 -11 -10 -11h-364zM192 710q-29 0 -42 15.5t-13 38.5v11q0 25 13 39.5t42 14.5q30 0 43 -14.5t13 -39.5v-11
q0 -23 -13 -38.5t-43 -15.5zM366 710q-29 0 -42 15.5t-13 38.5v11q0 25 13 39.5t42 14.5t42.5 -14.5t13.5 -39.5v-11q0 -23 -13.5 -38.5t-42.5 -15.5z" />
    <glyph glyph-name="uni0402" unicode="&#x402;" horiz-adv-x="741" 
d="M499 -11q-12 -1 -15.5 -0.5t-5.5 6.5l-20 65q-1 6 1 10t15 6q49 8 74.5 37.5t25.5 81.5v56q0 52 -23 78t-71 26q-40 0 -79 -19t-84 -60v-265q0 -11 -11 -11h-74q-11 0 -11 11v558h-178q-10 0 -10 11v64q0 11 10 11h470q10 0 10 -11v-64q0 -11 -10 -11h-196v-209
q42 39 90 59t100 20q79 0 121 -45.5t42 -130.5v-66q0 -90 -45.5 -144t-125.5 -64z" />
    <glyph glyph-name="uni0403" unicode="&#x403;" horiz-adv-x="476" 
d="M92 0q-10 0 -10 11v633q0 11 10 11h345q10 0 10 -11v-64q0 -11 -10 -11h-260v-558q0 -11 -10 -11h-75zM222 710q-5 0 -6 3t1 7l57 104q4 8 11 8h78q6 0 7.5 -4t-2.5 -9l-74 -103q-4 -6 -11 -6h-61z" />
    <glyph glyph-name="uni0404" unicode="&#x404;" horiz-adv-x="612" 
d="M321 -12q-132 0 -191.5 49.5t-59.5 159.5v261q0 110 55.5 159.5t175.5 49.5q82 0 137.5 -20t82 -58t19.5 -92q-3 -20 -11 -20h-75q-9 0 -9 20q0 29 -15 48t-44.5 28.5t-77.5 9.5q-78 0 -110.5 -25t-32.5 -86v-98h256q10 0 10 -10v-63q0 -10 -10 -10h-256v-106
q0 -61 34.5 -87t115.5 -26q49 0 79.5 9t44.5 28.5t14 48.5q0 19 9 19h75q5 0 7.5 -5.5t2.5 -21.5q1 -54 -23 -90.5t-74 -54t-129 -17.5z" />
    <glyph glyph-name="uni0405" unicode="&#x405;" horiz-adv-x="569" 
d="M278 -12q-122 0 -178.5 51.5t-50.5 137.5q1 17 13 17h72q12 0 12 -15q0 -58 34.5 -83t104.5 -25q68 0 102.5 23.5t34.5 72.5q0 24 -8 41t-27 30.5t-52 26.5l-146 61q-47 20 -75.5 44t-41 55t-12.5 70q1 84 56 127.5t161 43.5q73 0 126 -21t80 -61.5t21 -100.5
q-2 -18 -11 -18h-73q-6 0 -8.5 4t-1.5 14q4 48 -32.5 74.5t-102.5 26.5q-59 0 -89 -21t-31 -64q0 -22 8.5 -39t28 -31t53.5 -29l145 -61q46 -19 74.5 -42.5t41 -54.5t11.5 -74q0 -85 -57.5 -132.5t-181.5 -47.5z" />
    <glyph glyph-name="uni0406" unicode="&#x406;" horiz-adv-x="259" 
d="M92 0q-10 0 -10 11v633q0 11 10 11h75q10 0 10 -11v-633q0 -11 -10 -11h-75z" />
    <glyph glyph-name="uni0407" unicode="&#x407;" horiz-adv-x="259" 
d="M92 0q-10 0 -10 11v633q0 11 10 11h75q10 0 10 -11v-633q0 -11 -10 -11h-75zM43 710q-29 0 -42 15.5t-13 38.5v11q0 25 13 39.5t42 14.5q30 0 43 -14.5t13 -39.5v-11q0 -23 -13 -38.5t-43 -15.5zM217 710q-29 0 -42 15.5t-13 38.5v11q0 25 13 39.5t42 14.5t42.5 -14.5
t13.5 -39.5v-11q0 -23 -13.5 -38.5t-42.5 -15.5z" />
    <glyph glyph-name="uni0408" unicode="&#x408;" horiz-adv-x="269" 
d="M37 -143q-21 -4 -24 5l-20 66q-3 11 18 16q40 10 60.5 45.5t20.5 95.5v559q0 11 10 11h75q10 0 10 -11v-554q0 -101 -38 -158.5t-112 -74.5z" />
    <glyph glyph-name="uni0409" unicode="&#x409;" horiz-adv-x="874" 
d="M9 0q-12 0 -9 12l217 635q3 8 12 8h101q10 0 13 -8l79 -232h169q124 0 184.5 -49.5t60.5 -149.5q0 -105 -62.5 -160.5t-184.5 -55.5h-117q-10 0 -13 8l-141 439q-10 30 -20 61l-20 62h-1q-9 -30 -18 -61t-19 -61l-141 -439q-3 -9 -12 -9h-78zM538 81h47q78 0 116.5 33.5
t38.5 101.5q0 63 -35.5 91t-116.5 28h-138z" />
    <glyph glyph-name="uni040A" unicode="&#x40a;" horiz-adv-x="969" 
d="M92 0q-10 0 -10 11v633q0 11 10 11h75q10 0 10 -11v-243h309v243q0 11 10 11h75q10 0 10 -11v-243h107q119 0 181 -50t62 -144q0 -98 -64 -152.5t-182 -54.5h-189q-10 0 -10 11v307h-309v-307q0 -11 -10 -11h-75zM582 81h100q75 0 114 32t39 93q0 58 -36.5 85t-114.5 27
h-102v-237z" />
    <glyph glyph-name="uni040B" unicode="&#x40b;" horiz-adv-x="741" 
d="M232 0q-11 0 -11 11v558h-178q-10 0 -10 11v64q0 11 10 11h471q10 0 10 -11v-64q0 -11 -10 -11h-197v-209q42 39 90 59t100 20q78 0 120.5 -45.5t42.5 -130.5v-252q0 -11 -11 -11h-74q-11 0 -11 11v239q0 53 -23.5 79t-72.5 26q-40 0 -78 -19t-83 -60v-265q0 -11 -11 -11
h-74z" />
    <glyph glyph-name="uni040C" unicode="&#x40c;" horiz-adv-x="587" 
d="M92 0q-10 0 -10 11v633q0 11 10 11h75q10 0 10 -11v-270h80l205 275q5 6 13 6h84q6 0 8.5 -3.5t-2.5 -9.5l-225 -300l245 -329q4 -5 2 -9t-8 -4h-93q-8 0 -13 6l-213 283h-83v-278q0 -11 -10 -11h-75zM242 710q-5 0 -6 3t1 7l57 104q4 8 11 8h78q6 0 7.5 -4t-2.5 -9
l-74 -103q-4 -6 -11 -6h-61z" />
    <glyph glyph-name="uni040D" unicode="&#x40d;" horiz-adv-x="660" 
d="M92 0q-10 0 -10 11v633q0 11 10 11h72q11 0 11 -11v-298q0 -59 -1.5 -98.5t-3 -67t-2.5 -51.5h2q13 24 27 51t36.5 66.5t58.5 99.5l181 302q5 7 12 7h83q11 0 11 -11v-633q0 -11 -11 -11h-72q-11 0 -11 11v286q0 73 3 133t5 96h-2q-12 -23 -26.5 -50t-38.5 -68.5
t-66 -110.5l-173 -290q-5 -7 -12 -7h-83zM321 710q-7 0 -12 6l-74 103q-3 5 -1.5 9t6.5 4h79q8 0 11 -8l57 -104q2 -4 1 -7t-7 -3h-60z" />
    <glyph glyph-name="uni040E" unicode="&#x40e;" horiz-adv-x="555" 
d="M136 0q-5 0 -7.5 3.5t0.5 9.5l106 216l-212 413q-2 6 0.5 9.5t7.5 3.5h84q10 0 13 -7l110 -226q12 -25 24 -48.5t22 -49.5h2q11 26 22.5 50t23.5 48l111 226q4 7 13 7h81q6 0 8 -3.5t0 -9.5l-322 -635q-3 -7 -12 -7h-75zM284 715q-46 0 -83 15.5t-50 26.5q-6 4 -6 12v58
q0 7 3 9t9 -2q19 -11 54 -27.5t73 -16.5t72.5 16.5t54.5 27.5q5 4 8 2t3 -9v-58q0 -8 -5 -12q-14 -11 -51 -26.5t-82 -15.5z" />
    <glyph glyph-name="uni040F" unicode="&#x40f;" horiz-adv-x="662" 
d="M294 -132q-4 0 -7 3.5t-3 7.5v121h-192q-10 0 -10 11v633q0 11 10 11h75q10 0 10 -11v-558h308v558q0 11 10 11h75q10 0 10 -11v-633q0 -5 -2.5 -8t-7.5 -3h-191v-121q0 -4 -3 -7.5t-8 -3.5h-74z" />
    <glyph glyph-name="uni0410" unicode="&#x410;" horiz-adv-x="568" 
d="M9 0q-12 0 -9 12l220 635q3 8 12 8h101q10 0 13 -8l222 -635q3 -12 -9 -12h-81q-10 0 -13 8l-143 439q-10 30 -20 61t-21 62h-1q-9 -30 -19 -60.5t-20 -60.5l-142 -440q-3 -9 -12 -9h-78zM128 148l21 82h264l22 -82h-307z" />
    <glyph glyph-name="uni0411" unicode="&#x411;" horiz-adv-x="570" 
d="M92 0q-10 0 -10 11v633q0 11 10 11h354q10 0 10 -11v-64q0 -11 -10 -11h-269v-165h107q121 0 182 -49t61 -147q0 -101 -62.5 -154.5t-184.5 -53.5h-188zM177 80h100q78 0 116.5 31.5t38.5 96.5q0 63 -36.5 90t-115.5 27h-103v-245z" />
    <glyph glyph-name="uni0412" unicode="&#x412;" horiz-adv-x="578" 
d="M92 0q-10 0 -10 11v633q0 11 10 11h184q116 0 173 -40.5t57 -122.5q0 -55 -25.5 -89t-84.5 -55v-2q69 -13 103.5 -54t34.5 -110q0 -94 -62 -138t-195 -44h-185zM177 82h100q87 0 124.5 24.5t37.5 81.5q0 59 -38 86t-121 27h-103v-219zM177 376h96q72 0 105 24.5t33 76.5
q0 53 -34 75t-113 22h-87v-198z" />
    <glyph glyph-name="uni0413" unicode="&#x413;" horiz-adv-x="476" 
d="M92 0q-10 0 -10 11v633q0 11 10 11h345q10 0 10 -11v-64q0 -11 -10 -11h-260v-558q0 -11 -10 -11h-75z" />
    <glyph glyph-name="uni0414" unicode="&#x414;" horiz-adv-x="609" 
d="M129 13l-97 3l208 631q3 8 13 8h101q9 0 12 -8l210 -631l-100 -3l-121 387q-12 43 -26 85t-27 85h-1q-14 -44 -27 -87t-27 -87zM11 -132q-5 0 -8 3.5t-3 7.5v197q0 5 3 7.5t8 2.5h588q5 0 7.5 -2.5t2.5 -7.5v-197q0 -4 -2.5 -7.5t-7.5 -3.5h-74q-5 0 -8 3.5t-3 7.5v121
h-419v-121q0 -4 -2.5 -7.5t-8.5 -3.5h-73z" />
    <glyph glyph-name="uni0415" unicode="&#x415;" horiz-adv-x="535" 
d="M92 0q-10 0 -10 11v633q0 11 10 11h364q10 0 10 -11v-64q0 -11 -10 -11h-279v-195h255q10 0 10 -11v-61q0 -11 -10 -11h-255v-205h279q10 0 10 -11v-64q0 -11 -10 -11h-364z" />
    <glyph glyph-name="uni0416" unicode="&#x416;" horiz-adv-x="865" 
d="M37 0q-5 0 -8 3.5t0 9.5l175 325l-163 304q-3 6 -0.5 9.5t8.5 3.5h80q4 0 8 -1.5t5 -5.5l145 -275h98v271q0 11 11 11h73q11 0 11 -11v-271h100l146 275q2 4 5.5 5.5t7.5 1.5h77q5 0 8 -3.5t0 -9.5l-163 -304l175 -325q3 -6 0 -9.5t-9 -3.5h-86q-9 0 -13 7l-150 283h-98
v-279q0 -11 -11 -11h-73q-11 0 -11 11v279h-100l-149 -283q-4 -7 -13 -7h-86z" />
    <glyph glyph-name="uni0417" unicode="&#x417;" horiz-adv-x="580" 
d="M272 -12q-111 0 -166 43t-54 132q0 6 3.5 9t7.5 3h73q9 0 9 -10q0 -49 29.5 -71.5t97.5 -22.5q83 0 121.5 27.5t38.5 88.5q0 53 -36 78t-118 25h-97q-10 0 -10 11v60q0 10 10 10h81q77 0 111.5 26.5t34.5 83.5q0 54 -32 78.5t-102 24.5q-65 0 -94 -22t-29 -72
q0 -10 -10 -10h-73q-4 0 -7 3t-3 9q-1 85 54.5 130t167.5 45t168 -43t56 -127q0 -59 -30.5 -100t-83.5 -58v-1q69 -13 103.5 -51t34.5 -100q0 -95 -63.5 -147t-192.5 -52z" />
    <glyph glyph-name="uni0418" unicode="&#x418;" horiz-adv-x="660" 
d="M92 0q-10 0 -10 11v633q0 11 10 11h72q11 0 11 -11v-298q0 -59 -1.5 -98.5t-3 -67t-2.5 -51.5h2q13 24 27 51t36.5 66.5t58.5 99.5l181 302q5 7 12 7h83q11 0 11 -11v-633q0 -11 -11 -11h-72q-11 0 -11 11v286q0 73 3 133t5 96h-2q-12 -23 -26.5 -50t-38.5 -68.5
t-66 -110.5l-173 -290q-5 -7 -12 -7h-83z" />
    <glyph glyph-name="uni0419" unicode="&#x419;" horiz-adv-x="660" 
d="M92 0q-10 0 -10 11v633q0 11 10 11h72q11 0 11 -11v-298q0 -59 -1.5 -98.5t-3 -67t-2.5 -51.5h2q13 24 27 51t36.5 66.5t58.5 99.5l181 302q5 7 12 7h83q11 0 11 -11v-633q0 -11 -11 -11h-72q-11 0 -11 11v286q0 73 3 133t5 96h-2q-12 -23 -26.5 -50t-38.5 -68.5
t-66 -110.5l-173 -290q-5 -7 -12 -7h-83zM330 715q-46 0 -83 15.5t-50 26.5q-6 4 -6 12v58q0 7 3 9t9 -2q19 -11 54 -27.5t73 -16.5t72.5 16.5t54.5 27.5q5 4 8 2t3 -9v-58q0 -8 -5 -12q-14 -11 -51 -26.5t-82 -15.5z" />
    <glyph glyph-name="uni041A" unicode="&#x41a;" horiz-adv-x="587" 
d="M92 0q-10 0 -10 11v633q0 11 10 11h75q10 0 10 -11v-270h80l205 275q5 6 13 6h84q6 0 8.5 -3.5t-2.5 -9.5l-225 -300l245 -329q4 -5 2 -9t-8 -4h-93q-8 0 -13 6l-213 283h-83v-278q0 -11 -10 -11h-75z" />
    <glyph glyph-name="uni041B" unicode="&#x41b;" horiz-adv-x="562" 
d="M9 0q-12 0 -9 12l217 635q3 8 12 8h101q10 0 13 -8l219 -635q3 -12 -9 -12h-81q-10 0 -13 8l-141 439q-10 30 -20 61l-20 62h-1q-9 -30 -18 -61t-19 -61l-141 -439q-3 -9 -12 -9h-78z" />
    <glyph glyph-name="uni041C" unicode="&#x41c;" horiz-adv-x="774" 
d="M77 0q-10 0 -10 11l14 633q0 11 10 11h113q8 0 12 -8l172 -385l170 385q4 8 12 8h113q10 0 10 -11l14 -633q0 -11 -10 -11h-73q-10 0 -10 11l-10 378q-1 37 0.5 74.5t3.5 75.5h-3q-15 -38 -31 -75t-34 -74l-140 -302q-4 -8 -12 -8h-3q-8 0 -11 8l-143 306
q-16 36 -31.5 72.5t-29.5 72.5h-3q2 -36 3 -73.5t0 -73.5l-10 -381q0 -11 -10 -11h-73z" />
    <glyph glyph-name="uni041D" unicode="&#x41d;" horiz-adv-x="663" 
d="M92 0q-10 0 -10 11v633q0 11 10 11h75q10 0 10 -11v-266h309v266q0 11 10 11h75q11 0 11 -11v-633q0 -11 -11 -11h-75q-10 0 -10 11v284h-309v-284q0 -11 -10 -11h-75z" />
    <glyph glyph-name="uni041E" unicode="&#x41e;" horiz-adv-x="645" 
d="M322 -12q-127 0 -189.5 62t-62.5 176v203q0 115 62.5 176.5t189.5 61.5t190 -61.5t63 -176.5v-203q0 -114 -63 -176t-190 -62zM322 72q78 0 118 40t40 117v197q0 78 -40 117.5t-118 39.5q-76 0 -116.5 -39.5t-40.5 -117.5v-197q0 -77 40.5 -117t116.5 -40z" />
    <glyph glyph-name="uni041F" unicode="&#x41f;" horiz-adv-x="662" 
d="M92 0q-10 0 -10 11v633q0 11 10 11h478q10 0 10 -11v-633q0 -11 -10 -11h-75q-10 0 -10 11v558h-308v-558q0 -11 -10 -11h-75z" />
    <glyph glyph-name="uni0420" unicode="&#x420;" horiz-adv-x="549" 
d="M92 0q-10 0 -10 11v633q0 11 10 11h173q123 0 184.5 -52.5t61.5 -154.5q0 -101 -62 -153.5t-184 -52.5h-88v-231q0 -11 -10 -11h-75zM177 323h86q79 0 115.5 29.5t36.5 92.5q0 68 -37.5 98.5t-116.5 30.5h-84v-251z" />
    <glyph glyph-name="uni0421" unicode="&#x421;" horiz-adv-x="636" 
d="M321 -12q-123 0 -187 61.5t-64 177.5v201q0 116 64.5 177.5t187.5 61.5q80 0 139.5 -27t89 -77t19.5 -120q-1 -5 -3 -9.5t-8 -4.5h-75q-11 0 -10 11q3 68 -35.5 105.5t-115.5 37.5q-76 0 -117 -39.5t-41 -115.5v-201q0 -76 41 -115.5t117 -39.5q77 0 118 38t33 105
q-1 11 10 11h74q10 0 12 -14q6 -68 -23.5 -118t-87.5 -78t-138 -28z" />
    <glyph glyph-name="uni0422" unicode="&#x422;" horiz-adv-x="538" 
d="M232 0q-11 0 -11 11v558h-178q-10 0 -10 11v64q0 11 10 11h452q10 0 10 -11v-64q0 -11 -10 -11h-178v-558q0 -11 -11 -11h-74z" />
    <glyph glyph-name="uni0423" unicode="&#x423;" horiz-adv-x="555" 
d="M136 0q-5 0 -7.5 3.5t0.5 9.5l106 216l-212 413q-2 6 0.5 9.5t7.5 3.5h84q10 0 13 -7l110 -226q12 -25 24 -48.5t22 -49.5h2q11 26 22.5 50t23.5 48l111 226q4 7 13 7h81q6 0 8 -3.5t0 -9.5l-322 -635q-3 -7 -12 -7h-75z" />
    <glyph glyph-name="uni0424" unicode="&#x424;" horiz-adv-x="835" 
d="M376 -12q-93 0 -162 26.5t-106.5 82.5t-37.5 144v172q0 89 38 145t108 82t164 26h75q95 0 164.5 -26t108 -82t38.5 -145v-172q0 -88 -38 -144t-107 -82.5t-162 -26.5h-83zM378 69h80q67 0 114.5 18.5t73 58t25.5 101.5v160q0 63 -25 102t-73 57.5t-115 18.5h-80
q-68 0 -115.5 -18.5t-73 -57.5t-25.5 -102v-160q0 -62 25.5 -101.5t73.5 -58t115 -18.5zM380 -72q-11 0 -11 11v82l3 15v583l-3 15v82q0 11 11 11h74q11 0 11 -11v-82l-2 -15v-583l2 -15v-82q0 -11 -11 -11h-74z" />
    <glyph glyph-name="uni0425" unicode="&#x425;" horiz-adv-x="559" 
d="M13 0q-6 0 -8 3.5t2 9.5l213 325l-200 304q-3 6 -1.5 9.5t8.5 3.5h91q7 0 11 -6l107 -165q11 -18 23 -38t23 -38h1q12 20 24 40.5t25 39.5l103 161q5 6 12 6h87q6 0 8 -3.5t-2 -9.5l-198 -306l210 -323q4 -6 2 -9.5t-8 -3.5h-91q-8 0 -13 6l-112 175q-13 19 -26 41
t-25 42h-1q-12 -19 -25 -40.5t-25 -40.5l-113 -176q-5 -7 -12 -7h-90z" />
    <glyph glyph-name="uni0426" unicode="&#x426;" horiz-adv-x="658" 
d="M550 -132q-4 0 -7 3.5t-3 7.5v121h-448q-10 0 -10 11v633q0 11 10 11h75q10 0 10 -11v-558h293v558q0 11 11 11h74q11 0 11 -11v-558h58q5 0 8 -2.5t3 -7.5v-197q0 -4 -3 -7.5t-8 -3.5h-74z" />
    <glyph glyph-name="uni0427" unicode="&#x427;" horiz-adv-x="632" 
d="M253 212q-90 0 -135.5 44.5t-45.5 142.5v245q0 11 10 11h75q10 0 10 -11v-230q0 -64 25.5 -90.5t83.5 -26.5q51 0 100 20.5t92 56.5v-87q-30 -22 -66 -39t-73.5 -26.5t-75.5 -9.5zM466 0q-11 0 -11 11v633q0 11 11 11h74q11 0 11 -11v-633q0 -11 -11 -11h-74z" />
    <glyph glyph-name="uni0428" unicode="&#x428;" horiz-adv-x="892" 
d="M92 0q-10 0 -10 11v633q0 11 10 11h75q10 0 10 -11v-558h222v558q0 11 11 11h73q10 0 10 -11v-558h222v558q0 11 11 11h74q11 0 11 -11v-633q0 -11 -11 -11h-708z" />
    <glyph glyph-name="uni0429" unicode="&#x429;" horiz-adv-x="901" 
d="M793 -132q-4 0 -7 3.5t-3 7.5v121h-691q-10 0 -10 11v633q0 11 10 11h75q10 0 10 -11v-558h222v558q0 11 11 11h73q10 0 10 -11v-558h222v558q0 11 11 11h74q11 0 11 -11v-558h56q5 0 8 -2.5t3 -7.5v-197q0 -4 -3 -7.5t-8 -3.5h-74z" />
    <glyph glyph-name="uni042A" unicode="&#x42a;" horiz-adv-x="660" 
d="M187 0q-10 0 -10 11v558h-133q-11 0 -11 11v64q0 11 11 11h218q10 0 10 -11v-229h106q124 0 184 -49.5t60 -149.5q0 -105 -62.5 -160.5t-184.5 -55.5h-188zM272 81h99q78 0 116.5 33.5t38.5 101.5q0 63 -35.5 91t-116.5 28h-102v-254z" />
    <glyph glyph-name="uni042B" unicode="&#x42b;" horiz-adv-x="824" 
d="M92 0q-10 0 -10 11v633q0 11 10 11h75q10 0 10 -11v-229h106q123 0 183 -49.5t60 -149.5q0 -105 -62.5 -160.5t-184.5 -55.5h-187zM177 81h99q78 0 116.5 33.5t38.5 101.5q0 63 -35.5 91t-116.5 28h-102v-254zM657 0q-10 0 -10 11v633q0 11 10 11h75q10 0 10 -11v-633
q0 -11 -10 -11h-75z" />
    <glyph glyph-name="uni042C" unicode="&#x42c;" horiz-adv-x="565" 
d="M92 0q-10 0 -10 11v633q0 11 10 11h75q10 0 10 -11v-229h106q123 0 183 -49.5t60 -149.5q0 -105 -62.5 -160.5t-184.5 -55.5h-187zM177 81h99q78 0 116.5 33.5t38.5 101.5q0 63 -35.5 91t-116.5 28h-102v-254z" />
    <glyph glyph-name="uni042D" unicode="&#x42d;" horiz-adv-x="608" 
d="M286 -12q-77 0 -127.5 17.5t-74.5 54t-23 90.5q0 16 2.5 21.5t7.5 5.5h75q10 0 10 -19q0 -29 13.5 -48.5t44 -28.5t79.5 -9q83 0 116.5 26t33.5 90v103h-256q-10 0 -10 10v63q0 10 10 10h256v96q0 62 -32.5 87.5t-109.5 25.5q-47 0 -77.5 -9.5t-45 -28.5t-14.5 -48
q0 -20 -10 -20h-75q-8 0 -11 20q-4 54 22.5 92t81.5 58t136 20q120 0 175.5 -49.5t55.5 -159.5v-261q0 -110 -60.5 -159.5t-192.5 -49.5z" />
    <glyph glyph-name="uni042E" unicode="&#x42e;" horiz-adv-x="875" 
d="M565 -12q-117 0 -178.5 62.5t-61.5 175.5v203q0 113 61.5 175.5t178.5 62.5t178.5 -62.5t61.5 -175.5v-203q0 -113 -61.5 -175.5t-178.5 -62.5zM92 0q-10 0 -10 11v633q0 11 10 11h75q10 0 10 -11v-266h182v-82h-182v-285q0 -11 -10 -11h-75zM565 72q72 0 108.5 40
t36.5 114v203q0 74 -36.5 114t-108.5 40q-71 0 -108 -40t-37 -114v-203q0 -74 37 -114t108 -40z" />
    <glyph glyph-name="uni042F" unicode="&#x42f;" horiz-adv-x="609" 
d="M41 0q-6 0 -8 3.5t1 9.5l100 175q14 25 28.5 50t30.5 49v2q-58 19 -88 63.5t-30 109.5q0 64 26 107t79 64.5t132 21.5h205q10 0 10 -11v-633q0 -11 -10 -11h-75q-10 0 -10 11v263h-146l-147 -267q-4 -7 -13 -7h-85zM319 350h113v224h-117q-76 0 -110 -28.5t-34 -90.5
q0 -39 14.5 -62t46.5 -33t87 -10z" />
    <glyph glyph-name="uni0430" unicode="&#x430;" horiz-adv-x="497" 
d="M357 0q-6 0 -8.5 4t-4.5 10q-1 8 -4.5 34t-4.5 47l-4 39v199q0 48 -19 68t-67 20q-86 0 -85 -60q0 -11 -10 -11h-73q-11 0 -12 19q-5 60 45 96t138 36q91 0 134.5 -41t43.5 -126v-212q0 -34 1.5 -61.5t4.5 -48.5q2 -12 -10 -12h-65zM165 -12q-58 0 -89 35.5t-31 102.5
q0 52 20.5 84.5t66 51t121.5 24.5l93 8v-67l-92 -8q-65 -6 -90 -24.5t-25 -61.5q0 -32 13.5 -48.5t40.5 -16.5q32 0 66.5 22t89.5 79l2 -76q-34 -37 -64 -60t-59.5 -34t-62.5 -11z" />
    <glyph glyph-name="uni0431" unicode="&#x431;" horiz-adv-x="546" 
d="M276 -12q-103 0 -154 49t-51 148v227q0 92 28 140.5t75 73.5q28 15 59 23.5t61.5 15.5t59 15.5t50.5 24.5q10 6 14 -7l19 -64q2 -8 -4 -14q-23 -17 -57 -24.5t-72 -14.5t-73 -23q-34 -16 -49.5 -47t-15.5 -77v-241q0 -62 25.5 -92t86.5 -30q60 0 85.5 31.5t25.5 90.5v90
q0 53 -22 76t-62 23q-41 0 -81.5 -25t-68.5 -67l1 86q21 28 47.5 47.5t58 30.5t66.5 11q71 0 113.5 -42t42.5 -127v-111q0 -97 -53 -147t-155 -50z" />
    <glyph glyph-name="uni0432" unicode="&#x432;" horiz-adv-x="541" 
d="M268 -12q-98 0 -147.5 49t-49.5 147v330q0 59 22 99t66 61t110 21q90 0 134 -37t44 -110q0 -54 -22 -94t-60 -56v-1q62 -10 88.5 -50t26.5 -106v-48q0 -101 -54.5 -153t-157.5 -52zM271 71q58 0 86 31t28 93v51q0 48 -21.5 70t-67.5 22q-17 0 -38 -2.5t-44 -7.5t-49 -13
v-123q0 -63 25 -92t81 -29zM165 388l76 15q51 11 81.5 39t30.5 83q0 47 -21.5 68t-67.5 21q-48 0 -73.5 -24t-25.5 -71v-131z" />
    <glyph glyph-name="uni0433" unicode="&#x433;" horiz-adv-x="479" 
d="M230 -12q-89 0 -135 27.5t-47 98.5q-1 56 25 90.5t81 55.5l113 43q36 13 48.5 28t12.5 40q0 28 -20.5 39.5t-64.5 11.5q-47 0 -70 -14t-23 -41q0 -15 -9 -15h-73q-10 0 -12 15q-6 59 42.5 96.5t144.5 37.5q86 0 133 -32t47 -98q0 -51 -24.5 -83t-80.5 -53l-116 -43
q-33 -12 -46.5 -29t-12.5 -45q1 -32 23.5 -42t68.5 -10q51 1 76.5 16t25.5 47q0 15 9 15h73q5 0 7.5 -2t3.5 -12q5 -64 -41 -103t-159 -39z" />
    <glyph glyph-name="uni0434" unicode="&#x434;" horiz-adv-x="540" 
d="M263 -197q-91 0 -141 36t-45 92q1 17 12 17h73q10 0 10 -14q0 -24 24.5 -38t67.5 -14q59 0 84.5 25t25.5 80v30v33.5t1 33.5h-1q-43 -37 -82 -53.5t-83 -16.5q-75 0 -112.5 45.5t-37.5 137.5v101q0 102 49.5 152.5t153.5 50.5q38 0 70 -5t64.5 -10.5t72.5 -8.5v-483
q0 -62 -24 -104.5t-69.5 -64.5t-112.5 -22zM234 97q32 0 63.5 16t76.5 54v242q-24 4 -53.5 7t-51.5 3q-61 0 -88 -31t-27 -98v-83q0 -58 19.5 -84t60.5 -26z" />
    <glyph glyph-name="uni0435" unicode="&#x435;" horiz-adv-x="522" 
d="M263 -12q-100 0 -152 46t-52 135v136q0 96 51.5 146t151.5 50t151.5 -49t51.5 -142v-78q0 -10 -10 -10h-302v-32q0 -63 27 -92t87 -29q45 0 69.5 14.5t24.5 43.5q0 11 11 11h74q8 0 10 -9q4 -67 -47.5 -104t-145.5 -37zM153 297h218v5q0 61 -27 89.5t-80 28.5
q-56 0 -83.5 -29.5t-27.5 -89.5v-4z" />
    <glyph glyph-name="uni0436" unicode="&#x436;" horiz-adv-x="713" 
d="M24 0q-6 0 -8 4t1 9l151 257l-134 207q-3 5 -1.5 8.5t7.5 3.5h84q9 0 13 -6l110 -185h62v374q0 11 11 11h73q11 0 11 -11v-374h62l110 185q4 6 13 6h84q6 0 7.5 -3.5t-1.5 -8.5l-134 -207l151 -257q3 -5 1 -9t-9 -4h-86q-8 0 -12 6l-122 217h-64v-212q0 -11 -11 -11h-73
q-11 0 -11 11v212h-66l-121 -217q-4 -6 -13 -6h-85z" />
    <glyph glyph-name="uni0437" unicode="&#x437;" horiz-adv-x="477" 
d="M218 -197q-62 0 -105.5 18.5t-64 51t-15.5 75.5q2 11 5 14.5t8 3.5h73q9 0 9 -16q0 -31 23.5 -49.5t67.5 -18.5q55 0 83 26t28 75v59q0 44 -29 65.5t-89 21.5h-79q-5 0 -8 3.5t-3 7.5v59q0 5 3 7.5t8 2.5h71q52 0 81.5 27.5t29.5 74.5v23q0 45 -23.5 67t-72.5 22
q-41 0 -62.5 -15t-21.5 -43q0 -7 -2.5 -11t-7.5 -4h-73q-12 0 -13 18q-4 40 18.5 69.5t67 46.5t105.5 17q87 0 131.5 -38t44.5 -114v-36q0 -44 -22 -80t-63 -55v-1q53 -13 78 -48.5t25 -84.5v-51q0 -60 -23.5 -102.5t-69.5 -65t-113 -22.5z" />
    <glyph glyph-name="uni0438" unicode="&#x438;" horiz-adv-x="543" 
d="M204 -12q-64 0 -98 42.5t-34 123.5v325q0 10 10 10h74q11 0 11 -10v-316q0 -47 16.5 -69.5t51.5 -22.5q36 0 72 22.5t88 75.5v-82q-31 -31 -62.5 -53.5t-63 -34t-65.5 -11.5zM404 0q-12 0 -13 10q-3 19 -5 39t-3 41l-6 44v345q0 10 10 10h74q11 0 11 -10v-356
q0 -28 1.5 -56.5t4.5 -55.5q2 -11 -11 -11h-63z" />
    <glyph glyph-name="uni0439" unicode="&#x439;" horiz-adv-x="543" 
d="M204 -12q-64 0 -98 42.5t-34 123.5v325q0 10 10 10h74q11 0 11 -10v-316q0 -47 16.5 -69.5t51.5 -22.5q36 0 72 22.5t88 75.5v-82q-31 -31 -62.5 -53.5t-63 -34t-65.5 -11.5zM404 0q-12 0 -13 10q-3 19 -5 39t-3 41l-6 44v345q0 10 10 10h74q11 0 11 -10v-356
q0 -28 1.5 -56.5t4.5 -55.5q2 -11 -11 -11h-63zM272 556q-34 0 -58.5 9.5t-40 21t-23.5 19.5q-4 4 -4 12v58q0 6 3 8.5t9 -2.5q14 -14 44 -32t70 -18q41 0 71 18t43 32q6 5 9 2.5t3 -8.5v-58q0 -4 -1 -7t-3 -6q-8 -7 -23.5 -18.5t-39.5 -21t-59 -9.5z" />
    <glyph glyph-name="uni043A" unicode="&#x43a;" horiz-adv-x="492" 
d="M488 13q3 -5 1 -9t-9 -4h-88q-9 0 -13 6l-145 216h-67v-211q0 -11 -11 -11h-74q-10 0 -10 11v661q0 11 10 11h74q11 0 11 -11v-373h65l134 184q5 6 14 6h85q6 0 8 -3.5t-2 -8.5l-156 -208z" />
    <glyph glyph-name="uni043B" unicode="&#x43b;" horiz-adv-x="462" 
d="M13 0q-13 0 -8 13l170 462q4 14 17 14h79q12 0 17 -14l169 -462q5 -13 -8 -13h-79q-8 0 -11 9l-88 260q-10 29 -20 57.5t-19 57.5h-2q-8 -30 -17.5 -58.5t-20.5 -58.5l-89 -258q-3 -9 -11 -9h-79z" />
    <glyph glyph-name="uni043C" unicode="&#x43c;" horiz-adv-x="630" 
d="M73 0q-10 0 -10 11l8 468q0 10 11 10h79q7 0 11 -8l143 -280l142 280q5 8 12 8h79q11 0 11 -10l8 -468q0 -11 -11 -11h-69q-11 0 -11 11l-2 225q0 14 1 34t2.5 42t2.5 40h-3q-10 -25 -21 -47.5t-21 -40.5l-111 -200q-3 -5 -9 -5q-3 0 -5 1t-4 4l-112 200
q-9 18 -19.5 40.5t-21.5 47.5h-3q1 -18 2 -40t2 -42t1 -34l-1 -225q0 -11 -11 -11h-70z" />
    <glyph glyph-name="uni043D" unicode="&#x43d;" horiz-adv-x="545" 
d="M389 0q-11 0 -11 11v468q0 10 11 10h74q10 0 10 -10v-468q0 -11 -10 -11h-74zM82 0q-10 0 -10 11v468q0 10 10 10h74q11 0 11 -10v-468q0 -11 -11 -11h-74zM151 209v81h245v-81h-245z" />
    <glyph glyph-name="uni043E" unicode="&#x43e;" horiz-adv-x="538" 
d="M269 -12q-102 0 -156 49.5t-54 150.5v113q0 101 53.5 150.5t156.5 49.5t157 -49.5t54 -150.5v-113q0 -101 -53.5 -150.5t-157.5 -49.5zM269 71q61 0 88.5 31t27.5 95v96q0 63 -27.5 94t-88.5 31t-88 -31t-27 -94v-96q0 -64 27 -95t88 -31z" />
    <glyph glyph-name="uni043F" unicode="&#x43f;" horiz-adv-x="557" 
d="M401 0q-11 0 -11 11v315q0 48 -19.5 70t-58.5 22q-38 0 -74.5 -22.5t-89.5 -74.5v80q32 35 62.5 57t61.5 32.5t66 10.5q72 0 109.5 -41.5t37.5 -124.5v-324q0 -11 -10 -11h-74zM82 0q-10 0 -10 11v355q0 27 -2.5 59t-4.5 51q-2 13 10 13h68q10 0 12 -10q2 -8 4 -24.5
t4 -34.5t2 -31l2 -31v-347q0 -11 -11 -11h-74z" />
    <glyph glyph-name="uni0440" unicode="&#x440;" horiz-adv-x="538" 
d="M299 -12q-37 0 -78 10t-66 26l-3 79q28 -16 61.5 -24.5t62.5 -8.5q55 0 80.5 32.5t25.5 97.5v108q0 57 -19.5 83.5t-59.5 26.5q-34 0 -68.5 -20t-87.5 -69l-2 83q33 30 62 50t58.5 29.5t62.5 9.5q74 0 111.5 -45t37.5 -138v-129q0 -98 -45.5 -149.5t-132.5 -51.5z
M82 -185q-10 0 -10 11v548q0 24 -2 52t-5 51q-1 12 10 12h68q11 0 12 -10q2 -7 4 -20t3 -25.5t0 -18.5l5 -52v-537q0 -11 -11 -11h-74z" />
    <glyph glyph-name="uni0441" unicode="&#x441;" horiz-adv-x="520" 
d="M267 -12q-102 0 -155 50.5t-53 145.5v121q0 95 54 145.5t156 50.5q61 0 104.5 -19t66.5 -52t23 -77q0 -22 -11 -22h-73q-10 0 -10 15q0 35 -27 53.5t-73 18.5q-58 0 -86.5 -29.5t-28.5 -92.5v-103q0 -62 28.5 -92t85.5 -30q47 0 73.5 20.5t26.5 50.5q0 16 10 16h73
q11 0 11 -10q0 -73 -50 -116.5t-145 -43.5z" />
    <glyph glyph-name="uni0442" unicode="&#x442;" horiz-adv-x="843" 
d="M82 0q-10 0 -10 11v355q0 28 -1.5 57.5t-5.5 53.5q-2 12 11 12h67q10 0 11 -7q2 -15 5 -32t4 -34q43 43 83 64t87 21q51 0 82 -23t44 -68q46 47 87 69t89 22q68 0 102.5 -41.5t34.5 -123.5v-325q0 -11 -11 -11h-74q-10 0 -10 11v315q0 46 -16.5 69t-52.5 23
q-32 0 -64 -19.5t-75 -59.5v-328q0 -11 -10 -11h-74q-11 0 -11 11v315q0 46 -16.5 69t-52.5 23q-31 0 -63.5 -19.5t-74.5 -59.5v-328q0 -11 -11 -11h-74z" />
    <glyph glyph-name="uni0443" unicode="&#x443;" horiz-adv-x="502" 
d="M144 -185q-12 0 -7 13l70 177l-184 472q-5 12 7 12h81q8 0 11 -8l85 -231q12 -31 23 -64.5t21 -66.5h2q10 33 22 66t23 65l84 231q3 8 13 8h77q13 0 8 -12l-251 -654q-3 -8 -11 -8h-74z" />
    <glyph glyph-name="uni0444" unicode="&#x444;" horiz-adv-x="705" 
d="M289 -12q-114 0 -172 48.5t-58 146.5v124q0 97 58 145.5t172 48.5h127q114 0 172 -48.5t58 -145.5v-124q0 -98 -58 -146.5t-172 -48.5h-127zM282 69h141q64 0 96 30t32 92v107q0 63 -32 93t-96 30h-141q-64 0 -96 -30t-32 -93v-107q0 -62 32 -92t96 -30zM315 -185
q-10 0 -10 11v186l1 22v415l-1 29v195q0 11 10 11h74q11 0 11 -11v-197l-1 -31v-406l1 -25v-188q0 -11 -11 -11h-74z" />
    <glyph glyph-name="uni0445" unicode="&#x445;" horiz-adv-x="485" 
d="M18 0q-6 0 -8 4t2 9l171 239l-160 225q-4 5 -1.5 8.5t8.5 3.5h88q8 0 12 -6l66 -96q11 -17 23.5 -36t22.5 -36h1q13 19 26 38.5t26 38.5l62 91q5 6 13 6h83q7 0 9 -3.5t-2 -8.5l-160 -223l174 -241q4 -5 1.5 -9t-8.5 -4h-88q-8 0 -12 6l-63 90q-16 23 -31.5 46.5
t-31.5 46.5h-1q-14 -23 -29.5 -46.5t-30.5 -46.5l-62 -90q-4 -6 -13 -6h-87z" />
    <glyph glyph-name="uni0446" unicode="&#x446;" horiz-adv-x="552" 
d="M463 -121q-4 0 -7 3t-3 8v110h-43l62 81h59q5 0 7.5 -3t2.5 -8v-180q0 -5 -2.5 -8t-7.5 -3h-68zM204 -12q-64 0 -98 42.5t-34 123.5v325q0 10 10 10h74q11 0 11 -10v-316q0 -47 16.5 -69.5t51.5 -22.5q36 0 72 22.5t88 75.5v-82q-31 -31 -62.5 -53.5t-63 -34t-65.5 -11.5
zM404 0q-12 0 -13 10q-3 19 -5 39t-3 41l-6 44v345q0 10 10 10h74q11 0 11 -10v-356q0 -28 1.5 -56.5t4.5 -55.5q2 -11 -11 -11h-63z" />
    <glyph glyph-name="uni0447" unicode="&#x447;" horiz-adv-x="523" 
d="M367 0q-10 0 -10 11v199q-38 -34 -80.5 -54.5t-85.5 -20.5q-66 0 -100 41.5t-34 120.5v182q0 10 10 10h74q11 0 11 -10v-164q0 -49 16 -73.5t50 -24.5q37 0 72 21t67 54v187q0 10 10 10h74q11 0 11 -10v-468q0 -11 -11 -11h-74z" />
    <glyph glyph-name="uni0448" unicode="&#x448;" horiz-adv-x="832" 
d="M205 -12q-65 0 -99 41.5t-34 124.5v325q0 10 10 10h74q11 0 11 -10v-316q0 -46 16 -69t49 -23q30 0 62 19.5t74 60.5v328q0 10 11 10h74q10 0 10 -10v-316q0 -46 16.5 -69t49.5 -23q30 0 62 19.5t74 60.5v328q0 10 11 10h74q10 0 10 -10v-356q0 -28 1.5 -57t5.5 -54
q2 -12 -11 -12h-68q-9 0 -10 8q-2 14 -4.5 31t-4.5 35q-43 -44 -82.5 -65t-84.5 -21q-50 0 -80.5 23t-43.5 68q-45 -46 -85.5 -68.5t-87.5 -22.5z" />
    <glyph glyph-name="uni0449" unicode="&#x449;" horiz-adv-x="841" 
d="M752 -121q-4 0 -7 3t-3 8v110h-43l62 81h59q5 0 8 -3t3 -8v-180q0 -5 -3 -8t-8 -3h-68zM205 -12q-65 0 -99 41.5t-34 124.5v325q0 10 10 10h74q11 0 11 -10v-316q0 -46 16 -69t49 -23q30 0 62 19.5t74 60.5v328q0 10 11 10h74q10 0 10 -10v-316q0 -46 16.5 -69t49.5 -23
q30 0 62 19.5t74 60.5v328q0 10 11 10h74q10 0 10 -10v-356q0 -28 1.5 -57t5.5 -54q2 -12 -11 -12h-68q-9 0 -10 8q-2 14 -4.5 31t-4.5 35q-43 -44 -82.5 -65t-84.5 -21q-50 0 -80.5 23t-43.5 68q-45 -46 -85.5 -68.5t-87.5 -22.5z" />
    <glyph glyph-name="uni044A" unicode="&#x44a;" horiz-adv-x="584" 
d="M29 408q-10 0 -10 11v60q0 10 10 10h157v-81h-157zM329 -12q-97 0 -141 44t-44 141v306q0 10 10 10h74q11 0 11 -10v-320q0 -46 24 -69.5t72 -23.5q47 0 73.5 24.5t26.5 69.5v47q0 38 -19 57.5t-55 19.5q-40 0 -73 -22t-61 -63l-1 86q34 39 73.5 60t89.5 21q69 0 106 -39
t37 -116v-44q0 -88 -52.5 -133.5t-150.5 -45.5z" />
    <glyph glyph-name="uni044B" unicode="&#x44b;" horiz-adv-x="726" 
d="M257 -12q-97 0 -141 44t-44 141v306q0 10 10 10h74q11 0 11 -10v-320q0 -46 24 -69.5t72 -23.5q47 0 73.5 24.5t26.5 69.5v47q0 38 -19 57.5t-56 19.5q-39 0 -72 -22t-61 -63l-1 86q34 39 73.5 60t89.5 21q69 0 106 -39t37 -116v-44q0 -88 -52.5 -133.5t-150.5 -45.5z
M569 0q-10 0 -10 11v468q0 10 10 10h74q11 0 11 -10v-468q0 -11 -11 -11h-74z" />
    <glyph glyph-name="uni044C" unicode="&#x44c;" horiz-adv-x="512" 
d="M257 -12q-97 0 -141 44t-44 141v306q0 10 10 10h74q11 0 11 -10v-320q0 -46 24 -69.5t72 -23.5q47 0 73.5 24.5t26.5 69.5v47q0 38 -19 57.5t-56 19.5q-39 0 -72 -22t-61 -63l-1 86q34 39 73.5 60t89.5 21q69 0 106 -39t37 -116v-44q0 -88 -52.5 -133.5t-150.5 -45.5z
" />
    <glyph glyph-name="uni044D" unicode="&#x44d;" horiz-adv-x="511" 
d="M249 -12q-66 0 -112.5 17.5t-68.5 48t-19 69.5q1 18 12 18h74q9 0 9 -15q0 -27 26 -41t75 -14q59 0 86 22.5t27 71.5v48h-201q-10 0 -10 10v50q0 10 10 10h201v43q0 47 -26.5 69.5t-82.5 22.5q-46 0 -71.5 -14.5t-25.5 -39.5q0 -14 -10 -14h-73q-12 0 -13 17
q-3 40 19.5 70t68 47t111.5 17q99 0 148.5 -44t49.5 -132v-151q0 -94 -51 -140t-153 -46z" />
    <glyph glyph-name="uni044E" unicode="&#x44e;" horiz-adv-x="735" 
d="M72 399v273q0 11 10 11h74q11 0 11 -11v-273h-95zM472 -12q-98 0 -150.5 50t-52.5 147v120q0 97 52.5 146.5t150.5 49.5q99 0 151.5 -49.5t52.5 -146.5v-120q0 -97 -52.5 -147t-151.5 -50zM82 0q-10 0 -10 11v468q0 10 10 10h74q11 0 11 -10v-190h132v-80h-132v-198
q0 -11 -11 -11h-74zM472 71q56 0 82.5 31t26.5 91v103q0 60 -26.5 91t-82.5 31q-55 0 -81.5 -31t-26.5 -91v-103q0 -60 26.5 -91t81.5 -31z" />
    <glyph glyph-name="uni044F" unicode="&#x44f;" horiz-adv-x="510" 
d="M42 0q-6 0 -8 3.5t1 9.5l69 107q12 19 24.5 37.5t25.5 37.5v1q-48 14 -73 47.5t-25 89.5q0 52 20.5 86.5t61.5 52t100 17.5h190q10 0 10 -10v-468q0 -11 -10 -11h-74q-11 0 -11 11v171h-96l-107 -175q-4 -7 -13 -7h-85zM253 258h90v152h-104q-51 0 -70 -20.5t-19 -56.5
q0 -41 25 -58t78 -17z" />
    <glyph glyph-name="uni0450" unicode="&#x450;" horiz-adv-x="522" 
d="M263 -12q-100 0 -152 46t-52 135v136q0 96 51.5 146t151.5 50t151.5 -49t51.5 -142v-78q0 -10 -10 -10h-302v-32q0 -63 27 -92t87 -29q45 0 69.5 14.5t24.5 43.5q0 11 11 11h74q8 0 10 -9q4 -67 -47.5 -104t-145.5 -37zM153 297h218v5q0 61 -27 89.5t-80 28.5
q-56 0 -83.5 -29.5t-27.5 -89.5v-4zM256 567q-8 0 -12 7l-85 123q-3 4 -1.5 7.5t6.5 3.5h76q10 0 13 -7l67 -123q5 -11 -6 -11h-58z" />
    <glyph glyph-name="uni0451" unicode="&#x451;" horiz-adv-x="522" 
d="M263 -12q-100 0 -152 46t-52 135v136q0 96 51.5 146t151.5 50t151.5 -49t51.5 -142v-78q0 -10 -10 -10h-302v-32q0 -63 27 -92t87 -29q45 0 69.5 14.5t24.5 43.5q0 11 11 11h74q8 0 10 -9q4 -67 -47.5 -104t-145.5 -37zM153 297h218v5q0 61 -27 89.5t-80 28.5
q-56 0 -83.5 -29.5t-27.5 -89.5v-4zM171 579q-29 0 -42 15t-13 39v11q0 24 13 38.5t42 14.5q30 0 43 -14.5t13 -38.5v-11q0 -24 -13 -39t-43 -15zM346 579q-29 0 -42 15t-13 39v11q0 24 13 38.5t42 14.5t42 -14.5t13 -38.5v-11q0 -24 -13 -39t-42 -15z" />
    <glyph glyph-name="uni0452" unicode="&#x452;" horiz-adv-x="559" 
d="M366 -190q-8 -5 -14 3l-45 54q-3 5 -2 8.5t5 6.5q27 18 45 43.5t27 61t9 81.5v258q0 47 -19 69.5t-58 22.5q-35 0 -70.5 -19.5t-75.5 -59.5v-328q0 -11 -11 -11h-74q-10 0 -10 11v541h-68q-11 0 -11 11v52q0 11 11 11h68v46q0 11 10 11h74q11 0 11 -11v-46h102
q11 0 11 -11v-52q0 -11 -11 -11h-102v-132q42 42 83 61.5t89 19.5q72 0 109 -41.5t37 -124.5v-272q0 -61 -12.5 -108.5t-39 -83t-68.5 -61.5z" />
    <glyph glyph-name="uni0453" unicode="&#x453;" horiz-adv-x="479" 
d="M230 -12q-89 0 -135 27.5t-47 98.5q-1 56 25 90.5t81 55.5l113 43q36 13 48.5 28t12.5 40q0 28 -20.5 39.5t-64.5 11.5q-47 0 -70 -14t-23 -41q0 -15 -9 -15h-73q-10 0 -12 15q-6 59 42.5 96.5t144.5 37.5q86 0 133 -32t47 -98q0 -51 -24.5 -83t-80.5 -53l-116 -43
q-33 -12 -46.5 -29t-12.5 -45q1 -32 23.5 -42t68.5 -10q51 1 76.5 16t25.5 47q0 15 9 15h73q5 0 7.5 -2t3.5 -12q5 -64 -41 -103t-159 -39zM185 556q-11 0 -6 11l67 123q4 7 12 7h76q6 0 7.5 -3.5t-1.5 -7.5l-85 -123q-5 -7 -12 -7h-58z" />
    <glyph glyph-name="uni0454" unicode="&#x454;" horiz-adv-x="519" 
d="M263 -12q-101 0 -152.5 46t-51.5 140v151q0 88 50 132t148 44q66 0 111 -17t68 -47t19 -70q-1 -17 -12 -17h-74q-9 0 -9 14q0 25 -26 39.5t-71 14.5q-55 0 -82 -22.5t-27 -69.5v-43h201q10 0 10 -10v-50q0 -10 -10 -10h-201v-48q0 -49 27 -71.5t85 -22.5q49 0 75 14.5
t26 40.5q0 15 10 15h73q11 0 12 -18q5 -39 -18 -69.5t-68.5 -48t-112.5 -17.5z" />
    <glyph glyph-name="uni0455" unicode="&#x455;" horiz-adv-x="466" 
d="M234 -12q-93 0 -138.5 39.5t-44.5 119.5q0 9 10 9h74q9 0 9 -9q0 -42 21.5 -61t68.5 -19t70.5 15.5t23.5 44.5q0 22 -13.5 37t-43.5 28l-114 47q-54 23 -77 52t-23 76q0 67 43 100.5t128 33.5q88 0 135.5 -35.5t47.5 -101.5q0 -10 -11 -10h-73q-10 0 -10 16
q0 25 -22.5 39t-62.5 14t-60 -14t-20 -42q0 -21 11 -31.5t45 -25.5l114 -48q53 -21 77 -51.5t24 -78.5q0 -70 -49 -107t-140 -37z" />
    <glyph glyph-name="uni0456" unicode="&#x456;" horiz-adv-x="238" 
d="M82 0q-10 0 -10 11v468q0 10 10 10h74q11 0 11 -10v-468q0 -11 -11 -11h-74zM119 568q-30 0 -44.5 16t-14.5 42v11q0 26 14.5 42t44.5 16q31 0 45 -16t14 -42v-11q0 -26 -14 -42t-45 -16z" />
    <glyph glyph-name="uni0457" unicode="&#x457;" horiz-adv-x="238" 
d="M82 0q-10 0 -10 11v468q0 10 10 10h74q11 0 11 -10v-468q0 -11 -11 -11h-74zM31 568q-29 0 -42 15t-13 39v11q0 24 13 38.5t42 14.5q30 0 43 -14.5t13 -38.5v-11q0 -24 -13 -39t-43 -15zM206 568q-29 0 -42 15t-13 39v11q0 24 13 38.5t42 14.5t42 -14.5t13 -38.5v-11
q0 -24 -13 -39t-42 -15z" />
    <glyph glyph-name="uni0458" unicode="&#x458;" horiz-adv-x="239" 
d="M46 -190q-8 -5 -14 3l-44 54q-3 5 -2.5 8.5t5.5 6.5q25 18 43 44t28 61t10 81v411q0 5 3 7.5t7 2.5h74q5 0 8 -2.5t3 -7.5v-416q0 -61 -13 -108.5t-39.5 -83t-68.5 -61.5zM120 568q-30 0 -44.5 16t-14.5 42v11q0 26 14.5 42t44.5 16q31 0 45 -16t14 -42v-11
q0 -26 -14 -42t-45 -16z" />
    <glyph glyph-name="uni0459" unicode="&#x459;" horiz-adv-x="742" 
d="M498 -12q-50 0 -83 12t-54 38t-36 70l-55 161q-10 30 -19.5 58t-18.5 57h-2q-8 -30 -17 -58.5t-20 -58.5l-89 -258q-3 -9 -11 -9h-80q-13 0 -8 13l169 462q5 14 17 14h82q12 0 17 -14l75 -208q39 49 84.5 74t98.5 25q69 0 106 -40t37 -115v-44q0 -87 -50.5 -133
t-142.5 -46zM499 66q44 0 69.5 24.5t25.5 69.5v47q0 38 -18.5 57.5t-55.5 19.5q-36 0 -69.5 -21t-61.5 -62l23 -65q16 -43 34.5 -56.5t52.5 -13.5z" />
    <glyph glyph-name="uni045A" unicode="&#x45a;" horiz-adv-x="818" 
d="M82 0q-10 0 -10 11v468q0 10 10 10h74q11 0 11 -10v-189h218v-81h-218v-198q0 -11 -11 -11h-74zM564 -12q-97 0 -141.5 44t-44.5 141v306q0 10 11 10h74q10 0 10 -10v-320q0 -46 24.5 -69.5t71.5 -23.5q48 0 74.5 24.5t26.5 69.5v47q0 38 -19 57.5t-56 19.5
q-39 0 -72 -22t-61 -63l-1 86q34 39 73.5 60t89.5 21q69 0 106 -39t37 -116v-44q0 -88 -52.5 -133.5t-150.5 -45.5z" />
    <glyph glyph-name="uni045B" unicode="&#x45b;" horiz-adv-x="558" 
d="M5 552q-11 0 -11 11v52q0 11 11 11h263q11 0 11 -11v-52q0 -11 -11 -11h-195h-68zM402 0q-11 0 -11 11v315q0 47 -19 69.5t-58 22.5q-38 0 -77.5 -23.5t-84.5 -72.5l-1 81q32 34 62 55.5t61 32t66 10.5q72 0 109 -41.5t37 -124.5v-324q0 -11 -10 -11h-74zM83 0
q-10 0 -10 11v661q0 11 10 11h74q11 0 11 -11v-661q0 -11 -11 -11h-74z" />
    <glyph glyph-name="uni045C" unicode="&#x45c;" horiz-adv-x="492" 
d="M488 13q3 -5 1 -9t-9 -4h-88q-9 0 -13 6l-145 216h-67v-211q0 -11 -11 -11h-74q-10 0 -10 11v661q0 11 10 11h74q11 0 11 -11v-373h65l134 184q5 6 14 6h85q6 0 8 -3.5t-2 -8.5l-156 -208zM229 556q-11 0 -6 11l67 123q4 7 12 7h76q6 0 7.5 -3.5t-1.5 -7.5l-85 -123
q-5 -7 -12 -7h-58z" />
    <glyph glyph-name="uni045D" unicode="&#x45d;" horiz-adv-x="543" 
d="M204 -12q-64 0 -98 42.5t-34 123.5v325q0 10 10 10h74q11 0 11 -10v-316q0 -47 16.5 -69.5t51.5 -22.5q36 0 72 22.5t88 75.5v-82q-31 -31 -62.5 -53.5t-63 -34t-65.5 -11.5zM404 0q-12 0 -13 10q-3 19 -5 39t-3 41l-6 44v345q0 10 10 10h74q11 0 11 -10v-356
q0 -28 1.5 -56.5t4.5 -55.5q2 -11 -11 -11h-63zM267 556q-8 0 -12 7l-85 123q-3 4 -1.5 7.5t6.5 3.5h76q10 0 13 -7l67 -123q5 -11 -6 -11h-58z" />
    <glyph glyph-name="uni045E" unicode="&#x45e;" horiz-adv-x="502" 
d="M144 -185q-12 0 -7 13l70 177l-184 472q-5 12 7 12h81q8 0 11 -8l85 -231q12 -31 23 -64.5t21 -66.5h2q10 33 22 66t23 65l84 231q3 8 13 8h77q13 0 8 -12l-251 -654q-3 -8 -11 -8h-74zM249 556q-34 0 -58.5 9.5t-40 21t-23.5 19.5q-4 4 -4 12v58q0 6 3 8.5t9 -2.5
q14 -14 44 -32t70 -18q41 0 71 18t43 32q6 5 9 2.5t3 -8.5v-58q0 -4 -1 -7t-3 -6q-8 -7 -23.5 -18.5t-39.5 -21t-59 -9.5z" />
    <glyph glyph-name="uni045F" unicode="&#x45f;" horiz-adv-x="543" 
d="M216 -121q-5 0 -8 3t-3 8v150l88 1v-151q0 -5 -3 -8t-8 -3h-66zM204 -12q-64 0 -98 42.5t-34 123.5v325q0 10 10 10h74q11 0 11 -10v-316q0 -47 16.5 -69.5t51.5 -22.5q36 0 72 22.5t88 75.5v-82q-31 -31 -62.5 -53.5t-63 -34t-65.5 -11.5zM404 0q-12 0 -13 10
q-3 19 -5 39t-3 41l-6 44v345q0 10 10 10h74q11 0 11 -10v-356q0 -28 1.5 -56.5t4.5 -55.5q2 -11 -11 -11h-63z" />
    <glyph glyph-name="uni0490" unicode="&#x490;" horiz-adv-x="476" 
d="M92 0q-10 0 -10 11v633q0 11 10 11h345q10 0 10 -11v-64q0 -11 -10 -11h-260v-558q0 -11 -10 -11h-75zM355 582v200q0 5 3 8t7 3h72q5 0 7.5 -3t2.5 -8v-200h-92z" />
    <glyph glyph-name="uni0491" unicode="&#x491;" horiz-adv-x="427" 
d="M90 -12q-19 0 -34.5 2t-37.5 11q-9 3 -9 11l1 61q0 5 3.5 7t9.5 0q13 -6 26.5 -9t24.5 -3q16 0 24 12t11 53l11 175q6 93 40.5 140.5t116.5 47.5q35 0 51.5 10t21.5 26q3 10 3 21v19t12 8h63q8 0 8 -13q0 -35 -5 -62t-19 -44q-15 -19 -39 -30.5t-74 -13.5q-43 -1 -61 -27
t-23 -89l-12 -156q-6 -85 -33 -121t-80 -36z" />
    <glyph glyph-name="uni04C0" unicode="&#x4c0;" horiz-adv-x="259" 
d="M92 0q-10 0 -10 11v633q0 11 10 11h75q10 0 10 -11v-633q0 -11 -10 -11h-75z" />
    <glyph glyph-name="uni04CF" unicode="&#x4cf;" horiz-adv-x="238" 
d="M82 0q-10 0 -10 11v661q0 11 10 11h74q11 0 11 -11v-661q0 -11 -11 -11h-74z" />
    <glyph glyph-name="uni04E2" unicode="&#x4e2;" horiz-adv-x="660" 
d="M92 0q-10 0 -10 11v633q0 11 10 11h72q11 0 11 -11v-298q0 -59 -1.5 -98.5t-3 -67t-2.5 -51.5h2q13 24 27 51t36.5 66.5t58.5 99.5l181 302q5 7 12 7h83q11 0 11 -11v-633q0 -11 -11 -11h-72q-11 0 -11 11v286q0 73 3 133t5 96h-2q-12 -23 -26.5 -50t-38.5 -68.5
t-66 -110.5l-173 -290q-5 -7 -12 -7h-83zM220 717q-11 0 -11 10v57q0 10 11 10h219q10 0 10 -10v-57q0 -10 -10 -10h-219z" />
    <glyph glyph-name="uni04E3" unicode="&#x4e3;" horiz-adv-x="543" 
d="M204 -12q-64 0 -98 42.5t-34 123.5v325q0 10 10 10h74q11 0 11 -10v-316q0 -47 16.5 -69.5t51.5 -22.5q36 0 72 22.5t88 75.5v-82q-31 -31 -62.5 -53.5t-63 -34t-65.5 -11.5zM404 0q-12 0 -13 10q-3 19 -5 39t-3 41l-6 44v345q0 10 10 10h74q11 0 11 -10v-356
q0 -28 1.5 -56.5t4.5 -55.5q2 -11 -11 -11h-63zM172 570q-11 0 -11 11v56q0 10 11 10h199q10 0 10 -10v-56q0 -11 -10 -11h-199z" />
    <glyph glyph-name="uni04EE" unicode="&#x4ee;" horiz-adv-x="555" 
d="M136 0q-5 0 -7.5 3.5t0.5 9.5l106 216l-212 413q-2 6 0.5 9.5t7.5 3.5h84q10 0 13 -7l110 -226q12 -25 24 -48.5t22 -49.5h2q11 26 22.5 50t23.5 48l111 226q4 7 13 7h81q6 0 8 -3.5t0 -9.5l-322 -635q-3 -7 -12 -7h-75zM174 717q-11 0 -11 10v57q0 10 11 10h219
q10 0 10 -10v-57q0 -10 -10 -10h-219z" />
    <glyph glyph-name="uni04EF" unicode="&#x4ef;" horiz-adv-x="502" 
d="M144 -185q-12 0 -7 13l70 177l-184 472q-5 12 7 12h81q8 0 11 -8l85 -231q12 -31 23 -64.5t21 -66.5h2q10 33 22 66t23 65l84 231q3 8 13 8h77q13 0 8 -12l-251 -654q-3 -8 -11 -8h-74zM149 570q-11 0 -11 11v56q0 10 11 10h199q10 0 10 -10v-56q0 -11 -10 -11h-199z" />
    <glyph glyph-name="Wgrave" unicode="&#x1e80;" horiz-adv-x="855" 
d="M213 0q-10 0 -12 9l-181 634q-3 12 9 12h76q9 0 11 -9l110 -396q8 -24 13.5 -49t12 -50t11.5 -49h2q10 35 20.5 69.5t20.5 68.5l82 268l-36 125q-2 5 1 8t8 3h77q9 0 11 -9l110 -402q9 -33 17.5 -65.5t16.5 -65.5h1q6 24 11.5 48.5t11.5 49.5t13 49l106 397q2 9 11 9h78
q13 0 10 -12l-175 -634q-2 -9 -12 -9h-102q-10 0 -12 9l-65 226q-10 34 -19 67.5t-18 66.5h-1q-10 -33 -19.5 -65.5t-20.5 -66.5l-68 -229q-3 -8 -12 -8h-98zM419 710q-7 0 -12 6l-74 103q-3 5 -1.5 9t6.5 4h79q8 0 11 -8l57 -104q2 -4 1 -7t-7 -3h-60z" />
    <glyph glyph-name="wgrave" unicode="&#x1e81;" horiz-adv-x="724" 
d="M183 0q-9 0 -12 9l-146 469q-3 11 9 11h79q8 0 11 -9l75 -266q9 -33 17.5 -65t16.5 -64h3q9 31 19 62l20 62l50 158l-29 100q-3 12 9 12h70q10 0 12 -8l70 -262q8 -31 15.5 -62t15.5 -62h2q8 32 16.5 64t17.5 63l75 268q3 9 12 9h79q12 0 8 -11l-146 -469q-3 -9 -12 -9
h-97q-8 0 -11 9l-30 96q-9 34 -18 69t-18 77h-3q-9 -42 -19 -76t-21 -67l-32 -99q-3 -9 -12 -9h-96zM358 556q-8 0 -12 7l-85 123q-3 4 -1.5 7.5t6.5 3.5h76q10 0 13 -7l67 -123q5 -11 -6 -11h-58z" />
    <glyph glyph-name="Wacute" unicode="&#x1e82;" horiz-adv-x="855" 
d="M213 0q-10 0 -12 9l-181 634q-3 12 9 12h76q9 0 11 -9l110 -396q8 -24 13.5 -49t12 -50t11.5 -49h2q10 35 20.5 69.5t20.5 68.5l82 268l-36 125q-2 5 1 8t8 3h77q9 0 11 -9l110 -402q9 -33 17.5 -65.5t16.5 -65.5h1q6 24 11.5 48.5t11.5 49.5t13 49l106 397q2 9 11 9h78
q13 0 10 -12l-175 -634q-2 -9 -12 -9h-102q-10 0 -12 9l-65 226q-10 34 -19 67.5t-18 66.5h-1q-10 -33 -19.5 -65.5t-20.5 -66.5l-68 -229q-3 -8 -12 -8h-98zM375 710q-5 0 -6 3t1 7l57 104q4 8 11 8h78q6 0 7.5 -4t-2.5 -9l-74 -103q-4 -6 -11 -6h-61z" />
    <glyph glyph-name="wacute" unicode="&#x1e83;" horiz-adv-x="724" 
d="M183 0q-9 0 -12 9l-146 469q-3 11 9 11h79q8 0 11 -9l75 -266q9 -33 17.5 -65t16.5 -64h3q9 31 19 62l20 62l50 158l-29 100q-3 12 9 12h70q10 0 12 -8l70 -262q8 -31 15.5 -62t15.5 -62h2q8 32 16.5 64t17.5 63l75 268q3 9 12 9h79q12 0 8 -11l-146 -469q-3 -9 -12 -9
h-97q-8 0 -11 9l-30 96q-9 34 -18 69t-18 77h-3q-9 -42 -19 -76t-21 -67l-32 -99q-3 -9 -12 -9h-96zM307 556q-11 0 -6 11l67 123q4 7 12 7h76q6 0 7.5 -3.5t-1.5 -7.5l-85 -123q-5 -7 -12 -7h-58z" />
    <glyph glyph-name="Wdieresis" unicode="&#x1e84;" horiz-adv-x="855" 
d="M213 0q-10 0 -12 9l-181 634q-3 12 9 12h76q9 0 11 -9l110 -396q8 -24 13.5 -49t12 -50t11.5 -49h2q10 35 20.5 69.5t20.5 68.5l82 268l-36 125q-2 5 1 8t8 3h77q9 0 11 -9l110 -402q9 -33 17.5 -65.5t16.5 -65.5h1q6 24 11.5 48.5t11.5 49.5t13 49l106 397q2 9 11 9h78
q13 0 10 -12l-175 -634q-2 -9 -12 -9h-102q-10 0 -12 9l-65 226q-10 34 -19 67.5t-18 66.5h-1q-10 -33 -19.5 -65.5t-20.5 -66.5l-68 -229q-3 -8 -12 -8h-98zM340 710q-29 0 -42 15.5t-13 38.5v11q0 25 13 39.5t42 14.5q30 0 43 -14.5t13 -39.5v-11q0 -23 -13 -38.5
t-43 -15.5zM514 710q-29 0 -42 15.5t-13 38.5v11q0 25 13 39.5t42 14.5t42.5 -14.5t13.5 -39.5v-11q0 -23 -13.5 -38.5t-42.5 -15.5z" />
    <glyph glyph-name="wdieresis" unicode="&#x1e85;" horiz-adv-x="724" 
d="M183 0q-9 0 -12 9l-146 469q-3 11 9 11h79q8 0 11 -9l75 -266q9 -33 17.5 -65t16.5 -64h3q9 31 19 62l20 62l50 158l-29 100q-3 12 9 12h70q10 0 12 -8l70 -262q8 -31 15.5 -62t15.5 -62h2q8 32 16.5 64t17.5 63l75 268q3 9 12 9h79q12 0 8 -11l-146 -469q-3 -9 -12 -9
h-97q-8 0 -11 9l-30 96q-9 34 -18 69t-18 77h-3q-9 -42 -19 -76t-21 -67l-32 -99q-3 -9 -12 -9h-96zM274 568q-29 0 -42 15t-13 39v11q0 24 13 38.5t42 14.5q30 0 43 -14.5t13 -38.5v-11q0 -24 -13 -39t-43 -15zM449 568q-29 0 -42 15t-13 39v11q0 24 13 38.5t42 14.5
t42 -14.5t13 -38.5v-11q0 -24 -13 -39t-42 -15z" />
    <glyph glyph-name="uni1E9E" unicode="&#x1e9e;" horiz-adv-x="655" 
d="M401 -12q-59 0 -98.5 18t-58 50t-15.5 75q1 11 4.5 13.5t9.5 2.5h68q10 0 10 -16q0 -29 20.5 -44.5t61.5 -15.5q57 0 85.5 30.5t28.5 94.5q0 67 -34 96t-114 29h-51q-11 0 -11 11v38q0 7 4 14l114 185h-248v-558q0 -11 -10 -11h-75q-10 0 -10 11v633q0 11 10 11h467
q8 0 10 -7.5t-3 -16.5l-146 -235q97 -7 145 -56.5t48 -142.5q0 -103 -55 -156t-157 -53z" />
    <glyph glyph-name="Ygrave" unicode="&#x1ef2;" horiz-adv-x="544" 
d="M234 0q-10 0 -10 11v214l-214 417q-2 6 0 9.5t7 3.5h87q9 0 12 -7l104 -215q13 -27 26 -55.5t26 -55.5h1q14 29 27 56.5t26 56.5l103 213q3 7 13 7h84q5 0 7.5 -3.5t-0.5 -9.5l-213 -417v-214q0 -11 -11 -11h-75zM263 710q-7 0 -12 6l-74 103q-3 5 -1.5 9t6.5 4h79
q8 0 11 -8l57 -104q2 -4 1 -7t-7 -3h-60z" />
    <glyph glyph-name="ygrave" unicode="&#x1ef3;" horiz-adv-x="502" 
d="M144 -185q-12 0 -7 13l70 177l-184 472q-5 12 7 12h81q8 0 11 -8l85 -231q12 -31 23 -64.5t21 -66.5h2q10 33 22 66t23 65l84 231q3 8 13 8h77q13 0 8 -12l-251 -654q-3 -8 -11 -8h-74zM245 556q-8 0 -12 7l-85 123q-3 4 -1.5 7.5t6.5 3.5h76q10 0 13 -7l67 -123
q5 -11 -6 -11h-58z" />
    <glyph glyph-name="uni2007" unicode="&#x2007;" horiz-adv-x="519" 
 />
    <glyph glyph-name="uni2008" unicode="&#x2008;" horiz-adv-x="211" 
 />
    <glyph glyph-name="uni200B" unicode="&#x200b;" horiz-adv-x="9" 
 />
    <glyph glyph-name="endash" unicode="&#x2013;" horiz-adv-x="739" 
d="M77 229q-10 0 -10 11v51q0 11 10 11h585q10 0 10 -11v-51q0 -11 -10 -11h-585z" />
    <glyph glyph-name="emdash" unicode="&#x2014;" horiz-adv-x="879" 
d="M77 229q-10 0 -10 11v51q0 11 10 11h725q10 0 10 -11v-51q0 -11 -10 -11h-725z" />
    <glyph glyph-name="quoteleft" unicode="&#x2018;" horiz-adv-x="242" 
d="M202 655q13 0 10 -13l-51 -224q-2 -10 -10 -10h-87q-14 0 -9 15l75 224q3 8 10 8h62z" />
    <glyph glyph-name="quoteright" unicode="&#x2019;" horiz-adv-x="242" 
d="M39 409q-12 0 -9 13l50 224q2 9 11 9h87q14 0 8 -14l-75 -225q-3 -7 -10 -7h-62z" />
    <glyph glyph-name="quotesinglbase" unicode="&#x201a;" horiz-adv-x="242" 
d="M39 -131q-12 0 -9 13l50 224q2 9 11 9h87q14 0 8 -14l-75 -225q-3 -7 -10 -7h-62z" />
    <glyph glyph-name="quotedblleft" unicode="&#x201c;" horiz-adv-x="408" 
d="M368 655q13 0 10 -13l-51 -224q-2 -10 -10 -10h-87q-14 0 -9 15l75 224q3 8 10 8h62zM202 655q13 0 10 -13l-51 -224q-2 -10 -10 -10h-87q-14 0 -9 15l75 224q3 8 10 8h62z" />
    <glyph glyph-name="quotedblright" unicode="&#x201d;" horiz-adv-x="408" 
d="M39 409q-12 0 -9 13l50 224q2 9 11 9h87q14 0 8 -14l-75 -225q-3 -7 -10 -7h-62zM205 409q-12 0 -9 13l50 224q2 9 11 9h87q14 0 8 -14l-75 -225q-3 -7 -10 -7h-62z" />
    <glyph glyph-name="quotedblbase" unicode="&#x201e;" horiz-adv-x="408" 
d="M39 -131q-12 0 -9 13l50 224q2 9 11 9h87q14 0 8 -14l-75 -225q-3 -7 -10 -7h-62zM205 -131q-12 0 -9 13l50 224q2 9 11 9h87q14 0 8 -14l-75 -225q-3 -7 -10 -7h-62z" />
    <glyph glyph-name="dagger" unicode="&#x2020;" horiz-adv-x="493" 
d="M211 0q-11 0 -11 11v390h-169q-11 0 -11 11v65q0 11 11 11h169v156q0 11 11 11h72q10 0 10 -11v-156h170q10 0 10 -11v-65q0 -11 -10 -11h-170v-390q0 -11 -10 -11h-72z" />
    <glyph glyph-name="daggerdbl" unicode="&#x2021;" horiz-adv-x="511" 
d="M220 0q-11 0 -11 11v145h-170q-10 0 -10 11v65q0 11 10 11h170v169h-170q-10 0 -10 11v65q0 11 10 11h170v145q0 11 11 11h72q10 0 10 -11v-145h170q10 0 10 -11v-65q0 -11 -10 -11h-170v-169h170q10 0 10 -11v-65q0 -11 -10 -11h-170v-145q0 -11 -10 -11h-72z" />
    <glyph glyph-name="bullet" unicode="&#x2022;" horiz-adv-x="306" 
d="M153 167q-42 0 -65.5 19.5t-23.5 54.5v43q0 36 23.5 55t65.5 19q43 0 66.5 -19t23.5 -55v-43q0 -35 -23.5 -54.5t-66.5 -19.5z" />
    </font>
</defs>
</svg>
